<svg width="526" height="693" viewBox="0 0 526 693" fill="none" xmlns="http://www.w3.org/2000/svg">
<path d="M495.46 692.436H29.7626C29.7626 685.057 26.6837 677.98 21.2031 672.762C15.7224 667.545 8.28881 664.614 0.538023 664.614V28.3609C8.28881 28.3609 15.7224 25.4292 21.2031 20.2114C26.6837 14.9937 29.7626 7.91709 29.7626 0.538086H495.458C495.458 7.91709 498.536 14.9937 504.017 20.2114C509.498 25.4292 516.932 28.3609 524.682 28.3609V664.614C516.932 664.614 509.499 667.546 504.019 672.763C498.539 677.981 495.46 685.058 495.46 692.436Z" stroke="#4E2F25" stroke-width="1.07605" stroke-linecap="round" stroke-linejoin="round"/>
<path d="M6.2936 11.4944C9.47124 11.4944 12.0472 9.04193 12.0472 6.01671C12.0472 2.99149 9.47124 0.539062 6.2936 0.539062C3.11596 0.539062 0.539976 2.99149 0.539976 6.01671C0.539976 9.04193 3.11596 11.4944 6.2936 11.4944Z" fill="#843F1E"/>
<path d="M518.931 11.4944C522.108 11.4944 524.684 9.04193 524.684 6.01671C524.684 2.99149 522.108 0.539062 518.931 0.539062C515.753 0.539062 513.177 2.99149 513.177 6.01671C513.177 9.04193 515.753 11.4944 518.931 11.4944Z" fill="#843F1E"/>
<path d="M6.29375 692.437C9.47139 692.437 12.0474 689.984 12.0474 686.959C12.0474 683.934 9.47139 681.481 6.29375 681.481C3.11611 681.481 0.540125 683.934 0.540125 686.959C0.540125 689.984 3.11611 692.437 6.29375 692.437Z" fill="#843F1E"/>
<path d="M518.931 692.437C522.108 692.437 524.684 689.984 524.684 686.959C524.684 683.934 522.108 681.481 518.931 681.481C515.753 681.481 513.177 683.934 513.177 686.959C513.177 689.984 515.753 692.437 518.931 692.437Z" fill="#843F1E"/>
</svg>
