<svg width="303" height="118" viewBox="0 0 303 118" fill="none" xmlns="http://www.w3.org/2000/svg">
<path d="M18.5 21.7156H139.116" stroke="url(#paint0_linear_0_1872)" stroke-miterlimit="10" stroke-linecap="round" stroke-linejoin="round"/>
<path d="M284.035 21.7156H163.421" stroke="url(#paint1_linear_0_1872)" stroke-miterlimit="10" stroke-linecap="round" stroke-linejoin="round"/>
<path d="M204.426 14.3261C204.907 15.4778 206.232 16.0239 207.388 15.5462C208.95 14.899 209.692 13.1104 209.041 11.5525C208.162 9.44558 206.29 8.57809 203.625 9.32207L167.106 21.1707C161.572 22.7167 157.681 20.9163 155.858 16.5402C154.509 13.3039 156.047 9.5914 159.291 8.24627C161.691 7.25231 164.444 8.38614 165.442 10.7788C166.179 12.548 165.339 14.5791 163.565 15.3141C162.253 15.8572 160.748 15.2382 160.202 13.9288" stroke="url(#paint2_linear_0_1872)" stroke-miterlimit="10" stroke-linecap="round" stroke-linejoin="round"/>
<path d="M98.1103 14.3261C97.6298 15.4778 96.3047 16.0239 95.1483 15.5462C93.5859 14.899 92.8458 13.1104 93.4949 11.5525C94.3738 9.44558 96.2465 8.57809 98.9116 9.32207L135.43 21.1707C140.965 22.7167 144.855 20.9163 146.678 16.5402C148.027 13.3039 146.489 9.5914 143.245 8.24627C140.845 7.25231 138.092 8.38614 137.094 10.7788C136.357 12.548 137.197 14.5791 138.971 15.3141C140.283 15.8572 141.788 15.2382 142.335 13.9288" stroke="url(#paint3_linear_0_1872)" stroke-miterlimit="10" stroke-linecap="round" stroke-linejoin="round"/>
<path d="M129.41 18.7903L126.922 10.8862C125.988 8.18852 124.145 7.10976 121.831 7.60674C120.119 7.97426 119.031 9.65417 119.398 11.3609C119.67 12.6227 120.917 13.4247 122.183 13.1539C123.118 12.953 123.714 12.0349 123.512 11.102" stroke="url(#paint4_linear_0_1872)" stroke-miterlimit="10" stroke-linecap="round" stroke-linejoin="round"/>
<path d="M173.128 18.7903L175.615 10.8862C176.55 8.18852 178.392 7.10976 180.707 7.60674C182.418 7.97426 183.506 9.65417 183.139 11.3609C182.868 12.6227 181.62 13.4247 180.356 13.1539C179.421 12.953 178.825 12.0349 179.027 11.102" stroke="url(#paint5_linear_0_1872)" stroke-miterlimit="10" stroke-linecap="round" stroke-linejoin="round"/>
<path d="M151.266 16.1473L152.379 15.0371L151.266 13.9269L150.153 15.0371L151.266 16.1473Z" fill="url(#paint6_linear_0_1872)" stroke="url(#paint7_linear_0_1872)"/>
<path d="M153.923 7.68774L151.268 1.302L148.612 7.68774L151.268 10.3372L153.923 7.68774Z" fill="url(#paint8_linear_0_1872)" stroke="url(#paint9_linear_0_1872)"/>
<path d="M278.113 105.395H157.499" stroke="url(#paint10_linear_0_1872)" stroke-miterlimit="10" stroke-linecap="round" stroke-linejoin="round"/>
<path d="M157.578 105.699L160.066 113.603C161 116.301 162.843 117.38 165.157 116.883C166.869 116.515 167.956 114.835 167.589 113.129C167.318 111.867 166.07 111.065 164.806 111.336C163.871 111.537 163.275 112.455 163.477 113.388" stroke="url(#paint11_linear_0_1872)" stroke-miterlimit="10" stroke-linecap="round" stroke-linejoin="round"/>
<path d="M25.5 105.395H146.114" stroke="url(#paint12_linear_0_1872)" stroke-miterlimit="10" stroke-linecap="round" stroke-linejoin="round"/>
<path d="M146.035 105.699L143.548 113.603C142.614 116.301 140.771 117.38 138.456 116.883C136.745 116.515 135.657 114.835 136.024 113.129C136.296 111.867 137.543 111.065 138.807 111.336C139.743 111.537 140.338 112.455 140.137 113.388" stroke="url(#paint13_linear_0_1872)" stroke-miterlimit="10" stroke-linecap="round" stroke-linejoin="round"/>
<path d="M151.679 110.963L152.792 112.073L151.679 113.183L150.566 112.073L151.679 110.963Z" fill="url(#paint14_linear_0_1872)" stroke="url(#paint15_linear_0_1872)"/>
<path d="M94.9141 33.4414C95.8646 33.6758 96.4635 33.8516 96.7109 33.9688C96.9714 34.0859 97.1016 34.2031 97.1016 34.3203C97.1016 34.4245 96.9974 34.5742 96.7891 34.7695C96.5807 34.9648 96.3203 35.1862 96.0078 35.4336C95.6953 35.668 95.3503 35.9219 94.9727 36.1953C94.5951 36.4688 94.237 36.7161 93.8984 36.9375C93.0911 37.4714 92.6094 37.7643 92.4531 37.8164C92.4661 37.7643 92.5638 37.6667 92.7461 37.5234C93.0846 37.25 93.2539 37.0807 93.2539 37.0156C93.2539 36.9375 93.2214 36.8789 93.1562 36.8398C93.1042 36.7878 93.0391 36.7487 92.9609 36.7227C92.8958 36.6836 92.8307 36.651 92.7656 36.625C92.7005 36.599 92.4531 36.5078 92.0234 36.3516C90.9948 35.9479 89.5169 35.7461 87.5898 35.7461C85.6628 35.7461 83.9961 35.974 82.5898 36.4297C81.1966 36.8724 80.0117 37.5495 79.0352 38.4609C77.0169 40.349 76.0078 43.0964 76.0078 46.7031C76.0078 50.362 77.0104 53.4544 79.0156 55.9805C81.1771 58.6888 84.0156 60.043 87.5312 60.043C89.862 60.043 92.7201 59.3008 96.1055 57.8164C96.0013 57.9076 95.9036 57.9922 95.8125 58.0703C95.6823 58.2135 95.5195 58.3633 95.3242 58.5195C91.5352 61.3581 87.6094 62.7773 83.5469 62.7773C80.0443 62.7773 77.2448 61.4557 75.1484 58.8125C73.2083 56.3516 72.2383 53.2982 72.2383 49.6523C72.2383 47.7773 72.5117 46.1953 73.0586 44.9062C73.6185 43.6042 74.2695 42.4453 75.0117 41.4297C75.7539 40.4141 76.5938 39.4766 77.5312 38.6172C78.4818 37.7578 79.5039 36.9896 80.5977 36.3125C81.7044 35.6224 82.8503 35.0365 84.0352 34.5547C86.4701 33.5651 88.9245 33.0703 91.3984 33.0703C92.7917 33.0703 93.9635 33.194 94.9141 33.4414ZM104.953 57.6797C104.953 58.9818 105.331 59.6328 106.086 59.6328C106.346 59.6328 106.743 59.5221 107.277 59.3008C106.77 60.4336 106.008 61.2865 104.992 61.8594C104.471 62.1589 103.918 62.2891 103.332 62.25C102.746 62.224 102.323 62.0677 102.062 61.7812C101.815 61.4948 101.62 61.1497 101.477 60.7461C101.268 60.1081 101.164 59.2878 101.164 58.2852V35.9805C101.164 34.6003 100.923 33.6823 100.441 33.2266C100.22 33.0182 99.9401 32.9141 99.6016 32.9141C99.0417 32.9141 98.4297 33.0052 97.7656 33.1875C99.3542 31.9375 101.75 30.3034 104.953 28.2852V46.1953C106.581 44.763 108.247 43.7865 109.953 43.2656C110.578 43.0703 111.184 42.9727 111.77 42.9727C112.355 42.9727 112.909 43.0703 113.43 43.2656C113.964 43.4479 114.439 43.7083 114.855 44.0469C115.78 44.8151 116.242 45.7721 116.242 46.918V56.8594C116.242 58.5781 116.659 59.5286 117.492 59.7109C117.727 59.763 117.974 59.7891 118.234 59.7891C118.638 59.7891 119.204 59.6263 119.934 59.3008C118.853 60.681 117.596 61.5859 116.164 62.0156C115.669 62.1719 115.135 62.25 114.562 62.25C114.003 62.25 113.566 62.1133 113.254 61.8398C112.941 61.5664 112.727 61.2214 112.609 60.8047C112.492 60.388 112.434 59.9323 112.434 59.4375V50.6875C112.434 48.6953 112.128 47.3542 111.516 46.6641C110.956 46.013 109.921 45.6875 108.41 45.6875C106.392 45.6875 105.266 47.0677 105.031 49.8281C104.979 50.5312 104.953 51.1823 104.953 51.7812V57.6797ZM134.582 56.1562L134.543 57.5234C134.543 58.5391 134.829 59.1836 135.402 59.457C135.624 59.5612 135.878 59.6133 136.164 59.6133C136.62 59.6133 137.089 59.5091 137.57 59.3008C137.076 59.5091 136.646 59.7826 136.281 60.1211C135.917 60.4596 135.546 60.7917 135.168 61.1172C134.23 61.8984 133.286 62.2891 132.336 62.2891C131.385 62.2891 130.878 61.7422 130.812 60.6484C130.786 60.362 130.773 60.0755 130.773 59.7891C128.43 61.4167 126.281 62.2305 124.328 62.2305C122.674 62.2305 121.529 61.7292 120.891 60.7266C120.656 60.362 120.539 59.8607 120.539 59.2227C120.539 58.5846 120.734 57.9466 121.125 57.3086C121.516 56.6576 122.01 56.0651 122.609 55.5312C123.677 54.5417 124.966 53.7279 126.477 53.0898C127.596 52.6081 129.035 52.3346 130.793 52.2695V51.4102C130.793 49.3398 130.604 47.9401 130.227 47.2109C129.849 46.4818 129.361 45.9479 128.762 45.6094C128.163 45.2578 127.46 45.082 126.652 45.082C125.285 45.082 124.081 45.349 123.039 45.8828C124.471 44.6979 125.52 43.9167 126.184 43.5391C127.551 42.7708 128.788 42.3867 129.895 42.3867C131.014 42.3867 131.854 42.5495 132.414 42.875C132.974 43.2005 133.417 43.6302 133.742 44.1641C134.302 45.1016 134.582 46.4492 134.582 48.207V56.1562ZM125.402 58.9688C125.715 59.1901 126.079 59.3529 126.496 59.457C126.913 59.5612 127.531 59.6133 128.352 59.6133C129.172 59.6133 129.986 59.418 130.793 59.0273V54.9258H127.629C126.496 54.9258 125.507 55.0039 124.66 55.1602C124.491 55.7201 124.406 56.2539 124.406 56.7617C124.406 57.2695 124.491 57.7057 124.66 58.0703C124.842 58.4349 125.09 58.7344 125.402 58.9688ZM137.961 45.7852C140.253 43.7409 142.108 42.7188 143.527 42.7188C144.712 42.7188 145.376 43.3698 145.52 44.6719C145.559 45.0365 145.578 45.401 145.578 45.7656C146.893 44.8021 147.831 44.1706 148.391 43.8711C149.602 43.207 150.767 42.875 151.887 42.875C153.02 42.875 154.022 43.0964 154.895 43.5391C155.78 43.9688 156.503 44.5612 157.062 45.3164C158.117 46.7617 158.645 48.6888 158.645 51.0977C158.645 53.9492 157.362 56.5339 154.797 58.8516C153.26 60.2448 151.516 61.2344 149.562 61.8203C148.599 62.0938 147.772 62.2305 147.082 62.2305C146.405 62.2305 145.904 62.1979 145.578 62.1328V67.7188C145.578 69.151 145.122 70.2969 144.211 71.1562H148.977C148.833 71.1693 148.599 71.3125 148.273 71.5859C147.948 71.8724 147.596 72.1784 147.219 72.5039C146.177 73.3763 145.5 73.8125 145.188 73.8125H140.422C141.32 72.6276 141.77 71.2214 141.77 69.5938V47.9336C141.77 47.0742 141.665 46.5013 141.457 46.2148C141.079 45.681 140.546 45.4141 139.855 45.4141C139.165 45.4141 138.534 45.5378 137.961 45.7852ZM145.578 56.7812C146.685 58.6823 148.378 59.6328 150.656 59.6328C153.052 59.6328 154.406 58.4479 154.719 56.0781C154.823 55.362 154.875 54.5286 154.875 53.5781C154.875 52.6146 154.758 51.638 154.523 50.6484C154.289 49.6458 153.911 48.7669 153.391 48.0117C152.232 46.3581 150.5 45.5312 148.195 45.5312C147.167 45.5312 146.294 46.1237 145.578 47.3086V56.7812ZM161.066 45.0039L163.605 43.0117V40.2383C164.309 39.7435 164.81 39.3659 165.109 39.1055C165.409 38.8451 165.663 38.6562 165.871 38.5391C166.079 38.4219 166.294 38.2982 166.516 38.168C167.076 37.8424 167.375 37.6471 167.414 37.582V42.3477H173.664C173.495 42.3607 173.065 42.6732 172.375 43.2852C171.06 44.431 170.227 45.0039 169.875 45.0039H167.414V55.4727C167.414 57.8685 168.104 59.2552 169.484 59.6328C169.901 59.737 170.292 59.7891 170.656 59.7891C171.255 59.7891 171.763 59.7044 172.18 59.5352C172.596 59.3529 172.941 59.1901 173.215 59.0469C172.421 60.2578 171.307 61.1823 169.875 61.8203C169.133 62.1458 168.332 62.3086 167.473 62.3086C166.626 62.3086 165.969 62.1589 165.5 61.8594C165.031 61.5599 164.654 61.1693 164.367 60.6875C163.859 59.8021 163.605 58.6302 163.605 57.1719V45.0039H161.066ZM189.758 58.3242C187.974 60.3164 185.76 61.5599 183.117 62.0547C182.505 62.1589 181.75 62.2109 180.852 62.2109C179.953 62.2109 179.107 61.9635 178.312 61.4688C177.518 60.9609 176.867 60.3099 176.359 59.5156C175.396 57.9792 174.914 56.1042 174.914 53.8906C174.914 52.4323 175.474 50.8177 176.594 49.0469C177.688 47.3021 179.022 45.8438 180.598 44.6719C182.29 43.4219 183.892 42.7969 185.402 42.7969C186.184 42.7969 186.841 43.0833 187.375 43.6562C187.87 44.2161 188.117 44.8542 188.117 45.5703C188.117 46.2865 187.961 46.9505 187.648 47.5625C187.336 48.1615 186.926 48.7474 186.418 49.3203C185.923 49.8932 185.35 50.4466 184.699 50.9805C184.061 51.5013 183.404 51.9896 182.727 52.4453C181.776 53.0964 180.578 53.832 179.133 54.6523C179.549 56.2279 180.285 57.4453 181.34 58.3047C182.395 59.151 183.755 59.5742 185.422 59.5742C186.828 59.5742 188.273 59.1576 189.758 58.3242ZM183.859 50.4922C184.211 49.9323 184.387 49.3854 184.387 48.8516C184.387 48.3177 184.328 47.8685 184.211 47.5039C184.094 47.1263 183.924 46.7943 183.703 46.5078C183.195 45.8568 182.538 45.5312 181.73 45.5312C179.751 45.5312 178.762 47.5495 178.762 51.5859C178.762 52.3021 178.82 53.0117 178.938 53.7148C181.229 53.0768 182.87 52.0026 183.859 50.4922ZM209.484 42.9531C207.909 45.2708 206.001 46.4297 203.762 46.4297C203.397 46.4297 202.928 46.2865 202.355 46C201.262 45.4531 200.52 45.1797 200.129 45.1797C199.751 45.1797 199.445 45.3034 199.211 45.5508C198.977 45.7982 198.781 46.1432 198.625 46.5859C198.273 47.5495 198.098 48.7995 198.098 50.3359V57.8164C198.098 58.6497 198.352 59.2161 198.859 59.5156C199.042 59.6328 199.27 59.6914 199.543 59.6914C199.816 59.6914 200.103 59.6263 200.402 59.4961C200.142 59.7305 199.888 60.0104 199.641 60.3359C199.393 60.6484 199.113 60.9544 198.801 61.2539C198.059 61.9701 197.18 62.3281 196.164 62.3281C195.643 62.3281 195.201 62.1654 194.836 61.8398C194.471 61.5013 194.289 61.0911 194.289 60.6094V49.3594C194.289 48.9036 194.296 48.4479 194.309 47.9922C194.322 47.5365 194.276 47.1198 194.172 46.7422C193.924 45.9219 193.215 45.5117 192.043 45.5117C191.483 45.5117 190.923 45.6159 190.363 45.8242C190.702 45.707 191.138 45.401 191.672 44.9062C192.714 43.9688 193.436 43.4219 193.84 43.2656C194.673 42.9661 195.344 42.8164 195.852 42.8164C196.372 42.8164 196.77 42.8945 197.043 43.0508C197.329 43.194 197.551 43.3958 197.707 43.6562C197.967 44.0859 198.098 44.75 198.098 45.6484C198.475 45.362 198.885 45.043 199.328 44.6914C199.784 44.3268 200.253 43.9818 200.734 43.6562C201.893 42.888 202.902 42.5039 203.762 42.5039C204.27 42.5039 204.803 42.6471 205.363 42.9336C205.923 43.2201 206.34 43.4284 206.613 43.5586C206.887 43.6888 207.141 43.7539 207.375 43.7539C207.896 43.7539 208.599 43.487 209.484 42.9531ZM226.34 54.7109C226.34 56.7161 225.819 58.2396 224.777 59.2812H231.984C229.823 61.0521 228.56 61.9375 228.195 61.9375H220.617L220.656 61.8594C221.294 61.2734 221.77 60.6875 222.082 60.1016C222.395 59.5156 222.551 58.7995 222.551 57.9531V43.6172L218.547 45.9609V45.3555L226.34 40.668V54.7109Z" fill="url(#paint16_linear_0_1872)"/>
<path d="M0.5 88.2461H56.008" stroke="url(#paint17_linear_0_1872)" stroke-miterlimit="10" stroke-linecap="round" stroke-linejoin="round"/>
<path d="M57.4534 85.8191C58.4694 84.806 60.0764 84.7671 60.0764 84.7671C60.0764 84.7671 60.0374 86.3695 59.0214 87.3827C58.0054 88.3948 56.3984 88.4347 56.3984 88.4347C56.3984 88.4347 56.4374 86.8312 57.4534 85.8191Z" fill="url(#paint18_linear_0_1872)"/>
<path d="M59.0214 89.1096C58.0054 88.0965 56.3984 88.0576 56.3984 88.0576C56.3984 88.0576 56.4374 89.6601 57.4534 90.6732C58.4694 91.6863 60.0764 91.7252 60.0764 91.7252C60.0764 91.7252 60.0374 90.1217 59.0214 89.1096Z" fill="url(#paint19_linear_0_1872)"/>
<path d="M61.97 87.1404C63.406 87.1404 64.57 88.2462 64.57 88.2462C64.57 88.2462 63.406 89.3521 61.97 89.3521C60.534 89.3521 59.37 88.2462 59.37 88.2462C59.37 88.2462 60.534 87.1404 61.97 87.1404Z" fill="url(#paint20_linear_0_1872)"/>
<path d="M301.57 88.2461H246.062" stroke="url(#paint21_linear_0_1872)" stroke-miterlimit="10" stroke-linecap="round" stroke-linejoin="round"/>
<path d="M244.617 85.8191C243.601 84.806 241.994 84.7671 241.994 84.7671C241.994 84.7671 242.033 86.3695 243.049 87.3827C244.065 88.3948 245.672 88.4347 245.672 88.4347C245.672 88.4347 245.633 86.8312 244.617 85.8191Z" fill="url(#paint22_linear_0_1872)"/>
<path d="M243.049 89.1096C244.065 88.0965 245.672 88.0576 245.672 88.0576C245.672 88.0576 245.633 89.6601 244.617 90.6732C243.601 91.6863 241.994 91.7252 241.994 91.7252C241.994 91.7252 242.033 90.1217 243.049 89.1096Z" fill="url(#paint23_linear_0_1872)"/>
<path d="M240.1 87.1404C238.664 87.1404 237.5 88.2462 237.5 88.2462C237.5 88.2462 238.664 89.3521 240.1 89.3521C241.536 89.3521 242.7 88.2462 242.7 88.2462C242.7 88.2462 241.536 87.1404 240.1 87.1404Z" fill="url(#paint24_linear_0_1872)"/>
<path d="M70.9091 93.7842V82.1478H74.8409C75.7538 82.1478 76.5 82.3126 77.0795 82.6421C77.6629 82.9679 78.0947 83.4092 78.375 83.966C78.6553 84.5228 78.7955 85.144 78.7955 85.8296C78.7955 86.5152 78.6553 87.1383 78.375 87.699C78.0985 88.2596 77.6705 88.7065 77.0909 89.0399C76.5114 89.3694 75.7689 89.5342 74.8636 89.5342H72.0455V88.2842H74.8182C75.4432 88.2842 75.9451 88.1762 76.3239 87.9603C76.7027 87.7444 76.9773 87.4527 77.1477 87.0853C77.322 86.7141 77.4091 86.2955 77.4091 85.8296C77.4091 85.3637 77.322 84.9471 77.1477 84.5796C76.9773 84.2122 76.7008 83.9243 76.3182 83.716C75.9356 83.5039 75.428 83.3978 74.7955 83.3978H72.3182V93.7842H70.9091ZM84.4489 93.966C83.608 93.966 82.8826 93.7804 82.2727 93.4092C81.6667 93.0342 81.1989 92.5115 80.8693 91.841C80.5436 91.1668 80.3807 90.3827 80.3807 89.4887C80.3807 88.5948 80.5436 87.8069 80.8693 87.1251C81.1989 86.4395 81.6572 85.9054 82.2443 85.5228C82.8352 85.1365 83.5246 84.9433 84.3125 84.9433C84.767 84.9433 85.2159 85.019 85.6591 85.1705C86.1023 85.3221 86.5057 85.5683 86.8693 85.9092C87.233 86.2463 87.5227 86.6933 87.7386 87.2501C87.9545 87.8069 88.0625 88.4925 88.0625 89.3069V89.8751H81.3352V88.716H86.6989C86.6989 88.2236 86.6004 87.7842 86.4034 87.3978C86.2102 87.0115 85.9337 86.7065 85.5739 86.483C85.2178 86.2596 84.7973 86.1478 84.3125 86.1478C83.7784 86.1478 83.3163 86.2804 82.9261 86.5455C82.5398 86.8069 82.2424 87.1478 82.0341 87.5683C81.8258 87.9887 81.7216 88.4395 81.7216 88.9205V89.6933C81.7216 90.3524 81.8352 90.9111 82.0625 91.3694C82.2936 91.824 82.6136 92.1705 83.0227 92.4092C83.4318 92.644 83.9072 92.7615 84.4489 92.7615C84.8011 92.7615 85.1193 92.7122 85.4034 92.6137C85.6913 92.5115 85.9394 92.3599 86.1477 92.1592C86.3561 91.9546 86.517 91.7008 86.6307 91.3978L87.9261 91.7615C87.7898 92.2008 87.5606 92.5872 87.2386 92.9205C86.9167 93.2501 86.5189 93.5077 86.0455 93.6933C85.572 93.8751 85.0398 93.966 84.4489 93.966ZM90.1023 93.7842V85.0569H91.3977V86.3751H91.4886C91.6477 85.9433 91.9356 85.5929 92.3523 85.324C92.7689 85.055 93.2386 84.9205 93.7614 84.9205C93.8598 84.9205 93.983 84.9224 94.1307 84.9262C94.2784 84.93 94.3902 84.9357 94.4659 84.9433V86.3069C94.4205 86.2955 94.3163 86.2785 94.1534 86.2558C93.9943 86.2293 93.8258 86.216 93.6477 86.216C93.2235 86.216 92.8447 86.305 92.5114 86.483C92.1818 86.6573 91.9205 86.8997 91.7273 87.2103C91.5379 87.5171 91.4432 87.8675 91.4432 88.2615V93.7842H90.1023ZM102.237 87.0115L101.033 87.3524C100.957 87.1516 100.845 86.9565 100.697 86.7671C100.554 86.574 100.357 86.4149 100.107 86.2899C99.8565 86.1649 99.5365 86.1024 99.1463 86.1024C98.6122 86.1024 98.1671 86.2255 97.8111 86.4717C97.4588 86.7141 97.2827 87.0228 97.2827 87.3978C97.2827 87.7311 97.4039 87.9944 97.6463 88.1876C97.8887 88.3808 98.2675 88.5418 98.7827 88.6705L100.078 88.9887C100.858 89.1781 101.44 89.4679 101.822 89.858C102.205 90.2444 102.396 90.7425 102.396 91.3524C102.396 91.8524 102.252 92.2993 101.964 92.6933C101.68 93.0872 101.283 93.3978 100.771 93.6251C100.26 93.8524 99.6652 93.966 98.9872 93.966C98.0971 93.966 97.3603 93.7728 96.777 93.3865C96.1937 93.0001 95.8243 92.4357 95.669 91.6933L96.9418 91.3751C97.063 91.8448 97.2921 92.1971 97.6293 92.4319C97.9702 92.6668 98.4152 92.7842 98.9645 92.7842C99.5895 92.7842 100.086 92.6516 100.453 92.3865C100.824 92.1175 101.01 91.7955 101.01 91.4205C101.01 91.1175 100.904 90.8637 100.692 90.6592C100.48 90.4508 100.154 90.2955 99.7145 90.1933L98.2599 89.8524C97.4607 89.663 96.8736 89.3694 96.4986 88.9717C96.1274 88.5702 95.9418 88.0683 95.9418 87.466C95.9418 86.9736 96.08 86.538 96.3565 86.1592C96.6368 85.7804 97.0175 85.483 97.4986 85.2671C97.9834 85.0512 98.5327 84.9433 99.1463 84.9433C100.01 84.9433 100.688 85.1327 101.18 85.5115C101.677 85.8902 102.029 86.3902 102.237 87.0115ZM107.96 93.966C107.172 93.966 106.481 93.7785 105.886 93.4035C105.295 93.0285 104.833 92.5039 104.5 91.8296C104.17 91.1554 104.006 90.3675 104.006 89.466C104.006 88.5569 104.17 87.7633 104.5 87.0853C104.833 86.4073 105.295 85.8808 105.886 85.5058C106.481 85.1308 107.172 84.9433 107.96 84.9433C108.748 84.9433 109.438 85.1308 110.028 85.5058C110.623 85.8808 111.085 86.4073 111.415 87.0853C111.748 87.7633 111.915 88.5569 111.915 89.466C111.915 90.3675 111.748 91.1554 111.415 91.8296C111.085 92.5039 110.623 93.0285 110.028 93.4035C109.438 93.7785 108.748 93.966 107.96 93.966ZM107.96 92.7615C108.559 92.7615 109.051 92.608 109.438 92.3012C109.824 91.9944 110.11 91.591 110.295 91.091C110.481 90.591 110.574 90.0493 110.574 89.466C110.574 88.8827 110.481 88.3391 110.295 87.8353C110.11 87.3315 109.824 86.9243 109.438 86.6137C109.051 86.3031 108.559 86.1478 107.96 86.1478C107.362 86.1478 106.869 86.3031 106.483 86.6137C106.097 86.9243 105.811 87.3315 105.625 87.8353C105.439 88.3391 105.347 88.8827 105.347 89.466C105.347 90.0493 105.439 90.591 105.625 91.091C105.811 91.591 106.097 91.9944 106.483 92.3012C106.869 92.608 107.362 92.7615 107.96 92.7615ZM115.303 88.5342V93.7842H113.962V85.0569H115.257V86.4205H115.371C115.575 85.9774 115.886 85.6213 116.303 85.3524C116.719 85.0796 117.257 84.9433 117.916 84.9433C118.507 84.9433 119.024 85.0645 119.467 85.3069C119.911 85.5455 120.255 85.9092 120.501 86.3978C120.748 86.8827 120.871 87.4963 120.871 88.2387V93.7842H119.53V88.3296C119.53 87.644 119.352 87.1099 118.996 86.7274C118.64 86.341 118.151 86.1478 117.53 86.1478C117.102 86.1478 116.719 86.2406 116.382 86.4262C116.049 86.6118 115.786 86.8827 115.592 87.2387C115.399 87.5948 115.303 88.0266 115.303 88.5342ZM125.889 93.9887C125.336 93.9887 124.834 93.8846 124.384 93.6762C123.933 93.4641 123.575 93.1592 123.31 92.7615C123.045 92.3599 122.912 91.8751 122.912 91.3069C122.912 90.8069 123.01 90.4016 123.207 90.091C123.404 89.7766 123.668 89.5304 123.997 89.3524C124.327 89.1743 124.69 89.0418 125.088 88.9546C125.49 88.8637 125.893 88.7918 126.298 88.7387C126.829 88.6705 127.259 88.6194 127.588 88.5853C127.921 88.5474 128.164 88.4849 128.315 88.3978C128.471 88.3107 128.548 88.1592 128.548 87.9433V87.8978C128.548 87.3372 128.395 86.9016 128.088 86.591C127.785 86.2804 127.325 86.1251 126.707 86.1251C126.067 86.1251 125.565 86.2652 125.202 86.5455C124.838 86.8258 124.582 87.1251 124.435 87.4433L123.162 86.9887C123.389 86.4584 123.692 86.0455 124.071 85.7501C124.454 85.4508 124.87 85.2425 125.321 85.1251C125.776 85.0039 126.223 84.9433 126.662 84.9433C126.942 84.9433 127.264 84.9774 127.628 85.0455C127.995 85.1099 128.349 85.2444 128.69 85.449C129.035 85.6535 129.321 85.9622 129.548 86.3751C129.776 86.788 129.889 87.341 129.889 88.0342V93.7842H128.548V92.6024H128.48C128.389 92.7918 128.238 92.9944 128.026 93.2103C127.813 93.4262 127.531 93.6099 127.179 93.7615C126.827 93.913 126.397 93.9887 125.889 93.9887ZM126.094 92.7842C126.624 92.7842 127.071 92.68 127.435 92.4717C127.802 92.2633 128.079 91.9944 128.264 91.6649C128.454 91.3353 128.548 90.9887 128.548 90.6251V89.3978C128.491 89.466 128.366 89.5285 128.173 89.5853C127.984 89.6383 127.764 89.6857 127.514 89.7274C127.268 89.7652 127.027 89.7993 126.793 89.8296C126.562 89.8561 126.374 89.8789 126.23 89.8978C125.882 89.9433 125.556 90.0171 125.253 90.1194C124.954 90.2179 124.711 90.3675 124.526 90.5683C124.344 90.7652 124.253 91.0342 124.253 91.3751C124.253 91.841 124.425 92.1933 124.77 92.4319C125.118 92.6668 125.56 92.7842 126.094 92.7842ZM133.678 82.1478V93.7842H132.337V82.1478H133.678ZM140.815 93.7842V82.1478H144.884C145.694 82.1478 146.363 82.288 146.889 82.5683C147.416 82.8448 147.808 83.2179 148.065 83.6876C148.323 84.1535 148.452 84.6705 148.452 85.2387C148.452 85.7387 148.363 86.1516 148.185 86.4774C148.01 86.8031 147.779 87.0607 147.491 87.2501C147.207 87.4395 146.899 87.5796 146.565 87.6705V87.7842C146.921 87.8069 147.279 87.9319 147.639 88.1592C147.999 88.3865 148.3 88.7122 148.543 89.1365C148.785 89.5607 148.906 90.0796 148.906 90.6933C148.906 91.2766 148.774 91.8012 148.509 92.2671C148.243 92.733 147.825 93.1024 147.253 93.3751C146.681 93.6478 145.937 93.7842 145.02 93.7842H140.815ZM142.224 92.5342H145.02C145.94 92.5342 146.594 92.3561 146.98 92.0001C147.37 91.6402 147.565 91.2046 147.565 90.6933C147.565 90.2993 147.465 89.9357 147.264 89.6024C147.063 89.2652 146.777 88.9963 146.406 88.7955C146.035 88.591 145.596 88.4887 145.088 88.4887H142.224V92.5342ZM142.224 87.2615H144.838C145.262 87.2615 145.645 87.1781 145.986 87.0115C146.33 86.8448 146.603 86.6099 146.804 86.3069C147.009 86.0039 147.111 85.6478 147.111 85.2387C147.111 84.7274 146.933 84.2936 146.577 83.9376C146.221 83.5777 145.656 83.3978 144.884 83.3978H142.224V87.2615ZM151.04 93.7842V85.0569H152.381V93.7842H151.04ZM151.722 83.6024C151.46 83.6024 151.235 83.5133 151.045 83.3353C150.86 83.1573 150.767 82.9433 150.767 82.6933C150.767 82.4433 150.86 82.2293 151.045 82.0512C151.235 81.8732 151.46 81.7842 151.722 81.7842C151.983 81.7842 152.206 81.8732 152.392 82.0512C152.581 82.2293 152.676 82.4433 152.676 82.6933C152.676 82.9433 152.581 83.1573 152.392 83.3353C152.206 83.5133 151.983 83.6024 151.722 83.6024ZM154.837 93.7842V85.0569H156.132V86.3751H156.223C156.382 85.9433 156.67 85.5929 157.087 85.324C157.503 85.055 157.973 84.9205 158.496 84.9205C158.594 84.9205 158.717 84.9224 158.865 84.9262C159.013 84.93 159.125 84.9357 159.2 84.9433V86.3069C159.155 86.2955 159.051 86.2785 158.888 86.2558C158.729 86.2293 158.56 86.216 158.382 86.216C157.958 86.216 157.579 86.305 157.246 86.483C156.916 86.6573 156.655 86.8997 156.462 87.2103C156.272 87.5171 156.178 87.8675 156.178 88.2615V93.7842H154.837ZM165.132 85.0569V86.1933H160.609V85.0569H165.132ZM161.928 82.966H163.268V91.2842C163.268 91.663 163.323 91.9471 163.433 92.1365C163.547 92.3221 163.691 92.4471 163.865 92.5115C164.043 92.5721 164.231 92.6024 164.428 92.6024C164.575 92.6024 164.696 92.5948 164.791 92.5796C164.886 92.5607 164.962 92.5455 165.018 92.5342L165.291 93.7387C165.2 93.7728 165.073 93.8069 164.911 93.841C164.748 93.8789 164.541 93.8978 164.291 93.8978C163.912 93.8978 163.541 93.8164 163.178 93.6535C162.818 93.4906 162.518 93.2425 162.28 92.9092C162.045 92.5758 161.928 92.1554 161.928 91.6478V82.966ZM168.678 88.5342V93.7842H167.337V82.1478H168.678V86.4205H168.791C168.996 85.9698 169.303 85.6118 169.712 85.3467C170.125 85.0777 170.674 84.9433 171.359 84.9433C171.954 84.9433 172.475 85.0626 172.922 85.3012C173.369 85.5361 173.715 85.8978 173.962 86.3865C174.212 86.8713 174.337 87.4887 174.337 88.2387V93.7842H172.996V88.3296C172.996 87.6365 172.816 87.1005 172.456 86.7217C172.1 86.3391 171.606 86.1478 170.973 86.1478C170.534 86.1478 170.14 86.2406 169.791 86.4262C169.446 86.6118 169.174 86.8827 168.973 87.2387C168.776 87.5948 168.678 88.0266 168.678 88.5342ZM185.062 93.7842H181.472V82.1478H185.222C186.35 82.1478 187.316 82.3808 188.119 82.8467C188.922 83.3088 189.538 83.9736 189.966 84.841C190.394 85.7046 190.608 86.7387 190.608 87.9433C190.608 89.1554 190.392 90.199 189.96 91.074C189.528 91.9452 188.9 92.6156 188.074 93.0853C187.248 93.5512 186.244 93.7842 185.062 93.7842ZM182.881 92.5342H184.972C185.934 92.5342 186.731 92.3486 187.364 91.9774C187.996 91.6061 188.468 91.0777 188.778 90.3921C189.089 89.7065 189.244 88.8902 189.244 87.9433C189.244 87.0039 189.091 86.1952 188.784 85.5171C188.477 84.8353 188.019 84.3126 187.409 83.949C186.799 83.5815 186.04 83.3978 185.131 83.3978H182.881V92.5342ZM196.449 93.966C195.608 93.966 194.883 93.7804 194.273 93.4092C193.667 93.0342 193.199 92.5115 192.869 91.841C192.544 91.1668 192.381 90.3827 192.381 89.4887C192.381 88.5948 192.544 87.8069 192.869 87.1251C193.199 86.4395 193.657 85.9054 194.244 85.5228C194.835 85.1365 195.525 84.9433 196.312 84.9433C196.767 84.9433 197.216 85.019 197.659 85.1705C198.102 85.3221 198.506 85.5683 198.869 85.9092C199.233 86.2463 199.523 86.6933 199.739 87.2501C199.955 87.8069 200.062 88.4925 200.062 89.3069V89.8751H193.335V88.716H198.699C198.699 88.2236 198.6 87.7842 198.403 87.3978C198.21 87.0115 197.934 86.7065 197.574 86.483C197.218 86.2596 196.797 86.1478 196.312 86.1478C195.778 86.1478 195.316 86.2804 194.926 86.5455C194.54 86.8069 194.242 87.1478 194.034 87.5683C193.826 87.9887 193.722 88.4395 193.722 88.9205V89.6933C193.722 90.3524 193.835 90.9111 194.062 91.3694C194.294 91.824 194.614 92.1705 195.023 92.4092C195.432 92.644 195.907 92.7615 196.449 92.7615C196.801 92.7615 197.119 92.7122 197.403 92.6137C197.691 92.5115 197.939 92.3599 198.148 92.1592C198.356 91.9546 198.517 91.7008 198.631 91.3978L199.926 91.7615C199.79 92.2008 199.561 92.5872 199.239 92.9205C198.917 93.2501 198.519 93.5077 198.045 93.6933C197.572 93.8751 197.04 93.966 196.449 93.966ZM205.898 85.0569V86.1933H201.375V85.0569H205.898ZM202.693 82.966H204.034V91.2842C204.034 91.663 204.089 91.9471 204.199 92.1365C204.313 92.3221 204.456 92.4471 204.631 92.5115C204.809 92.5721 204.996 92.6024 205.193 92.6024C205.341 92.6024 205.462 92.5948 205.557 92.5796C205.652 92.5607 205.727 92.5455 205.784 92.5342L206.057 93.7387C205.966 93.7728 205.839 93.8069 205.676 93.841C205.513 93.8789 205.307 93.8978 205.057 93.8978C204.678 93.8978 204.307 93.8164 203.943 93.6535C203.583 93.4906 203.284 93.2425 203.045 92.9092C202.811 92.5758 202.693 92.1554 202.693 91.6478V82.966ZM210.483 93.9887C209.93 93.9887 209.428 93.8846 208.977 93.6762C208.527 93.4641 208.169 93.1592 207.903 92.7615C207.638 92.3599 207.506 91.8751 207.506 91.3069C207.506 90.8069 207.604 90.4016 207.801 90.091C207.998 89.7766 208.261 89.5304 208.591 89.3524C208.92 89.1743 209.284 89.0418 209.682 88.9546C210.083 88.8637 210.487 88.7918 210.892 88.7387C211.422 88.6705 211.852 88.6194 212.182 88.5853C212.515 88.5474 212.758 88.4849 212.909 88.3978C213.064 88.3107 213.142 88.1592 213.142 87.9433V87.8978C213.142 87.3372 212.989 86.9016 212.682 86.591C212.379 86.2804 211.919 86.1251 211.301 86.1251C210.661 86.1251 210.159 86.2652 209.795 86.5455C209.432 86.8258 209.176 87.1251 209.028 87.4433L207.756 86.9887C207.983 86.4584 208.286 86.0455 208.665 85.7501C209.047 85.4508 209.464 85.2425 209.915 85.1251C210.369 85.0039 210.816 84.9433 211.256 84.9433C211.536 84.9433 211.858 84.9774 212.222 85.0455C212.589 85.1099 212.943 85.2444 213.284 85.449C213.629 85.6535 213.915 85.9622 214.142 86.3751C214.369 86.788 214.483 87.341 214.483 88.0342V93.7842H213.142V92.6024H213.074C212.983 92.7918 212.831 92.9944 212.619 93.2103C212.407 93.4262 212.125 93.6099 211.773 93.7615C211.42 93.913 210.991 93.9887 210.483 93.9887ZM210.688 92.7842C211.218 92.7842 211.665 92.68 212.028 92.4717C212.396 92.2633 212.672 91.9944 212.858 91.6649C213.047 91.3353 213.142 90.9887 213.142 90.6251V89.3978C213.085 89.466 212.96 89.5285 212.767 89.5853C212.578 89.6383 212.358 89.6857 212.108 89.7274C211.862 89.7652 211.621 89.7993 211.386 89.8296C211.155 89.8561 210.968 89.8789 210.824 89.8978C210.475 89.9433 210.15 90.0171 209.847 90.1194C209.547 90.2179 209.305 90.3675 209.119 90.5683C208.938 90.7652 208.847 91.0342 208.847 91.3751C208.847 91.841 209.019 92.1933 209.364 92.4319C209.712 92.6668 210.153 92.7842 210.688 92.7842ZM216.93 93.7842V85.0569H218.271V93.7842H216.93ZM217.612 83.6024C217.351 83.6024 217.125 83.5133 216.936 83.3353C216.75 83.1573 216.658 82.9433 216.658 82.6933C216.658 82.4433 216.75 82.2293 216.936 82.0512C217.125 81.8732 217.351 81.7842 217.612 81.7842C217.874 81.7842 218.097 81.8732 218.283 82.0512C218.472 82.2293 218.567 82.4433 218.567 82.6933C218.567 82.9433 218.472 83.1573 218.283 83.3353C218.097 83.5133 217.874 83.6024 217.612 83.6024ZM222.068 82.1478V93.7842H220.727V82.1478H222.068ZM230.706 87.0115L229.501 87.3524C229.426 87.1516 229.314 86.9565 229.166 86.7671C229.022 86.574 228.825 86.4149 228.575 86.2899C228.325 86.1649 228.005 86.1024 227.615 86.1024C227.081 86.1024 226.636 86.2255 226.28 86.4717C225.928 86.7141 225.751 87.0228 225.751 87.3978C225.751 87.7311 225.873 87.9944 226.115 88.1876C226.357 88.3808 226.736 88.5418 227.251 88.6705L228.547 88.9887C229.327 89.1781 229.909 89.4679 230.291 89.858C230.674 90.2444 230.865 90.7425 230.865 91.3524C230.865 91.8524 230.721 92.2993 230.433 92.6933C230.149 93.0872 229.751 93.3978 229.24 93.6251C228.729 93.8524 228.134 93.966 227.456 93.966C226.566 93.966 225.829 93.7728 225.246 93.3865C224.662 93.0001 224.293 92.4357 224.138 91.6933L225.411 91.3751C225.532 91.8448 225.761 92.1971 226.098 92.4319C226.439 92.6668 226.884 92.7842 227.433 92.7842C228.058 92.7842 228.554 92.6516 228.922 92.3865C229.293 92.1175 229.479 91.7955 229.479 91.4205C229.479 91.1175 229.373 90.8637 229.161 90.6592C228.948 90.4508 228.623 90.2955 228.183 90.1933L226.729 89.8524C225.929 89.663 225.342 89.3694 224.967 88.9717C224.596 88.5702 224.411 88.0683 224.411 87.466C224.411 86.9736 224.549 86.538 224.825 86.1592C225.106 85.7804 225.486 85.483 225.967 85.2671C226.452 85.0512 227.001 84.9433 227.615 84.9433C228.479 84.9433 229.157 85.1327 229.649 85.5115C230.145 85.8902 230.498 86.3902 230.706 87.0115Z" fill="#A45F27"/>
<defs>
<linearGradient id="paint0_linear_0_1872" x1="78.8079" y1="21.7156" x2="78.8079" y2="20.7156" gradientUnits="userSpaceOnUse">
<stop stop-color="#A45F27"/>
<stop offset="1" stop-color="#3E240F"/>
</linearGradient>
<linearGradient id="paint1_linear_0_1872" x1="223.728" y1="21.7156" x2="223.728" y2="20.7156" gradientUnits="userSpaceOnUse">
<stop stop-color="#A45F27"/>
<stop offset="1" stop-color="#3E240F"/>
</linearGradient>
<linearGradient id="paint2_linear_0_1872" x1="182.323" y1="21.7163" x2="182.323" y2="7.88609" gradientUnits="userSpaceOnUse">
<stop stop-color="#A45F27"/>
<stop offset="1" stop-color="#3E240F"/>
</linearGradient>
<linearGradient id="paint3_linear_0_1872" x1="120.213" y1="21.7163" x2="120.213" y2="7.88609" gradientUnits="userSpaceOnUse">
<stop stop-color="#A45F27"/>
<stop offset="1" stop-color="#3E240F"/>
</linearGradient>
<linearGradient id="paint4_linear_0_1872" x1="124.368" y1="18.7903" x2="124.368" y2="7.48935" gradientUnits="userSpaceOnUse">
<stop stop-color="#A45F27"/>
<stop offset="1" stop-color="#3E240F"/>
</linearGradient>
<linearGradient id="paint5_linear_0_1872" x1="178.169" y1="18.7903" x2="178.169" y2="7.48935" gradientUnits="userSpaceOnUse">
<stop stop-color="#A45F27"/>
<stop offset="1" stop-color="#3E240F"/>
</linearGradient>
<linearGradient id="paint6_linear_0_1872" x1="150.355" y1="15.9451" x2="152.171" y2="14.124" gradientUnits="userSpaceOnUse">
<stop stop-color="#A45F27"/>
<stop offset="1" stop-color="#3E240F"/>
</linearGradient>
<linearGradient id="paint7_linear_0_1872" x1="150.355" y1="15.9451" x2="152.171" y2="14.124" gradientUnits="userSpaceOnUse">
<stop stop-color="#A45F27"/>
<stop offset="1" stop-color="#3E240F"/>
</linearGradient>
<linearGradient id="paint8_linear_0_1872" x1="151.268" y1="11.0422" x2="151.268" y2="4.76837e-05" gradientUnits="userSpaceOnUse">
<stop stop-color="#A45F27"/>
<stop offset="1" stop-color="#3E240F"/>
</linearGradient>
<linearGradient id="paint9_linear_0_1872" x1="151.268" y1="11.0422" x2="151.268" y2="4.76837e-05" gradientUnits="userSpaceOnUse">
<stop stop-color="#A45F27"/>
<stop offset="1" stop-color="#3E240F"/>
</linearGradient>
<linearGradient id="paint10_linear_0_1872" x1="278.448" y1="105.7" x2="157.448" y2="105.7" gradientUnits="userSpaceOnUse">
<stop stop-color="#A45F27" stop-opacity="0"/>
<stop offset="1" stop-color="#A45F27"/>
</linearGradient>
<linearGradient id="paint11_linear_0_1872" x1="162.619" y1="105.699" x2="162.619" y2="117" gradientUnits="userSpaceOnUse">
<stop stop-color="#A45F27"/>
<stop offset="1" stop-color="#3E240F"/>
</linearGradient>
<linearGradient id="paint12_linear_0_1872" x1="25.1659" y1="105.7" x2="146.166" y2="105.7" gradientUnits="userSpaceOnUse">
<stop stop-color="#A45F27" stop-opacity="0"/>
<stop offset="1" stop-color="#A45F27"/>
</linearGradient>
<linearGradient id="paint13_linear_0_1872" x1="140.994" y1="105.699" x2="140.994" y2="117" gradientUnits="userSpaceOnUse">
<stop stop-color="#A45F27"/>
<stop offset="1" stop-color="#3E240F"/>
</linearGradient>
<linearGradient id="paint14_linear_0_1872" x1="150.768" y1="111.165" x2="152.584" y2="112.986" gradientUnits="userSpaceOnUse">
<stop stop-color="#A45F27"/>
<stop offset="1" stop-color="#3E240F"/>
</linearGradient>
<linearGradient id="paint15_linear_0_1872" x1="150.768" y1="111.165" x2="152.584" y2="112.986" gradientUnits="userSpaceOnUse">
<stop stop-color="#A45F27"/>
<stop offset="1" stop-color="#3E240F"/>
</linearGradient>
<linearGradient id="paint16_linear_0_1872" x1="151.5" y1="21.9375" x2="151.5" y2="76.9375" gradientUnits="userSpaceOnUse">
<stop stop-color="#A45F27"/>
<stop offset="1" stop-color="#3E240F"/>
</linearGradient>
<linearGradient id="paint17_linear_0_1872" x1="0.5" y1="88.7461" x2="56.008" y2="88.7461" gradientUnits="userSpaceOnUse">
<stop stop-color="#A45F27" stop-opacity="0"/>
<stop offset="1" stop-color="#A45F27"/>
</linearGradient>
<linearGradient id="paint18_linear_0_1872" x1="56.3984" y1="86.6009" x2="60.0764" y2="86.6009" gradientUnits="userSpaceOnUse">
<stop stop-color="#A45F27"/>
<stop offset="1" stop-color="#A45F27"/>
</linearGradient>
<linearGradient id="paint19_linear_0_1872" x1="56.3984" y1="89.8914" x2="60.0764" y2="89.8914" gradientUnits="userSpaceOnUse">
<stop stop-color="#A45F27"/>
<stop offset="1" stop-color="#A45F27"/>
</linearGradient>
<linearGradient id="paint20_linear_0_1872" x1="59.37" y1="88.2462" x2="64.57" y2="88.2462" gradientUnits="userSpaceOnUse">
<stop stop-color="#A45F27"/>
<stop offset="1" stop-color="#A45F27"/>
</linearGradient>
<linearGradient id="paint21_linear_0_1872" x1="301.57" y1="88.7461" x2="246.062" y2="88.7461" gradientUnits="userSpaceOnUse">
<stop stop-color="#A45F27" stop-opacity="0"/>
<stop offset="1" stop-color="#A45F27"/>
</linearGradient>
<linearGradient id="paint22_linear_0_1872" x1="245.672" y1="86.6009" x2="241.994" y2="86.6009" gradientUnits="userSpaceOnUse">
<stop stop-color="#A45F27"/>
<stop offset="1" stop-color="#A45F27"/>
</linearGradient>
<linearGradient id="paint23_linear_0_1872" x1="245.672" y1="89.8914" x2="241.994" y2="89.8914" gradientUnits="userSpaceOnUse">
<stop stop-color="#A45F27"/>
<stop offset="1" stop-color="#A45F27"/>
</linearGradient>
<linearGradient id="paint24_linear_0_1872" x1="242.7" y1="88.2462" x2="237.5" y2="88.2462" gradientUnits="userSpaceOnUse">
<stop stop-color="#A45F27"/>
<stop offset="1" stop-color="#A45F27"/>
</linearGradient>
</defs>
</svg>
