<svg width="327" height="117" viewBox="0 0 327 117" fill="none" xmlns="http://www.w3.org/2000/svg">
<path d="M30.3024 21.7148H150.918" stroke="url(#paint0_linear_0_2317)" stroke-miterlimit="10" stroke-linecap="round" stroke-linejoin="round"/>
<path d="M295.838 21.7148H175.223" stroke="url(#paint1_linear_0_2317)" stroke-miterlimit="10" stroke-linecap="round" stroke-linejoin="round"/>
<path d="M216.228 14.3256C216.709 15.4773 218.034 16.0234 219.19 15.5457C220.753 14.8985 221.494 13.1099 220.844 11.552C219.965 9.44509 218.092 8.5776 215.427 9.32159L178.909 21.1703C173.374 22.7162 169.484 20.9158 167.66 16.5397C166.311 13.3034 167.85 9.59091 171.094 8.24579C173.493 7.25183 176.246 8.38565 177.245 10.7783C177.982 12.5475 177.142 14.5786 175.368 15.3136C174.056 15.8567 172.55 15.2377 172.004 13.9283" stroke="url(#paint2_linear_0_2317)" stroke-miterlimit="10" stroke-linecap="round" stroke-linejoin="round"/>
<path d="M109.913 14.3256C109.432 15.4773 108.107 16.0234 106.951 15.5457C105.388 14.8985 104.648 13.1099 105.297 11.552C106.176 9.44509 108.049 8.5776 110.714 9.32159L147.233 21.1703C152.767 22.7162 156.657 20.9158 158.481 16.5397C159.83 13.3034 158.291 9.59091 155.047 8.24579C152.648 7.25183 149.895 8.38565 148.896 10.7783C148.159 12.5475 148.999 14.5786 150.774 15.3136C152.085 15.8567 153.591 15.2377 154.137 13.9283" stroke="url(#paint3_linear_0_2317)" stroke-miterlimit="10" stroke-linecap="round" stroke-linejoin="round"/>
<path d="M141.212 18.7896L138.724 10.8855C137.79 8.18779 135.947 7.10902 133.633 7.606C131.922 7.97353 130.834 9.65344 131.201 11.3601C131.472 12.6219 132.72 13.4239 133.985 13.1531C134.921 12.9523 135.516 12.0342 135.315 11.1012" stroke="url(#paint4_linear_0_2317)" stroke-miterlimit="10" stroke-linecap="round" stroke-linejoin="round"/>
<path d="M184.93 18.7896L187.418 10.8855C188.352 8.18779 190.195 7.10902 192.509 7.606C194.221 7.97353 195.309 9.65344 194.942 11.3601C194.67 12.6219 193.422 13.4239 192.159 13.1531C191.223 12.9523 190.628 12.0342 190.829 11.1012" stroke="url(#paint5_linear_0_2317)" stroke-miterlimit="10" stroke-linecap="round" stroke-linejoin="round"/>
<path d="M163.068 16.1468L164.182 15.0366L163.068 13.9265L161.955 15.0366L163.068 16.1468Z" fill="url(#paint6_linear_0_2317)" stroke="url(#paint7_linear_0_2317)"/>
<path d="M165.725 7.6875L163.07 1.30176L160.415 7.6875L163.07 10.3369L165.725 7.6875Z" fill="url(#paint8_linear_0_2317)" stroke="url(#paint9_linear_0_2317)"/>
<path d="M100.668 36.2202C101.618 36.4546 102.217 36.6304 102.465 36.7476C102.725 36.8647 102.855 36.9819 102.855 37.0991C102.855 37.2033 102.751 37.353 102.543 37.5483C102.334 37.7437 102.074 37.965 101.761 38.2124C101.449 38.4468 101.104 38.7007 100.726 38.9741C100.349 39.2476 99.9906 39.495 99.652 39.7163C98.8447 40.2502 98.363 40.5431 98.2067 40.5952C98.2197 40.5431 98.3174 40.4455 98.4997 40.3022C98.8382 40.0288 99.0075 39.8595 99.0075 39.7944C99.0075 39.7163 98.975 39.6577 98.9099 39.6187C98.8578 39.5666 98.7927 39.5275 98.7145 39.5015C98.6494 39.4624 98.5843 39.4299 98.5192 39.4038C98.4541 39.3778 98.2067 39.2866 97.777 39.1304C96.7484 38.7267 95.2705 38.5249 93.3434 38.5249C91.4164 38.5249 89.7497 38.7528 88.3434 39.2085C86.9502 39.6512 85.7653 40.3283 84.7888 41.2397C82.7705 43.1278 81.7614 45.8752 81.7614 49.4819C81.7614 53.1408 82.764 56.2332 84.7692 58.7593C86.9307 61.4676 89.7692 62.8218 93.2849 62.8218C95.6156 62.8218 98.4737 62.0796 101.859 60.5952C101.755 60.6864 101.657 60.771 101.566 60.8491C101.436 60.9924 101.273 61.1421 101.078 61.2983C97.2888 64.1369 93.363 65.5562 89.3005 65.5562C85.7979 65.5562 82.9984 64.2345 80.902 61.5913C78.9619 59.1304 77.9919 56.077 77.9919 52.4312C77.9919 50.5562 78.2653 48.9741 78.8122 47.6851C79.3721 46.383 80.0231 45.2241 80.7653 44.2085C81.5075 43.1929 82.3474 42.2554 83.2849 41.396C84.2354 40.5366 85.2575 39.7684 86.3513 39.0913C87.458 38.4012 88.6039 37.8153 89.7888 37.3335C92.2237 36.3439 94.6781 35.8491 97.152 35.8491C98.5453 35.8491 99.7171 35.9728 100.668 36.2202ZM110.707 60.4585C110.707 61.7606 111.084 62.4116 111.84 62.4116C112.1 62.4116 112.497 62.3009 113.031 62.0796C112.523 63.2124 111.761 64.0653 110.746 64.6382C110.225 64.9377 109.672 65.0679 109.086 65.0288C108.5 65.0028 108.077 64.8465 107.816 64.5601C107.569 64.2736 107.373 63.9285 107.23 63.5249C107.022 62.8869 106.918 62.0666 106.918 61.064V38.7593C106.918 37.3791 106.677 36.4611 106.195 36.0054C105.974 35.797 105.694 35.6929 105.355 35.6929C104.795 35.6929 104.183 35.784 103.519 35.9663C105.108 34.7163 107.504 33.0822 110.707 31.064V48.9741C112.334 47.5418 114.001 46.5653 115.707 46.0444C116.332 45.8491 116.937 45.7515 117.523 45.7515C118.109 45.7515 118.662 45.8491 119.183 46.0444C119.717 46.2267 120.192 46.4871 120.609 46.8257C121.534 47.5939 121.996 48.5509 121.996 49.6968V59.6382C121.996 61.3569 122.412 62.3075 123.246 62.4897C123.48 62.5418 123.728 62.5679 123.988 62.5679C124.392 62.5679 124.958 62.4051 125.687 62.0796C124.606 63.4598 123.35 64.3647 121.918 64.7944C121.423 64.9507 120.889 65.0288 120.316 65.0288C119.756 65.0288 119.32 64.8921 119.008 64.6187C118.695 64.3452 118.48 64.0002 118.363 63.5835C118.246 63.1668 118.187 62.7111 118.187 62.2163V53.4663C118.187 51.4741 117.881 50.133 117.269 49.4429C116.709 48.7918 115.674 48.4663 114.164 48.4663C112.146 48.4663 111.019 49.8465 110.785 52.6069C110.733 53.3101 110.707 53.9611 110.707 54.5601V60.4585ZM140.336 58.9351L140.297 60.3022C140.297 61.3179 140.583 61.9624 141.156 62.2358C141.377 62.34 141.631 62.3921 141.918 62.3921C142.373 62.3921 142.842 62.2879 143.324 62.0796C142.829 62.2879 142.399 62.5614 142.035 62.8999C141.67 63.2384 141.299 63.5705 140.922 63.896C139.984 64.6772 139.04 65.0679 138.09 65.0679C137.139 65.0679 136.631 64.521 136.566 63.4272C136.54 63.1408 136.527 62.8543 136.527 62.5679C134.183 64.1955 132.035 65.0093 130.082 65.0093C128.428 65.0093 127.282 64.508 126.644 63.5054C126.41 63.1408 126.293 62.6395 126.293 62.0015C126.293 61.3634 126.488 60.7254 126.879 60.0874C127.269 59.4364 127.764 58.8439 128.363 58.3101C129.431 57.3205 130.72 56.5067 132.23 55.8687C133.35 55.3869 134.789 55.1134 136.547 55.0483V54.189C136.547 52.1187 136.358 50.7189 135.98 49.9897C135.603 49.2606 135.114 48.7267 134.515 48.3882C133.916 48.0366 133.213 47.8608 132.406 47.8608C131.039 47.8608 129.834 48.1278 128.793 48.6616C130.225 47.4767 131.273 46.6955 131.937 46.3179C133.304 45.5496 134.541 45.1655 135.648 45.1655C136.768 45.1655 137.608 45.3283 138.168 45.6538C138.728 45.9793 139.17 46.409 139.496 46.9429C140.056 47.8804 140.336 49.228 140.336 50.9858V58.9351ZM131.156 61.7476C131.468 61.9689 131.833 62.1317 132.25 62.2358C132.666 62.34 133.285 62.3921 134.105 62.3921C134.925 62.3921 135.739 62.1968 136.547 61.8062V57.7046H133.383C132.25 57.7046 131.26 57.7827 130.414 57.939C130.244 58.4989 130.16 59.0327 130.16 59.5405C130.16 60.0483 130.244 60.4845 130.414 60.8491C130.596 61.2137 130.843 61.5132 131.156 61.7476ZM143.715 48.564C146.006 46.5197 147.862 45.4976 149.281 45.4976C150.466 45.4976 151.13 46.1486 151.273 47.4507C151.312 47.8153 151.332 48.1799 151.332 48.5444C152.647 47.5809 153.584 46.9494 154.144 46.6499C155.355 45.9858 156.521 45.6538 157.64 45.6538C158.773 45.6538 159.776 45.8752 160.648 46.3179C161.534 46.7476 162.256 47.34 162.816 48.0952C163.871 49.5405 164.398 51.4676 164.398 53.8765C164.398 56.728 163.116 59.3127 160.55 61.6304C159.014 63.0236 157.269 64.0132 155.316 64.5991C154.353 64.8726 153.526 65.0093 152.836 65.0093C152.159 65.0093 151.657 64.9767 151.332 64.9116V70.4976C151.332 71.9299 150.876 73.0757 149.965 73.9351H154.73C154.587 73.9481 154.353 74.0913 154.027 74.3647C153.702 74.6512 153.35 74.9572 152.972 75.2827C151.931 76.1551 151.254 76.5913 150.941 76.5913H146.175C147.074 75.4064 147.523 74.0002 147.523 72.3726V50.7124C147.523 49.853 147.419 49.2801 147.211 48.9937C146.833 48.4598 146.299 48.1929 145.609 48.1929C144.919 48.1929 144.287 48.3166 143.715 48.564ZM151.332 59.5601C152.438 61.4611 154.131 62.4116 156.41 62.4116C158.806 62.4116 160.16 61.2267 160.472 58.8569C160.577 58.1408 160.629 57.3075 160.629 56.3569C160.629 55.3934 160.511 54.4168 160.277 53.4272C160.043 52.4246 159.665 51.5457 159.144 50.7905C157.985 49.1369 156.254 48.3101 153.949 48.3101C152.92 48.3101 152.048 48.9025 151.332 50.0874V59.5601ZM166.82 47.7827L169.359 45.7905V43.0171C170.062 42.5223 170.563 42.1447 170.863 41.8843C171.162 41.6239 171.416 41.4351 171.625 41.3179C171.833 41.2007 172.048 41.077 172.269 40.9468C172.829 40.6213 173.129 40.4259 173.168 40.3608V45.1265H179.418C179.248 45.1395 178.819 45.452 178.129 46.064C176.813 47.2098 175.98 47.7827 175.629 47.7827H173.168V58.2515C173.168 60.6473 173.858 62.034 175.238 62.4116C175.655 62.5158 176.045 62.5679 176.41 62.5679C177.009 62.5679 177.517 62.4832 177.933 62.314C178.35 62.1317 178.695 61.9689 178.968 61.8257C178.174 63.0366 177.061 63.9611 175.629 64.5991C174.886 64.9246 174.086 65.0874 173.226 65.0874C172.38 65.0874 171.722 64.9377 171.254 64.6382C170.785 64.3387 170.407 63.9481 170.121 63.4663C169.613 62.5809 169.359 61.409 169.359 59.9507V47.7827H166.82ZM195.511 61.103C193.728 63.0952 191.514 64.3387 188.871 64.8335C188.259 64.9377 187.504 64.9897 186.605 64.9897C185.707 64.9897 184.86 64.7424 184.066 64.2476C183.272 63.7397 182.621 63.0887 182.113 62.2944C181.149 60.758 180.668 58.883 180.668 56.6694C180.668 55.2111 181.228 53.5965 182.347 51.8257C183.441 50.0809 184.776 48.6226 186.351 47.4507C188.044 46.2007 189.646 45.5757 191.156 45.5757C191.937 45.5757 192.595 45.8621 193.129 46.4351C193.623 46.995 193.871 47.633 193.871 48.3491C193.871 49.0653 193.715 49.7293 193.402 50.3413C193.09 50.9403 192.679 51.5262 192.172 52.0991C191.677 52.672 191.104 53.2254 190.453 53.7593C189.815 54.2801 189.157 54.7684 188.48 55.2241C187.53 55.8752 186.332 56.6108 184.886 57.4312C185.303 59.0067 186.039 60.2241 187.093 61.0835C188.148 61.9299 189.509 62.353 191.175 62.353C192.582 62.353 194.027 61.9364 195.511 61.103ZM189.613 53.271C189.965 52.7111 190.14 52.1642 190.14 51.6304C190.14 51.0965 190.082 50.6473 189.965 50.2827C189.847 49.9051 189.678 49.5731 189.457 49.2866C188.949 48.6356 188.291 48.3101 187.484 48.3101C185.505 48.3101 184.515 50.3283 184.515 54.3647C184.515 55.0809 184.574 55.7905 184.691 56.4937C186.983 55.8556 188.623 54.7814 189.613 53.271ZM215.238 45.7319C213.662 48.0496 211.755 49.2085 209.515 49.2085C209.151 49.2085 208.682 49.0653 208.109 48.7788C207.015 48.2319 206.273 47.9585 205.883 47.9585C205.505 47.9585 205.199 48.0822 204.965 48.3296C204.73 48.577 204.535 48.922 204.379 49.3647C204.027 50.3283 203.851 51.5783 203.851 53.1147V60.5952C203.851 61.4285 204.105 61.995 204.613 62.2944C204.795 62.4116 205.023 62.4702 205.297 62.4702C205.57 62.4702 205.856 62.4051 206.156 62.2749C205.896 62.5093 205.642 62.7892 205.394 63.1147C205.147 63.4272 204.867 63.7332 204.554 64.0327C203.812 64.7489 202.933 65.1069 201.918 65.1069C201.397 65.1069 200.954 64.9442 200.59 64.6187C200.225 64.2801 200.043 63.87 200.043 63.3882V52.1382C200.043 51.6825 200.049 51.2267 200.062 50.771C200.075 50.3153 200.03 49.8986 199.925 49.521C199.678 48.7007 198.968 48.2905 197.797 48.2905C197.237 48.2905 196.677 48.3947 196.117 48.603C196.455 48.4858 196.892 48.1799 197.425 47.6851C198.467 46.7476 199.19 46.2007 199.593 46.0444C200.427 45.745 201.097 45.5952 201.605 45.5952C202.126 45.5952 202.523 45.6733 202.797 45.8296C203.083 45.9728 203.304 46.1746 203.461 46.4351C203.721 46.8647 203.851 47.5288 203.851 48.4272C204.229 48.1408 204.639 47.8218 205.082 47.4702C205.537 47.1056 206.006 46.7606 206.488 46.4351C207.647 45.6668 208.656 45.2827 209.515 45.2827C210.023 45.2827 210.557 45.4259 211.117 45.7124C211.677 45.9989 212.093 46.2072 212.367 46.3374C212.64 46.4676 212.894 46.5327 213.129 46.5327C213.649 46.5327 214.353 46.2658 215.238 45.7319ZM242.347 58.0757C242.347 59.5861 241.683 60.9142 240.355 62.0601H246.722C246.566 62.0861 246.136 62.4051 245.433 63.0171C244.73 63.616 244.196 64.0522 243.832 64.3257C243.467 64.5861 243.168 64.7163 242.933 64.7163H236.488C237.491 64.2085 238.103 63.5444 238.324 62.7241C238.48 62.1903 238.558 60.8035 238.558 58.564V58.0171H229.047C227.185 58.0171 225.29 58.0106 223.363 57.9976C229.873 51.5392 234.164 46.6239 236.234 43.2515C236.651 42.5874 237.041 41.9233 237.406 41.2593C237.784 40.5822 238.09 40.0353 238.324 39.6187C238.571 39.189 238.806 38.8895 239.027 38.7202C239.248 38.5509 239.496 38.3817 239.769 38.2124C240.056 38.0431 240.349 37.8739 240.648 37.7046C240.948 37.5353 241.215 37.366 241.449 37.1968L242.347 36.5718V55.3608H243.929C245.596 55.3608 247.093 55.0483 248.422 54.4233C248.89 54.202 249.294 53.9285 249.633 53.603C247.237 55.9207 244.808 57.314 242.347 57.7827V58.0757ZM238.558 55.3413V42.939C236.175 46.4285 233.142 49.8921 229.457 53.3296C229.34 53.4338 229.086 53.6616 228.695 54.0132C228.122 54.5731 227.634 55.0158 227.23 55.3413H238.558Z" fill="url(#paint10_linear_0_2317)"/>
<path d="M0.5 92.2158H56.008" stroke="url(#paint11_linear_0_2317)" stroke-miterlimit="10" stroke-linecap="round" stroke-linejoin="round"/>
<path d="M57.453 89.7888C58.469 88.7757 60.076 88.7368 60.076 88.7368C60.076 88.7368 60.037 90.3393 59.021 91.3524C58.005 92.3645 56.398 92.4044 56.398 92.4044C56.398 92.4044 56.437 90.8009 57.453 89.7888Z" fill="url(#paint12_linear_0_2317)"/>
<path d="M59.021 93.0794C58.005 92.0662 56.398 92.0273 56.398 92.0273C56.398 92.0273 56.437 93.6298 57.453 94.6429C58.469 95.656 60.076 95.6949 60.076 95.6949C60.076 95.6949 60.037 94.0915 59.021 93.0794Z" fill="url(#paint13_linear_0_2317)"/>
<path d="M61.97 91.1099C63.406 91.1099 64.57 92.2157 64.57 92.2157C64.57 92.2157 63.406 93.3216 61.97 93.3216C60.534 93.3216 59.37 92.2157 59.37 92.2157C59.37 92.2157 60.534 91.1099 61.97 91.1099Z" fill="url(#paint14_linear_0_2317)"/>
<path d="M69.9791 86.0795H71.5927L74.82 91.5113H74.9564L78.1836 86.0795H79.7973L75.5927 92.9204V97.7158H74.1836V92.9204L69.9791 86.0795ZM83.749 97.8976C82.9611 97.8976 82.2698 97.7101 81.6751 97.3351C81.0842 96.9601 80.6221 96.4355 80.2888 95.7613C79.9592 95.087 79.7944 94.2992 79.7944 93.3976C79.7944 92.4885 79.9592 91.695 80.2888 91.017C80.6221 90.3389 81.0842 89.8124 81.6751 89.4374C82.2698 89.0624 82.9611 88.8749 83.749 88.8749C84.5369 88.8749 85.2263 89.0624 85.8172 89.4374C86.4119 89.8124 86.874 90.3389 87.2035 91.017C87.5369 91.695 87.7035 92.4885 87.7035 93.3976C87.7035 94.2992 87.5369 95.087 87.2035 95.7613C86.874 96.4355 86.4119 96.9601 85.8172 97.3351C85.2263 97.7101 84.5369 97.8976 83.749 97.8976ZM83.749 96.6931C84.3475 96.6931 84.8399 96.5397 85.2263 96.2329C85.6126 95.926 85.8986 95.5226 86.0842 95.0226C86.2698 94.5226 86.3626 93.981 86.3626 93.3976C86.3626 92.8143 86.2698 92.2707 86.0842 91.767C85.8986 91.2632 85.6126 90.856 85.2263 90.5454C84.8399 90.2348 84.3475 90.0795 83.749 90.0795C83.1505 90.0795 82.6581 90.2348 82.2717 90.5454C81.8853 90.856 81.5994 91.2632 81.4138 91.767C81.2282 92.2707 81.1353 92.8143 81.1353 93.3976C81.1353 93.981 81.2282 94.5226 81.4138 95.0226C81.5994 95.5226 81.8853 95.926 82.2717 96.2329C82.6581 96.5397 83.1505 96.6931 83.749 96.6931ZM95.2504 94.1476V88.9885H96.5913V97.7158H95.2504V96.2385H95.1595C94.955 96.6817 94.6368 97.0586 94.205 97.3692C93.7731 97.676 93.2277 97.8295 92.5686 97.8295C92.0231 97.8295 91.5383 97.7101 91.114 97.4715C90.6898 97.2291 90.3565 96.8654 90.114 96.3806C89.8716 95.892 89.7504 95.2764 89.7504 94.534V88.9885H91.0913V94.4431C91.0913 95.0795 91.2693 95.587 91.6254 95.9658C91.9853 96.3446 92.4436 96.534 93.0004 96.534C93.3337 96.534 93.6728 96.4488 94.0175 96.2783C94.3659 96.1079 94.6576 95.8465 94.8925 95.4942C95.1311 95.142 95.2504 94.6931 95.2504 94.1476ZM99.0473 97.7158V88.9885H100.343V90.3067H100.434C100.593 89.8749 100.881 89.5245 101.297 89.2556C101.714 88.9867 102.184 88.8522 102.706 88.8522C102.805 88.8522 102.928 88.8541 103.076 88.8579C103.223 88.8617 103.335 88.8673 103.411 88.8749V90.2385C103.365 90.2272 103.261 90.2101 103.098 90.1874C102.939 90.1609 102.771 90.1476 102.593 90.1476C102.168 90.1476 101.79 90.2367 101.456 90.4147C101.127 90.5889 100.865 90.8314 100.672 91.142C100.483 91.4488 100.388 91.7992 100.388 92.1931V97.7158H99.0473ZM109.682 97.7158V86.0795H113.614C114.527 86.0795 115.273 86.2442 115.853 86.5738C116.436 86.8995 116.868 87.3408 117.148 87.8976C117.428 88.4545 117.569 89.0757 117.569 89.7613C117.569 90.4469 117.428 91.07 117.148 91.6306C116.872 92.1912 116.444 92.6382 115.864 92.9715C115.284 93.301 114.542 93.4658 113.637 93.4658H110.819V92.2158H113.591C114.216 92.2158 114.718 92.1079 115.097 91.892C115.476 91.676 115.75 91.3844 115.921 91.017C116.095 90.6457 116.182 90.2272 116.182 89.7613C116.182 89.2954 116.095 88.8787 115.921 88.5113C115.75 88.1439 115.474 87.856 115.091 87.6476C114.709 87.4355 114.201 87.3295 113.569 87.3295H111.091V97.7158H109.682ZM122.225 97.9204C121.672 97.9204 121.17 97.8162 120.719 97.6079C120.268 97.3957 119.91 97.0908 119.645 96.6931C119.38 96.2916 119.248 95.8067 119.248 95.2385C119.248 94.7385 119.346 94.3332 119.543 94.0226C119.74 93.7082 120.003 93.462 120.333 93.284C120.662 93.106 121.026 92.9734 121.424 92.8863C121.825 92.7954 122.229 92.7234 122.634 92.6704C123.164 92.6022 123.594 92.551 123.924 92.517C124.257 92.4791 124.499 92.4166 124.651 92.3295C124.806 92.2423 124.884 92.0908 124.884 91.8749V91.8295C124.884 91.2689 124.731 90.8332 124.424 90.5226C124.121 90.212 123.66 90.0567 123.043 90.0567C122.403 90.0567 121.901 90.1969 121.537 90.4772C121.174 90.7575 120.918 91.0567 120.77 91.3749L119.498 90.9204C119.725 90.3901 120.028 89.9772 120.407 89.6817C120.789 89.3825 121.206 89.1742 121.657 89.0567C122.111 88.9355 122.558 88.8749 122.998 88.8749C123.278 88.8749 123.6 88.909 123.963 88.9772C124.331 89.0416 124.685 89.176 125.026 89.3806C125.371 89.5851 125.657 89.8939 125.884 90.3067C126.111 90.7196 126.225 91.2726 126.225 91.9658V97.7158H124.884V96.534H124.816C124.725 96.7234 124.573 96.926 124.361 97.142C124.149 97.3579 123.867 97.5416 123.515 97.6931C123.162 97.8446 122.732 97.9204 122.225 97.9204ZM122.429 96.7158C122.96 96.7158 123.407 96.6117 123.77 96.4033C124.138 96.195 124.414 95.926 124.6 95.5965C124.789 95.267 124.884 94.9204 124.884 94.5567V93.3295C124.827 93.3976 124.702 93.4601 124.509 93.517C124.32 93.57 124.1 93.6173 123.85 93.659C123.604 93.6969 123.363 93.731 123.128 93.7613C122.897 93.7878 122.71 93.8105 122.566 93.8295C122.217 93.8749 121.892 93.9488 121.588 94.051C121.289 94.1495 121.047 94.2992 120.861 94.4999C120.679 94.6969 120.588 94.9658 120.588 95.3067C120.588 95.7726 120.761 96.1249 121.106 96.3635C121.454 96.5984 121.895 96.7158 122.429 96.7158ZM130.013 92.4658V97.7158H128.672V88.9885H129.968V90.3522H130.081C130.286 89.909 130.597 89.5529 131.013 89.284C131.43 89.0113 131.968 88.8749 132.627 88.8749C133.218 88.8749 133.735 88.9961 134.178 89.2385C134.621 89.4772 134.966 89.8408 135.212 90.3295C135.458 90.8143 135.581 91.4279 135.581 92.1704V97.7158H134.24V92.2613C134.24 91.5757 134.062 91.0416 133.706 90.659C133.35 90.2726 132.862 90.0795 132.24 90.0795C131.812 90.0795 131.43 90.1723 131.093 90.3579C130.759 90.5435 130.496 90.8143 130.303 91.1704C130.11 91.5264 130.013 91.9582 130.013 92.4658ZM141.577 97.8976C140.759 97.8976 140.054 97.7045 139.463 97.3181C138.873 96.9317 138.418 96.3995 138.1 95.7215C137.782 95.0435 137.623 94.2689 137.623 93.3976C137.623 92.5113 137.785 91.7291 138.111 91.051C138.441 90.3692 138.899 89.837 139.486 89.4545C140.077 89.0681 140.767 88.8749 141.554 88.8749C142.168 88.8749 142.721 88.9885 143.213 89.2158C143.706 89.4431 144.109 89.7613 144.424 90.1704C144.738 90.5795 144.933 91.0567 145.009 91.6022H143.668C143.566 91.2045 143.338 90.8522 142.986 90.5454C142.638 90.2348 142.168 90.0795 141.577 90.0795C141.054 90.0795 140.596 90.2158 140.202 90.4885C139.812 90.7575 139.507 91.1382 139.287 91.6306C139.071 92.1192 138.963 92.6931 138.963 93.3522C138.963 94.0264 139.07 94.6135 139.282 95.1135C139.498 95.6135 139.801 96.0018 140.191 96.2783C140.585 96.5548 141.047 96.6931 141.577 96.6931C141.926 96.6931 142.242 96.6325 142.526 96.5113C142.81 96.3901 143.051 96.2158 143.248 95.9885C143.445 95.7613 143.585 95.4885 143.668 95.1704H145.009C144.933 95.6855 144.746 96.1495 144.446 96.5624C144.151 96.9715 143.759 97.2973 143.27 97.5397C142.785 97.7783 142.221 97.8976 141.577 97.8976ZM148.31 92.4658V97.7158H146.969V86.0795H148.31V90.3522H148.424C148.628 89.9014 148.935 89.5435 149.344 89.2783C149.757 89.0094 150.306 88.8749 150.992 88.8749C151.587 88.8749 152.107 88.9942 152.554 89.2329C153.001 89.4677 153.348 89.8295 153.594 90.3181C153.844 90.8029 153.969 91.4204 153.969 92.1704V97.7158H152.628V92.2613C152.628 91.5681 152.448 91.0321 152.088 90.6533C151.732 90.2707 151.238 90.0795 150.606 90.0795C150.166 90.0795 149.772 90.1723 149.424 90.3579C149.079 90.5435 148.806 90.8143 148.606 91.1704C148.409 91.5264 148.31 91.9582 148.31 92.4658ZM158.99 97.9204C158.437 97.9204 157.936 97.8162 157.485 97.6079C157.034 97.3957 156.676 97.0908 156.411 96.6931C156.146 96.2916 156.013 95.8067 156.013 95.2385C156.013 94.7385 156.112 94.3332 156.309 94.0226C156.506 93.7082 156.769 93.462 157.098 93.284C157.428 93.106 157.792 92.9734 158.189 92.8863C158.591 92.7954 158.994 92.7234 159.4 92.6704C159.93 92.6022 160.36 92.551 160.689 92.517C161.023 92.4791 161.265 92.4166 161.417 92.3295C161.572 92.2423 161.65 92.0908 161.65 91.8749V91.8295C161.65 91.2689 161.496 90.8332 161.189 90.5226C160.886 90.212 160.426 90.0567 159.809 90.0567C159.168 90.0567 158.667 90.1969 158.303 90.4772C157.939 90.7575 157.684 91.0567 157.536 91.3749L156.263 90.9204C156.49 90.3901 156.793 89.9772 157.172 89.6817C157.555 89.3825 157.972 89.1742 158.422 89.0567C158.877 88.9355 159.324 88.8749 159.763 88.8749C160.043 88.8749 160.365 88.909 160.729 88.9772C161.097 89.0416 161.451 89.176 161.792 89.3806C162.136 89.5851 162.422 89.8939 162.65 90.3067C162.877 90.7196 162.99 91.2726 162.99 91.9658V97.7158H161.65V96.534H161.581C161.49 96.7234 161.339 96.926 161.127 97.142C160.915 97.3579 160.633 97.5416 160.28 97.6931C159.928 97.8446 159.498 97.9204 158.99 97.9204ZM159.195 96.7158C159.725 96.7158 160.172 96.6117 160.536 96.4033C160.903 96.195 161.18 95.926 161.365 95.5965C161.555 95.267 161.65 94.9204 161.65 94.5567V93.3295C161.593 93.3976 161.468 93.4601 161.275 93.517C161.085 93.57 160.865 93.6173 160.615 93.659C160.369 93.6969 160.129 93.731 159.894 93.7613C159.663 93.7878 159.475 93.8105 159.331 93.8295C158.983 93.8749 158.657 93.9488 158.354 94.051C158.055 94.1495 157.812 94.2992 157.627 94.4999C157.445 94.6969 157.354 94.9658 157.354 95.3067C157.354 95.7726 157.526 96.1249 157.871 96.3635C158.22 96.5984 158.661 96.7158 159.195 96.7158ZM166.779 92.4658V97.7158H165.438V88.9885H166.733V90.3522H166.847C167.052 89.909 167.362 89.5529 167.779 89.284C168.195 89.0113 168.733 88.8749 169.392 88.8749C169.983 88.8749 170.5 88.9961 170.944 89.2385C171.387 89.4772 171.731 89.8408 171.978 90.3295C172.224 90.8143 172.347 91.4279 172.347 92.1704V97.7158H171.006V92.2613C171.006 91.5757 170.828 91.0416 170.472 90.659C170.116 90.2726 169.627 90.0795 169.006 90.0795C168.578 90.0795 168.195 90.1723 167.858 90.3579C167.525 90.5435 167.262 90.8143 167.069 91.1704C166.875 91.5264 166.779 91.9582 166.779 92.4658ZM178.32 101.17C177.672 101.17 177.115 101.087 176.65 100.92C176.184 100.757 175.795 100.542 175.485 100.273C175.178 100.007 174.934 99.7234 174.752 99.4204L175.82 98.6704C175.941 98.8295 176.095 99.0113 176.28 99.2158C176.466 99.4242 176.72 99.6041 177.042 99.7556C177.367 99.9109 177.793 99.9885 178.32 99.9885C179.025 99.9885 179.606 99.8181 180.064 99.4772C180.523 99.1363 180.752 98.6022 180.752 97.8749V96.1022H180.638C180.54 96.2613 180.4 96.4582 180.218 96.6931C180.04 96.9242 179.782 97.1306 179.445 97.3124C179.112 97.4904 178.661 97.5795 178.093 97.5795C177.388 97.5795 176.756 97.4128 176.195 97.0795C175.638 96.7461 175.197 96.2613 174.871 95.6249C174.549 94.9885 174.388 94.2158 174.388 93.3067C174.388 92.4128 174.545 91.6344 174.86 90.9715C175.174 90.3048 175.612 89.7897 176.172 89.426C176.733 89.0586 177.381 88.8749 178.115 88.8749C178.684 88.8749 179.134 88.9696 179.468 89.159C179.805 89.3446 180.062 89.5567 180.24 89.7954C180.422 90.0302 180.562 90.2234 180.661 90.3749H180.797V88.9885H182.093V97.9658C182.093 98.7158 181.922 99.3257 181.581 99.7954C181.244 100.269 180.79 100.615 180.218 100.835C179.65 101.059 179.017 101.17 178.32 101.17ZM178.275 96.3749C178.812 96.3749 179.267 96.2518 179.638 96.0056C180.009 95.7594 180.292 95.4052 180.485 94.9431C180.678 94.481 180.775 93.9279 180.775 93.284C180.775 92.6552 180.68 92.1003 180.49 91.6192C180.301 91.1382 180.021 90.7613 179.65 90.4885C179.278 90.2158 178.82 90.0795 178.275 90.0795C177.706 90.0795 177.233 90.2234 176.854 90.5113C176.479 90.7992 176.197 91.1855 176.008 91.6704C175.822 92.1552 175.729 92.6931 175.729 93.284C175.729 93.8901 175.824 94.426 176.013 94.892C176.206 95.3541 176.49 95.7177 176.865 95.9829C177.244 96.2442 177.714 96.3749 178.275 96.3749ZM192.82 97.7158H189.229V86.0795H192.979C194.108 86.0795 195.074 86.3124 195.877 86.7783C196.68 87.2404 197.295 87.9052 197.723 88.7726C198.151 89.6363 198.365 90.6704 198.365 91.8749C198.365 93.087 198.15 94.1306 197.718 95.0056C197.286 95.8768 196.657 96.5473 195.831 97.017C195.006 97.4829 194.002 97.7158 192.82 97.7158ZM190.638 96.4658H192.729C193.691 96.4658 194.489 96.2802 195.121 95.909C195.754 95.5378 196.225 95.0094 196.536 94.3238C196.847 93.6382 197.002 92.8219 197.002 91.8749C197.002 90.9355 196.848 90.1268 196.542 89.4488C196.235 88.767 195.776 88.2442 195.167 87.8806C194.557 87.5132 193.797 87.3295 192.888 87.3295H190.638V96.4658ZM204.206 97.8976C203.365 97.8976 202.64 97.712 202.03 97.3408C201.424 96.9658 200.956 96.4431 200.627 95.7726C200.301 95.0984 200.138 94.3143 200.138 93.4204C200.138 92.5264 200.301 91.7385 200.627 91.0567C200.956 90.3711 201.415 89.837 202.002 89.4545C202.593 89.0681 203.282 88.8749 204.07 88.8749C204.525 88.8749 204.973 88.9507 205.417 89.1022C205.86 89.2537 206.263 89.4999 206.627 89.8408C206.99 90.1779 207.28 90.6249 207.496 91.1817C207.712 91.7385 207.82 92.4242 207.82 93.2385V93.8067H201.093V92.6476H206.456C206.456 92.1552 206.358 91.7158 206.161 91.3295C205.968 90.9431 205.691 90.6382 205.331 90.4147C204.975 90.1912 204.555 90.0795 204.07 90.0795C203.536 90.0795 203.074 90.212 202.684 90.4772C202.297 90.7385 202 91.0795 201.792 91.4999C201.583 91.9204 201.479 92.3711 201.479 92.8522V93.6249C201.479 94.284 201.593 94.8427 201.82 95.301C202.051 95.7556 202.371 96.1022 202.78 96.3408C203.189 96.5757 203.665 96.6931 204.206 96.6931C204.559 96.6931 204.877 96.6439 205.161 96.5454C205.449 96.4431 205.697 96.2916 205.905 96.0908C206.114 95.8863 206.275 95.6325 206.388 95.3295L207.684 95.6931C207.547 96.1325 207.318 96.5189 206.996 96.8522C206.674 97.1817 206.276 97.4393 205.803 97.6249C205.329 97.8067 204.797 97.8976 204.206 97.8976ZM213.405 97.8976C212.587 97.8976 211.883 97.7045 211.292 97.3181C210.701 96.9317 210.246 96.3995 209.928 95.7215C209.61 95.0435 209.451 94.2689 209.451 93.3976C209.451 92.5113 209.614 91.7291 209.939 91.051C210.269 90.3692 210.727 89.837 211.314 89.4545C211.905 89.0681 212.595 88.8749 213.383 88.8749C213.996 88.8749 214.549 88.9885 215.042 89.2158C215.534 89.4431 215.937 89.7613 216.252 90.1704C216.566 90.5795 216.761 91.0567 216.837 91.6022H215.496C215.394 91.2045 215.167 90.8522 214.814 90.5454C214.466 90.2348 213.996 90.0795 213.405 90.0795C212.883 90.0795 212.424 90.2158 212.03 90.4885C211.64 90.7575 211.335 91.1382 211.115 91.6306C210.9 92.1192 210.792 92.6931 210.792 93.3522C210.792 94.0264 210.898 94.6135 211.11 95.1135C211.326 95.6135 211.629 96.0018 212.019 96.2783C212.413 96.5548 212.875 96.6931 213.405 96.6931C213.754 96.6931 214.07 96.6325 214.354 96.5113C214.638 96.3901 214.879 96.2158 215.076 95.9885C215.273 95.7613 215.413 95.4885 215.496 95.1704H216.837C216.761 95.6855 216.574 96.1495 216.275 96.5624C215.979 96.9715 215.587 97.2973 215.098 97.5397C214.614 97.7783 214.049 97.8976 213.405 97.8976ZM222.343 97.8976C221.555 97.8976 220.864 97.7101 220.269 97.3351C219.678 96.9601 219.216 96.4355 218.883 95.7613C218.553 95.087 218.388 94.2992 218.388 93.3976C218.388 92.4885 218.553 91.695 218.883 91.017C219.216 90.3389 219.678 89.8124 220.269 89.4374C220.864 89.0624 221.555 88.8749 222.343 88.8749C223.131 88.8749 223.82 89.0624 224.411 89.4374C225.006 89.8124 225.468 90.3389 225.797 91.017C226.131 91.695 226.297 92.4885 226.297 93.3976C226.297 94.2992 226.131 95.087 225.797 95.7613C225.468 96.4355 225.006 96.9601 224.411 97.3351C223.82 97.7101 223.131 97.8976 222.343 97.8976ZM222.343 96.6931C222.941 96.6931 223.434 96.5397 223.82 96.2329C224.206 95.926 224.492 95.5226 224.678 95.0226C224.864 94.5226 224.956 93.981 224.956 93.3976C224.956 92.8143 224.864 92.2707 224.678 91.767C224.492 91.2632 224.206 90.856 223.82 90.5454C223.434 90.2348 222.941 90.0795 222.343 90.0795C221.744 90.0795 221.252 90.2348 220.865 90.5454C220.479 90.856 220.193 91.2632 220.008 91.767C219.822 92.2707 219.729 92.8143 219.729 93.3976C219.729 93.981 219.822 94.5226 220.008 95.0226C220.193 95.5226 220.479 95.926 220.865 96.2329C221.252 96.5397 221.744 96.6931 222.343 96.6931ZM231.64 97.8976C230.912 97.8976 230.27 97.7139 229.713 97.3465C229.157 96.9753 228.721 96.4526 228.407 95.7783C228.092 95.1003 227.935 94.2992 227.935 93.3749C227.935 92.4582 228.092 91.6628 228.407 90.9885C228.721 90.3143 229.159 89.7935 229.719 89.426C230.28 89.0586 230.927 88.8749 231.662 88.8749C232.231 88.8749 232.679 88.9696 233.009 89.159C233.342 89.3446 233.596 89.5567 233.77 89.7954C233.948 90.0302 234.087 90.2234 234.185 90.3749H234.299V86.0795H235.64V97.7158H234.344V96.3749H234.185C234.087 96.534 233.946 96.7348 233.765 96.9772C233.583 97.2158 233.323 97.4298 232.986 97.6192C232.649 97.8048 232.2 97.8976 231.64 97.8976ZM231.821 96.6931C232.359 96.6931 232.814 96.5529 233.185 96.2726C233.556 95.9885 233.838 95.5965 234.032 95.0965C234.225 94.5927 234.321 94.0113 234.321 93.3522C234.321 92.7007 234.227 92.1306 234.037 91.642C233.848 91.1495 233.568 90.767 233.196 90.4942C232.825 90.2177 232.367 90.0795 231.821 90.0795C231.253 90.0795 230.78 90.2253 230.401 90.517C230.026 90.8048 229.744 91.1969 229.554 91.6931C229.369 92.1855 229.276 92.7385 229.276 93.3522C229.276 93.9734 229.371 94.5378 229.56 95.0454C229.753 95.5492 230.037 95.9507 230.412 96.2499C230.791 96.5454 231.261 96.6931 231.821 96.6931ZM241.941 97.8976C241.1 97.8976 240.374 97.712 239.765 97.3408C239.159 96.9658 238.691 96.4431 238.361 95.7726C238.035 95.0984 237.873 94.3143 237.873 93.4204C237.873 92.5264 238.035 91.7385 238.361 91.0567C238.691 90.3711 239.149 89.837 239.736 89.4545C240.327 89.0681 241.017 88.8749 241.804 88.8749C242.259 88.8749 242.708 88.9507 243.151 89.1022C243.594 89.2537 243.998 89.4999 244.361 89.8408C244.725 90.1779 245.015 90.6249 245.231 91.1817C245.446 91.7385 245.554 92.4242 245.554 93.2385V93.8067H238.827V92.6476H244.191C244.191 92.1552 244.092 91.7158 243.895 91.3295C243.702 90.9431 243.426 90.6382 243.066 90.4147C242.71 90.1912 242.289 90.0795 241.804 90.0795C241.27 90.0795 240.808 90.212 240.418 90.4772C240.032 90.7385 239.734 91.0795 239.526 91.4999C239.318 91.9204 239.213 92.3711 239.213 92.8522V93.6249C239.213 94.284 239.327 94.8427 239.554 95.301C239.785 95.7556 240.106 96.1022 240.515 96.3408C240.924 96.5757 241.399 96.6931 241.941 96.6931C242.293 96.6931 242.611 96.6439 242.895 96.5454C243.183 96.4431 243.431 96.2916 243.64 96.0908C243.848 95.8863 244.009 95.6325 244.123 95.3295L245.418 95.6931C245.282 96.1325 245.052 96.5189 244.731 96.8522C244.409 97.1817 244.011 97.4393 243.537 97.6249C243.064 97.8067 242.532 97.8976 241.941 97.8976ZM250.89 97.8976C250.162 97.8976 249.52 97.7139 248.963 97.3465C248.407 96.9753 247.971 96.4526 247.657 95.7783C247.342 95.1003 247.185 94.2992 247.185 93.3749C247.185 92.4582 247.342 91.6628 247.657 90.9885C247.971 90.3143 248.409 89.7935 248.969 89.426C249.53 89.0586 250.177 88.8749 250.912 88.8749C251.481 88.8749 251.929 88.9696 252.259 89.159C252.592 89.3446 252.846 89.5567 253.02 89.7954C253.198 90.0302 253.337 90.2234 253.435 90.3749H253.549V86.0795H254.89V97.7158H253.594V96.3749H253.435C253.337 96.534 253.196 96.7348 253.015 96.9772C252.833 97.2158 252.573 97.4298 252.236 97.6192C251.899 97.8048 251.45 97.8976 250.89 97.8976ZM251.071 96.6931C251.609 96.6931 252.064 96.5529 252.435 96.2726C252.806 95.9885 253.088 95.5965 253.282 95.0965C253.475 94.5927 253.571 94.0113 253.571 93.3522C253.571 92.7007 253.477 92.1306 253.287 91.642C253.098 91.1495 252.818 90.767 252.446 90.4942C252.075 90.2177 251.617 90.0795 251.071 90.0795C250.503 90.0795 250.03 90.2253 249.651 90.517C249.276 90.8048 248.994 91.1969 248.804 91.6931C248.619 92.1855 248.526 92.7385 248.526 93.3522C248.526 93.9734 248.621 94.5378 248.81 95.0454C249.003 95.5492 249.287 95.9507 249.662 96.2499C250.041 96.5454 250.511 96.6931 251.071 96.6931Z" fill="#A45F27"/>
<path d="M325.64 92.2158H270.132" stroke="url(#paint15_linear_0_2317)" stroke-miterlimit="10" stroke-linecap="round" stroke-linejoin="round"/>
<path d="M268.687 89.7888C267.671 88.7757 266.064 88.7368 266.064 88.7368C266.064 88.7368 266.103 90.3393 267.119 91.3524C268.135 92.3645 269.742 92.4044 269.742 92.4044C269.742 92.4044 269.703 90.8009 268.687 89.7888Z" fill="url(#paint16_linear_0_2317)"/>
<path d="M267.119 93.0794C268.135 92.0662 269.742 92.0273 269.742 92.0273C269.742 92.0273 269.703 93.6298 268.687 94.6429C267.671 95.656 266.064 95.6949 266.064 95.6949C266.064 95.6949 266.103 94.0915 267.119 93.0794Z" fill="url(#paint17_linear_0_2317)"/>
<path d="M264.17 91.1099C262.734 91.1099 261.57 92.2157 261.57 92.2157C261.57 92.2157 262.734 93.3216 264.17 93.3216C265.606 93.3216 266.77 92.2157 266.77 92.2157C266.77 92.2157 265.606 91.1099 264.17 91.1099Z" fill="url(#paint18_linear_0_2317)"/>
<path d="M289.377 104.716H168.762" stroke="url(#paint19_linear_0_2317)" stroke-miterlimit="10" stroke-linecap="round" stroke-linejoin="round"/>
<path d="M168.841 105.021L171.329 112.925C172.263 115.622 174.106 116.701 176.42 116.204C178.132 115.837 179.22 114.157 178.853 112.45C178.581 111.188 177.334 110.386 176.07 110.657C175.134 110.858 174.539 111.776 174.74 112.709" stroke="url(#paint20_linear_0_2317)" stroke-miterlimit="10" stroke-linecap="round" stroke-linejoin="round"/>
<path d="M36.7632 104.716H157.378" stroke="url(#paint21_linear_0_2317)" stroke-miterlimit="10" stroke-linecap="round" stroke-linejoin="round"/>
<path d="M157.298 105.021L154.811 112.925C153.877 115.622 152.034 116.701 149.72 116.204C148.008 115.837 146.92 114.157 147.287 112.45C147.559 111.188 148.806 110.386 150.07 110.657C151.006 110.858 151.601 111.776 151.4 112.709" stroke="url(#paint22_linear_0_2317)" stroke-miterlimit="10" stroke-linecap="round" stroke-linejoin="round"/>
<path d="M162.942 110.284L164.055 111.394L162.942 112.504L161.829 111.394L162.942 110.284Z" fill="url(#paint23_linear_0_2317)" stroke="url(#paint24_linear_0_2317)"/>
<defs>
<linearGradient id="paint0_linear_0_2317" x1="90.6104" y1="21.7148" x2="90.6104" y2="20.7148" gradientUnits="userSpaceOnUse">
<stop stop-color="#A45F27"/>
<stop offset="1" stop-color="#3E240F"/>
</linearGradient>
<linearGradient id="paint1_linear_0_2317" x1="235.53" y1="21.7148" x2="235.53" y2="20.7148" gradientUnits="userSpaceOnUse">
<stop stop-color="#A45F27"/>
<stop offset="1" stop-color="#3E240F"/>
</linearGradient>
<linearGradient id="paint2_linear_0_2317" x1="194.126" y1="21.7158" x2="194.126" y2="7.8856" gradientUnits="userSpaceOnUse">
<stop stop-color="#A45F27"/>
<stop offset="1" stop-color="#3E240F"/>
</linearGradient>
<linearGradient id="paint3_linear_0_2317" x1="132.016" y1="21.7158" x2="132.016" y2="7.8856" gradientUnits="userSpaceOnUse">
<stop stop-color="#A45F27"/>
<stop offset="1" stop-color="#3E240F"/>
</linearGradient>
<linearGradient id="paint4_linear_0_2317" x1="136.171" y1="18.7896" x2="136.171" y2="7.48861" gradientUnits="userSpaceOnUse">
<stop stop-color="#A45F27"/>
<stop offset="1" stop-color="#3E240F"/>
</linearGradient>
<linearGradient id="paint5_linear_0_2317" x1="189.972" y1="18.7896" x2="189.972" y2="7.48861" gradientUnits="userSpaceOnUse">
<stop stop-color="#A45F27"/>
<stop offset="1" stop-color="#3E240F"/>
</linearGradient>
<linearGradient id="paint6_linear_0_2317" x1="162.157" y1="15.9446" x2="163.973" y2="14.1235" gradientUnits="userSpaceOnUse">
<stop stop-color="#A45F27"/>
<stop offset="1" stop-color="#3E240F"/>
</linearGradient>
<linearGradient id="paint7_linear_0_2317" x1="162.157" y1="15.9446" x2="163.973" y2="14.1235" gradientUnits="userSpaceOnUse">
<stop stop-color="#A45F27"/>
<stop offset="1" stop-color="#3E240F"/>
</linearGradient>
<linearGradient id="paint8_linear_0_2317" x1="163.07" y1="11.042" x2="163.07" y2="-0.000196457" gradientUnits="userSpaceOnUse">
<stop stop-color="#A45F27"/>
<stop offset="1" stop-color="#3E240F"/>
</linearGradient>
<linearGradient id="paint9_linear_0_2317" x1="163.07" y1="11.042" x2="163.07" y2="-0.000196457" gradientUnits="userSpaceOnUse">
<stop stop-color="#A45F27"/>
<stop offset="1" stop-color="#3E240F"/>
</linearGradient>
<linearGradient id="paint10_linear_0_2317" x1="163.07" y1="24.7163" x2="163.07" y2="79.7163" gradientUnits="userSpaceOnUse">
<stop stop-color="#A45F27"/>
<stop offset="1" stop-color="#3E240F"/>
</linearGradient>
<linearGradient id="paint11_linear_0_2317" x1="0.5" y1="92.7158" x2="56.008" y2="92.7158" gradientUnits="userSpaceOnUse">
<stop stop-color="#A45F27" stop-opacity="0"/>
<stop offset="1" stop-color="#A45F27"/>
</linearGradient>
<linearGradient id="paint12_linear_0_2317" x1="56.398" y1="90.5706" x2="60.076" y2="90.5706" gradientUnits="userSpaceOnUse">
<stop stop-color="#A45F27"/>
<stop offset="1" stop-color="#A45F27"/>
</linearGradient>
<linearGradient id="paint13_linear_0_2317" x1="56.398" y1="93.8611" x2="60.076" y2="93.8611" gradientUnits="userSpaceOnUse">
<stop stop-color="#A45F27"/>
<stop offset="1" stop-color="#A45F27"/>
</linearGradient>
<linearGradient id="paint14_linear_0_2317" x1="59.37" y1="92.2157" x2="64.57" y2="92.2157" gradientUnits="userSpaceOnUse">
<stop stop-color="#A45F27"/>
<stop offset="1" stop-color="#A45F27"/>
</linearGradient>
<linearGradient id="paint15_linear_0_2317" x1="325.64" y1="92.7158" x2="270.132" y2="92.7158" gradientUnits="userSpaceOnUse">
<stop stop-color="#A45F27" stop-opacity="0"/>
<stop offset="1" stop-color="#A45F27"/>
</linearGradient>
<linearGradient id="paint16_linear_0_2317" x1="269.742" y1="90.5706" x2="266.064" y2="90.5706" gradientUnits="userSpaceOnUse">
<stop stop-color="#A45F27"/>
<stop offset="1" stop-color="#A45F27"/>
</linearGradient>
<linearGradient id="paint17_linear_0_2317" x1="269.742" y1="93.8611" x2="266.064" y2="93.8611" gradientUnits="userSpaceOnUse">
<stop stop-color="#A45F27"/>
<stop offset="1" stop-color="#A45F27"/>
</linearGradient>
<linearGradient id="paint18_linear_0_2317" x1="266.77" y1="92.2157" x2="261.57" y2="92.2157" gradientUnits="userSpaceOnUse">
<stop stop-color="#A45F27"/>
<stop offset="1" stop-color="#A45F27"/>
</linearGradient>
<linearGradient id="paint19_linear_0_2317" x1="289.711" y1="105.021" x2="168.711" y2="105.021" gradientUnits="userSpaceOnUse">
<stop stop-color="#A45F27" stop-opacity="0"/>
<stop offset="1" stop-color="#A45F27"/>
</linearGradient>
<linearGradient id="paint20_linear_0_2317" x1="173.883" y1="105.021" x2="173.883" y2="116.321" gradientUnits="userSpaceOnUse">
<stop stop-color="#A45F27"/>
<stop offset="1" stop-color="#3E240F"/>
</linearGradient>
<linearGradient id="paint21_linear_0_2317" x1="36.4291" y1="105.021" x2="157.429" y2="105.021" gradientUnits="userSpaceOnUse">
<stop stop-color="#A45F27" stop-opacity="0"/>
<stop offset="1" stop-color="#A45F27"/>
</linearGradient>
<linearGradient id="paint22_linear_0_2317" x1="152.257" y1="105.021" x2="152.257" y2="116.321" gradientUnits="userSpaceOnUse">
<stop stop-color="#A45F27"/>
<stop offset="1" stop-color="#3E240F"/>
</linearGradient>
<linearGradient id="paint23_linear_0_2317" x1="162.031" y1="110.486" x2="163.847" y2="112.307" gradientUnits="userSpaceOnUse">
<stop stop-color="#A45F27"/>
<stop offset="1" stop-color="#3E240F"/>
</linearGradient>
<linearGradient id="paint24_linear_0_2317" x1="162.031" y1="110.486" x2="163.847" y2="112.307" gradientUnits="userSpaceOnUse">
<stop stop-color="#A45F27"/>
<stop offset="1" stop-color="#3E240F"/>
</linearGradient>
</defs>
</svg>
