<svg width="75" height="30" viewBox="0 0 75 30" fill="none" xmlns="http://www.w3.org/2000/svg">
<path d="M24.7705 26.2576V25.2418L23.7624 23.4529H24.0845L24.9146 24.9462L25.7446 23.4529H26.063L25.0586 25.2418V26.2576H24.7705ZM26.9971 26.2955C26.8379 26.2955 26.6977 26.2664 26.5764 26.2083C26.4576 26.1502 26.3565 26.0718 26.2732 25.9733C26.1923 25.8747 26.1317 25.7636 26.0912 25.6398C26.0508 25.5134 26.0306 25.3846 26.0306 25.2532C26.0306 25.1192 26.0508 24.9904 26.0912 24.8666C26.1317 24.7428 26.1923 24.6316 26.2732 24.533C26.3565 24.4345 26.4576 24.3562 26.5764 24.2981C26.6977 24.2399 26.8379 24.2109 26.9971 24.2109C27.1563 24.2109 27.2965 24.2399 27.4178 24.2981C27.5391 24.3562 27.6401 24.4345 27.721 24.533C27.8018 24.6316 27.8625 24.7428 27.9029 24.8666C27.9459 24.9904 27.9674 25.1192 27.9674 25.2532C27.9674 25.3846 27.9459 25.5134 27.9029 25.6398C27.8625 25.7636 27.8018 25.8747 27.721 25.9733C27.6401 26.0718 27.5391 26.1502 27.4178 26.2083C27.2965 26.2664 27.1563 26.2955 26.9971 26.2955ZM26.9971 26.0415C27.1462 26.0415 27.2712 26.0036 27.3723 25.9278C27.4734 25.852 27.5492 25.7547 27.5997 25.636C27.6528 25.5147 27.6793 25.3871 27.6793 25.2532C27.6793 25.1192 27.6528 24.9929 27.5997 24.8742C27.5492 24.7529 27.4734 24.6543 27.3723 24.5785C27.2712 24.5027 27.1462 24.4648 26.9971 24.4648C26.848 24.4648 26.7229 24.5027 26.6219 24.5785C26.5208 24.6543 26.445 24.7529 26.3944 24.8742C26.3439 24.9929 26.3186 25.1192 26.3186 25.2532C26.3186 25.3871 26.3439 25.5147 26.3944 25.636C26.445 25.7547 26.5208 25.852 26.6219 25.9278C26.7229 26.0036 26.848 26.0415 26.9971 26.0415ZM29.1414 26.2955C28.9418 26.2955 28.7826 26.231 28.6638 26.1022C28.5451 25.9733 28.4857 25.7939 28.4857 25.564V24.2488H28.77V25.5526C28.77 25.7092 28.8091 25.8305 28.8875 25.9164C28.9658 26.0024 29.0732 26.0453 29.2096 26.0453C29.3435 26.0453 29.4509 26.0099 29.5318 25.9392C29.6126 25.8659 29.6708 25.7749 29.7061 25.6663C29.744 25.5551 29.763 25.4401 29.763 25.3214V24.2488H30.0472V26.2576H29.763V25.9278H29.744C29.7263 25.9632 29.6948 26.0112 29.6493 26.0718C29.6038 26.13 29.5406 26.1818 29.4598 26.2272C29.3789 26.2727 29.2728 26.2955 29.1414 26.2955ZM30.614 26.2576V24.2488H30.8982V24.5103H30.9134C30.9538 24.4294 31.0157 24.36 31.0991 24.3018C31.1825 24.2412 31.2987 24.2109 31.4478 24.2109C31.4958 24.2109 31.5375 24.2134 31.5729 24.2185C31.6108 24.2235 31.6297 24.226 31.6297 24.226V24.4989C31.6297 24.4989 31.6095 24.4964 31.5691 24.4914C31.5286 24.4863 31.4857 24.4838 31.4402 24.4838C31.3366 24.4838 31.2431 24.5052 31.1597 24.5482C31.0789 24.5886 31.0145 24.6594 30.9664 24.7604C30.921 24.859 30.8982 24.9942 30.8982 25.166V26.2576H30.614ZM34.1815 26.2955C33.9642 26.2955 33.7734 26.255 33.6091 26.1742C33.4449 26.0908 33.3085 25.9809 33.1998 25.8444C33.0912 25.7055 33.009 25.5513 32.9535 25.382C32.9004 25.2102 32.8739 25.0346 32.8739 24.8552C32.8739 24.6758 32.9004 24.5002 32.9535 24.3284C33.009 24.1566 33.0912 24.0024 33.1998 23.866C33.3085 23.727 33.4449 23.6171 33.6091 23.5362C33.7734 23.4554 33.9642 23.415 34.1815 23.415C34.3583 23.415 34.5099 23.4377 34.6363 23.4832C34.7651 23.5287 34.8725 23.588 34.9584 23.6613C35.0443 23.7346 35.1138 23.8117 35.1669 23.8925C35.22 23.9734 35.2591 24.0504 35.2844 24.1237C35.3122 24.197 35.3299 24.2564 35.3374 24.3018C35.3476 24.3473 35.3526 24.3701 35.3526 24.3701H35.057C35.057 24.3701 35.0519 24.3473 35.0418 24.3018C35.0317 24.2564 35.0102 24.1995 34.9774 24.1313C34.9445 24.0631 34.8953 23.9948 34.8296 23.9266C34.7664 23.8584 34.6818 23.8015 34.5756 23.7561C34.472 23.7106 34.3406 23.6878 34.1815 23.6878C34.0147 23.6878 33.8681 23.7207 33.7418 23.7864C33.6155 23.8521 33.5093 23.9418 33.4234 24.0555C33.34 24.1667 33.2769 24.2917 33.2339 24.4307C33.191 24.5672 33.1695 24.7087 33.1695 24.8552C33.1695 24.9992 33.191 25.1407 33.2339 25.2797C33.2769 25.4187 33.34 25.545 33.4234 25.6587C33.5093 25.7699 33.6155 25.8583 33.7418 25.924C33.8681 25.9897 34.0147 26.0226 34.1815 26.0226C34.3406 26.0226 34.472 25.9998 34.5756 25.9543C34.6818 25.9089 34.7664 25.852 34.8296 25.7838C34.8953 25.7156 34.9445 25.6473 34.9774 25.5791C35.0102 25.5109 35.0317 25.454 35.0418 25.4086C35.0519 25.3606 35.057 25.3366 35.057 25.3366H35.3526C35.3526 25.3366 35.3476 25.3606 35.3374 25.4086C35.3299 25.454 35.3122 25.5134 35.2844 25.5867C35.2591 25.6574 35.22 25.7345 35.1669 25.8179C35.1138 25.8988 35.0443 25.9758 34.9584 26.0491C34.8725 26.1224 34.7651 26.1818 34.6363 26.2272C34.5099 26.2727 34.3583 26.2955 34.1815 26.2955ZM36.7685 26.2955C36.6093 26.2955 36.4691 26.2664 36.3478 26.2083C36.2291 26.1502 36.128 26.0718 36.0446 25.9733C35.9637 25.8747 35.9031 25.7636 35.8627 25.6398C35.8222 25.5134 35.802 25.3846 35.802 25.2532C35.802 25.1192 35.8222 24.9904 35.8627 24.8666C35.9031 24.7428 35.9637 24.6316 36.0446 24.533C36.128 24.4345 36.2291 24.3562 36.3478 24.2981C36.4691 24.2399 36.6093 24.2109 36.7685 24.2109C36.9277 24.2109 37.0679 24.2399 37.1892 24.2981C37.3105 24.3562 37.4116 24.4345 37.4924 24.533C37.5733 24.6316 37.6339 24.7428 37.6744 24.8666C37.7173 24.9904 37.7388 25.1192 37.7388 25.2532C37.7388 25.3846 37.7173 25.5134 37.6744 25.6398C37.6339 25.7636 37.5733 25.8747 37.4924 25.9733C37.4116 26.0718 37.3105 26.1502 37.1892 26.2083C37.0679 26.2664 36.9277 26.2955 36.7685 26.2955ZM36.7685 26.0415C36.9176 26.0415 37.0427 26.0036 37.1437 25.9278C37.2448 25.852 37.3206 25.7547 37.3711 25.636C37.4242 25.5147 37.4507 25.3871 37.4507 25.2532C37.4507 25.1192 37.4242 24.9929 37.3711 24.8742C37.3206 24.7529 37.2448 24.6543 37.1437 24.5785C37.0427 24.5027 36.9176 24.4648 36.7685 24.4648C36.6194 24.4648 36.4944 24.5027 36.3933 24.5785C36.2922 24.6543 36.2164 24.7529 36.1659 24.8742C36.1154 24.9929 36.0901 25.1192 36.0901 25.2532C36.0901 25.3871 36.1154 25.5147 36.1659 25.636C36.2164 25.7547 36.2922 25.852 36.3933 25.9278C36.4944 26.0036 36.6194 26.0415 36.7685 26.0415ZM38.9432 26.2955C38.7916 26.2955 38.6665 26.274 38.5679 26.231C38.4719 26.1881 38.3949 26.135 38.3367 26.0718C38.2812 26.0087 38.2407 25.9455 38.2155 25.8823C38.1902 25.8192 38.1738 25.7661 38.1662 25.7231C38.1586 25.6802 38.1548 25.6587 38.1548 25.6587H38.4467C38.4467 25.6587 38.4504 25.6789 38.458 25.7194C38.4656 25.7573 38.4846 25.8027 38.5149 25.8558C38.5477 25.9063 38.5983 25.9518 38.6665 25.9922C38.7347 26.0301 38.8282 26.0491 38.947 26.0491C39.0758 26.0491 39.1782 26.0162 39.254 25.9506C39.3298 25.8849 39.3677 25.804 39.3677 25.708C39.3677 25.617 39.3361 25.5463 39.2729 25.4957C39.2123 25.4452 39.1301 25.4086 39.0266 25.3858L38.7612 25.3252C38.6602 25.2999 38.5679 25.2658 38.4846 25.2228C38.4012 25.1799 38.3342 25.123 38.2837 25.0523C38.2331 24.979 38.2079 24.8893 38.2079 24.7832C38.2079 24.6139 38.2698 24.4762 38.3936 24.3701C38.5174 24.2639 38.6791 24.2109 38.8787 24.2109C39.0127 24.2109 39.1226 24.2311 39.2085 24.2715C39.2969 24.3094 39.3664 24.3574 39.4169 24.4155C39.47 24.4737 39.5079 24.5318 39.5306 24.5899C39.5559 24.6455 39.5723 24.6935 39.5799 24.7339C39.5875 24.7718 39.5913 24.7908 39.5913 24.7908H39.3146C39.3146 24.7908 39.3095 24.7743 39.2994 24.7415C39.2919 24.7061 39.2742 24.667 39.2464 24.624C39.2211 24.5785 39.1782 24.5394 39.1175 24.5065C39.0594 24.4711 38.9798 24.4534 38.8787 24.4534C38.7473 24.4534 38.6488 24.485 38.5831 24.5482C38.5199 24.6114 38.4884 24.6834 38.4884 24.7642C38.4884 24.8426 38.5161 24.9045 38.5717 24.95C38.6298 24.9954 38.7082 25.0295 38.8067 25.0523L39.0758 25.1167C39.2451 25.1572 39.3828 25.2241 39.4889 25.3176C39.5951 25.4086 39.6481 25.5349 39.6481 25.6966C39.6481 25.8053 39.6191 25.9051 39.561 25.996C39.5054 26.087 39.4245 26.1603 39.3184 26.2159C39.2148 26.2689 39.0897 26.2955 38.9432 26.2955ZM40.13 26.2576V24.2488H40.4143V24.5747H40.4294C40.4496 24.5318 40.4825 24.4825 40.528 24.4269C40.5735 24.3688 40.6354 24.3183 40.7137 24.2753C40.792 24.2324 40.8906 24.2109 41.0093 24.2109C41.1609 24.2109 41.2885 24.25 41.3921 24.3284C41.4983 24.4042 41.5753 24.509 41.6233 24.643H41.6271C41.6802 24.5293 41.7585 24.4294 41.8621 24.3435C41.9657 24.2551 42.1047 24.2109 42.279 24.2109C42.4913 24.2109 42.6568 24.2842 42.7755 24.4307C42.8943 24.5773 42.9537 24.7706 42.9537 25.0106V26.2576H42.6732V25.022C42.6732 24.8476 42.6328 24.7112 42.5519 24.6126C42.4711 24.5116 42.3586 24.461 42.2146 24.461C42.0882 24.461 41.9859 24.4964 41.9076 24.5672C41.8293 24.6354 41.7724 24.7225 41.737 24.8287C41.7017 24.9348 41.684 25.0434 41.684 25.1546V26.2576H41.3997V25.022C41.3997 24.8476 41.3605 24.7112 41.2822 24.6126C41.2039 24.5116 41.0914 24.461 40.9449 24.461C40.8186 24.461 40.7162 24.4964 40.6379 24.5672C40.5596 24.6354 40.5027 24.7238 40.4673 24.8325C40.432 24.9386 40.4143 25.046 40.4143 25.1546V26.2576H40.13ZM43.7061 23.8622C43.648 23.8622 43.6 23.842 43.5621 23.8015C43.5242 23.7611 43.5052 23.7144 43.5052 23.6613C43.5052 23.6057 43.5242 23.559 43.5621 23.5211C43.6 23.4806 43.648 23.4604 43.7061 23.4604C43.7617 23.4604 43.8085 23.4806 43.8464 23.5211C43.8868 23.559 43.907 23.6057 43.907 23.6613C43.907 23.7169 43.8868 23.7649 43.8464 23.8053C43.8085 23.8432 43.7617 23.8622 43.7061 23.8622ZM43.5659 26.2576V24.2488H43.8501V26.2576H43.5659ZM45.3853 26.2955C45.2236 26.2955 45.0809 26.2664 44.957 26.2083C44.8358 26.1476 44.7347 26.068 44.6538 25.9695C44.573 25.8684 44.5123 25.756 44.4719 25.6322C44.4315 25.5084 44.4113 25.382 44.4113 25.2532C44.4113 25.1243 44.4315 24.998 44.4719 24.8742C44.5123 24.7503 44.573 24.6392 44.6538 24.5406C44.7347 24.4396 44.8358 24.36 44.957 24.3018C45.0783 24.2412 45.2211 24.2109 45.3853 24.2109C45.542 24.2109 45.6721 24.2349 45.7757 24.2829C45.8793 24.3284 45.9627 24.3865 46.0259 24.4572C46.089 24.5255 46.137 24.5949 46.1699 24.6657C46.2027 24.7364 46.2242 24.7958 46.2343 24.8438C46.2444 24.8893 46.2495 24.9121 46.2495 24.9121H45.9728C45.9728 24.9121 45.9652 24.8893 45.9501 24.8438C45.9374 24.7984 45.9109 24.7466 45.8705 24.6884C45.8326 24.6278 45.7745 24.5747 45.6961 24.5293C45.6178 24.4838 45.5142 24.461 45.3853 24.461C45.2312 24.461 45.1023 24.4989 44.9987 24.5747C44.8977 24.6505 44.8206 24.7491 44.7675 24.8704C44.717 24.9891 44.6917 25.1167 44.6917 25.2532C44.6917 25.3871 44.717 25.5147 44.7675 25.636C44.8206 25.7573 44.8977 25.8558 44.9987 25.9316C45.1023 26.0074 45.2312 26.0453 45.3853 26.0453C45.5142 26.0453 45.6178 26.0226 45.6961 25.9771C45.7745 25.9316 45.8326 25.8798 45.8705 25.8217C45.9109 25.761 45.9374 25.708 45.9501 25.6625C45.9652 25.617 45.9728 25.5943 45.9728 25.5943H46.2495C46.2495 25.5943 46.2444 25.6183 46.2343 25.6663C46.2242 25.7118 46.2027 25.7699 46.1699 25.8406C46.137 25.9089 46.089 25.9783 46.0259 26.0491C45.9627 26.1198 45.8793 26.1792 45.7757 26.2272C45.6721 26.2727 45.542 26.2955 45.3853 26.2955ZM48.8944 26.2955C48.672 26.2955 48.4775 26.255 48.3107 26.1742C48.1465 26.0933 48.01 25.9847 47.9014 25.8482C47.7927 25.7092 47.7106 25.5551 47.655 25.3858C47.602 25.214 47.5754 25.0384 47.5754 24.859C47.5754 24.6796 47.602 24.504 47.655 24.3322C47.7106 24.1603 47.7927 24.0062 47.9014 23.8698C48.0126 23.7308 48.1515 23.6209 48.3183 23.54C48.4851 23.4566 48.6809 23.415 48.9058 23.415C49.0801 23.415 49.2305 23.4377 49.3568 23.4832C49.4831 23.5261 49.5893 23.583 49.6752 23.6537C49.7611 23.722 49.8293 23.7952 49.8798 23.8736C49.9329 23.9519 49.9733 24.0264 50.0011 24.0972C50.0289 24.1654 50.0466 24.2223 50.0542 24.2677C50.0643 24.3107 50.0693 24.3322 50.0693 24.3322H49.7737C49.7737 24.3322 49.7674 24.3107 49.7548 24.2677C49.7447 24.2248 49.7232 24.1705 49.6903 24.1048C49.6575 24.0391 49.6095 23.9746 49.5463 23.9115C49.4831 23.8458 49.3985 23.7914 49.2924 23.7485C49.1888 23.7055 49.0599 23.6841 48.9058 23.6841C48.7314 23.6841 48.5786 23.7169 48.4472 23.7826C48.3183 23.8483 48.2109 23.938 48.125 24.0517C48.0391 24.1629 47.9747 24.2879 47.9317 24.4269C47.8888 24.5659 47.8673 24.7074 47.8673 24.8514C47.8673 25.0005 47.8888 25.1458 47.9317 25.2873C47.9747 25.4263 48.0391 25.5513 48.125 25.6625C48.2109 25.7737 48.3183 25.8621 48.4472 25.9278C48.576 25.9935 48.7251 26.0264 48.8944 26.0264C49.089 26.0264 49.2545 25.9872 49.3909 25.9089C49.5299 25.828 49.636 25.7156 49.7093 25.5715C49.7826 25.4275 49.8192 25.2607 49.8192 25.0712H48.9361V24.8249H50.0997V25.0144C50.0997 25.2797 50.0491 25.5084 49.9481 25.7004C49.847 25.8924 49.7055 26.0403 49.5236 26.1438C49.3416 26.2449 49.1319 26.2955 48.8944 26.2955ZM51.253 26.2955C51.0534 26.2955 50.8942 26.231 50.7754 26.1022C50.6567 25.9733 50.5973 25.7939 50.5973 25.564V24.2488H50.8816V25.5526C50.8816 25.7092 50.9207 25.8305 50.9991 25.9164C51.0774 26.0024 51.1848 26.0453 51.3212 26.0453C51.4551 26.0453 51.5625 26.0099 51.6434 25.9392C51.7242 25.8659 51.7823 25.7749 51.8177 25.6663C51.8556 25.5551 51.8746 25.4401 51.8746 25.3214V24.2488H52.1588V26.2576H51.8746V25.9278H51.8556C51.8379 25.9632 51.8064 26.0112 51.7609 26.0718C51.7154 26.13 51.6522 26.1818 51.5714 26.2272C51.4905 26.2727 51.3844 26.2955 51.253 26.2955ZM52.9113 23.8622C52.8532 23.8622 52.8051 23.842 52.7672 23.8015C52.7293 23.7611 52.7104 23.7144 52.7104 23.6613C52.7104 23.6057 52.7293 23.559 52.7672 23.5211C52.8051 23.4806 52.8532 23.4604 52.9113 23.4604C52.9669 23.4604 53.0136 23.4806 53.0515 23.5211C53.0919 23.559 53.1121 23.6057 53.1121 23.6613C53.1121 23.7169 53.0919 23.7649 53.0515 23.8053C53.0136 23.8432 52.9669 23.8622 52.9113 23.8622ZM52.771 26.2576V24.2488H53.0553V26.2576H52.771ZM54.5223 26.2955C54.3706 26.2955 54.238 26.2664 54.1243 26.2083C54.0106 26.1476 53.9158 26.068 53.84 25.9695C53.7642 25.8684 53.7074 25.756 53.6695 25.6322C53.6341 25.5084 53.6164 25.382 53.6164 25.2532C53.6164 25.1243 53.6341 24.998 53.6695 24.8742C53.7074 24.7503 53.7642 24.6392 53.84 24.5406C53.9158 24.4396 54.0106 24.36 54.1243 24.3018C54.238 24.2412 54.3706 24.2109 54.5223 24.2109C54.6612 24.2109 54.7762 24.2349 54.8672 24.2829C54.9581 24.3284 55.0301 24.3827 55.0832 24.4459C55.1388 24.509 55.1792 24.5634 55.2045 24.6088H55.2272V23.3771H55.5077V26.2576H55.2272V25.8975H55.2045C55.1792 25.9455 55.1388 26.0011 55.0832 26.0643C55.0301 26.1249 54.9581 26.1792 54.8672 26.2272C54.7762 26.2727 54.6612 26.2955 54.5223 26.2955ZM54.5639 26.0491C54.7105 26.0491 54.8318 26.0099 54.9278 25.9316C55.0263 25.8533 55.0996 25.7535 55.1476 25.6322C55.1982 25.5109 55.2234 25.3846 55.2234 25.2532C55.2234 25.1218 55.1982 24.9954 55.1476 24.8742C55.0996 24.7529 55.0263 24.6531 54.9278 24.5747C54.8318 24.4964 54.7105 24.4572 54.5639 24.4572C54.4149 24.4572 54.2911 24.4964 54.1925 24.5747C54.094 24.6531 54.0207 24.7529 53.9727 24.8742C53.9247 24.9954 53.9007 25.1218 53.9007 25.2532C53.9007 25.3846 53.9247 25.5109 53.9727 25.6322C54.0207 25.7535 54.094 25.8533 54.1925 25.9316C54.2911 26.0099 54.4149 26.0491 54.5639 26.0491ZM56.9954 26.2955C56.8337 26.2955 56.6935 26.2664 56.5747 26.2083C56.456 26.1476 56.3587 26.0668 56.2829 25.9657C56.2071 25.8646 56.1502 25.7522 56.1123 25.6284C56.077 25.5046 56.0593 25.3795 56.0593 25.2532C56.0593 25.1268 56.077 25.0018 56.1123 24.8779C56.1502 24.7541 56.2071 24.6417 56.2829 24.5406C56.3587 24.4396 56.4534 24.36 56.5671 24.3018C56.6834 24.2412 56.8211 24.2109 56.9803 24.2109C57.147 24.2109 57.2949 24.25 57.4237 24.3284C57.5551 24.4067 57.6574 24.5229 57.7307 24.6771C57.8065 24.8287 57.8444 25.0194 57.8444 25.2494V25.3328H56.3473C56.3524 25.4616 56.3802 25.5804 56.4307 25.689C56.4838 25.7977 56.557 25.8849 56.6505 25.9506C56.7465 26.0162 56.8615 26.0491 56.9954 26.0491C57.1066 26.0491 57.1988 26.0301 57.2721 25.9922C57.3454 25.9518 57.401 25.9063 57.4389 25.8558C57.4793 25.8027 57.5071 25.7573 57.5223 25.7194C57.5399 25.6815 57.5488 25.6625 57.5488 25.6625H57.8179C57.8179 25.6625 57.8116 25.684 57.7989 25.7269C57.7863 25.7674 57.7636 25.8192 57.7307 25.8823C57.6979 25.9455 57.6499 26.0087 57.5867 26.0718C57.5261 26.135 57.4477 26.1881 57.3517 26.231C57.2557 26.274 57.1369 26.2955 56.9954 26.2955ZM56.3511 25.1054H57.5602C57.5526 24.9512 57.521 24.8274 57.4654 24.7339C57.4123 24.6379 57.3429 24.5684 57.257 24.5255C57.171 24.4825 57.0788 24.461 56.9803 24.461C56.8009 24.461 56.6556 24.5204 56.5444 24.6392C56.4332 24.7554 56.3688 24.9108 56.3511 25.1054Z" fill="#843E1E"/>
<path d="M32.0273 6.8952C32.7 6.8952 33.2045 7.03592 33.722 7.30457L33.5667 7.586C33.2045 7.36853 32.6741 7.18943 32.0661 7.18943C31.4581 7.18943 31.3288 7.25339 31.1735 7.54762C31.0183 7.80347 31.1735 8.13608 31.6392 8.30238L32.9846 8.81409C34.0195 9.21065 34.3558 10.1061 33.9936 10.7841C33.7349 11.347 33.0622 11.782 32.0144 11.782C30.9666 11.782 30.4491 11.4494 30.0352 10.9504L30.268 10.733C30.7078 11.1551 31.277 11.4749 32.0144 11.4749C32.7518 11.4749 32.9199 11.2831 33.0881 11.0144C33.308 10.6178 33.0881 10.0933 32.3766 9.8247L30.9795 9.3002C30.1516 8.99318 29.8799 8.32797 30.1386 7.75231C30.3586 7.29177 30.9795 6.8952 32.0144 6.8952" fill="#843E1E"/>
<path d="M36.4382 5.51361V6.908H37.7836V7.21502H36.4382V10.5667C36.4382 11.0272 36.6193 11.3854 37.1109 11.3854C37.6025 11.3854 37.5637 11.3214 37.8095 11.2063L37.913 11.5389C37.5637 11.6924 37.1497 11.7948 36.7616 11.8075C35.9855 11.8075 35.2869 11.3982 35.2869 10.3748V7.21502H34.5625V6.908C35.5198 6.908 35.869 6.47305 35.869 5.51361H36.4512H36.4382Z" fill="#843E1E"/>
<path d="M41.4287 6.8952C41.9074 6.8952 42.192 7.09988 42.4507 7.4069L41.6228 8.26401C41.4029 7.89302 41.0148 7.68834 40.7302 7.68834C40.4456 7.68834 40.1093 7.89302 39.8635 8.08491V11.8075H38.6992V6.908H39.2813C39.5918 6.908 39.8635 7.16385 39.8635 7.48366V7.72672C40.3421 7.33015 40.7949 6.908 41.4287 6.908" fill="#843E1E"/>
<path d="M45.3627 6.8952C46.7339 6.8952 47.8464 7.99536 47.8464 9.35137C47.8464 10.7074 46.7339 11.8075 45.3627 11.8075C43.9914 11.8075 42.8789 10.7074 42.8789 9.35137C42.8789 7.99536 43.9914 6.8952 45.3627 6.8952ZM43.8232 7.81627C43.3058 8.32797 43.5775 9.42813 44.4312 10.2596C44.9875 10.8097 45.6472 11.104 46.1906 11.104C46.7339 11.104 46.708 11.0272 46.9021 10.8481C47.4195 10.3364 47.1478 9.23624 46.2941 8.39193C45.7378 7.84185 45.0781 7.56042 44.5477 7.56042C44.0173 7.56042 44.0173 7.63717 43.8362 7.81627" fill="#843E1E"/>
<path d="M33.0108 15.3383C33.4894 15.3383 33.774 15.543 34.0327 15.85L33.2048 16.7071C32.9849 16.3361 32.5968 16.1315 32.3122 16.1315C32.0276 16.1315 31.6913 16.3361 31.4455 16.528V20.2507H30.2812V15.3511H30.8634C31.1738 15.3511 31.4455 15.607 31.4455 15.9268V16.1698C31.9241 15.7733 32.3769 15.3511 33.0108 15.3511" fill="#843E1E"/>
<path d="M35.8037 15.3383V18.7795C35.8037 19.368 36.1141 19.5727 36.4893 19.5727C36.8644 19.5727 37.3301 19.304 37.6794 19.061V15.3383H38.8307V20.2379H38.2486C37.9123 20.2379 37.6665 19.982 37.6665 19.6622V19.4319C37.149 19.8285 36.4763 20.2379 35.7907 20.2379C35.1051 20.2379 34.6523 19.8925 34.6523 19.0354V15.3383H35.8037Z" fill="#843E1E"/>
<path d="M42.8398 15.3383C43.5124 15.3383 43.9781 15.6837 43.9781 16.528V20.2379H42.8268V16.7839C42.8268 16.1954 42.5293 16.0035 42.1541 16.0035C41.779 16.0035 41.1451 16.2722 40.8088 16.5152V20.2379H39.6445V15.3383H40.2267C40.5501 15.3383 40.8088 15.5942 40.8088 15.914V16.157C41.3133 15.7477 42.1541 15.3383 42.8398 15.3383Z" fill="#843E1E"/>
<path d="M51.3804 13.381C52.4929 13.381 53.4113 14.2765 53.4113 15.3894C53.4113 16.5024 52.4929 17.3851 51.3804 17.3851H49.634V20.2378H48.418V13.3682H51.3933L51.3804 13.381ZM49.621 13.688V17.0653H50.4748C51.4192 17.0653 52.1695 16.3105 52.1695 15.3894C52.1695 14.4684 51.4062 13.7008 50.4748 13.7008H49.621V13.688Z" fill="#843E1E"/>
<path d="M56.2163 15.3383C57.4194 15.3383 58.105 15.7605 58.105 16.7583V20.2507H57.5229L56.9408 19.675C56.4751 20.0076 55.7894 20.2507 55.2202 20.2507C54.6511 20.2507 53.9008 19.7262 53.8102 19.1249C53.7197 18.4213 54.2888 17.7817 55.2073 17.4491L56.5139 16.963C56.9149 16.8095 57.1607 16.5664 57.1607 16.2594C57.1607 15.9524 56.8761 15.6837 56.488 15.6837C55.9188 15.6837 55.2849 16.2722 54.6122 16.9246L54.0301 15.8116C54.6122 15.543 55.5048 15.3511 56.1905 15.3511M56.9666 19.3424V17.0781L55.9447 17.4747C55.3367 17.7305 54.8968 18.2934 54.9615 18.8691C55.0133 19.3936 55.466 19.6494 55.9705 19.6494C56.4751 19.6494 56.7338 19.5343 56.9796 19.3296L56.9666 19.3424Z" fill="#843E1E"/>
<path d="M62.1015 15.3383C62.7742 15.3383 63.2399 15.6837 63.2399 16.528V20.2379H62.0886V16.7839C62.0886 16.1954 61.791 16.0035 61.4159 16.0035C61.0407 16.0035 60.4068 16.2722 60.0705 16.5152V20.2379H58.9062V15.3383H59.4884C59.8118 15.3383 60.0705 15.5942 60.0705 15.914V16.157C60.575 15.7477 61.4159 15.3383 62.1015 15.3383Z" fill="#843E1E"/>
<path d="M66.3438 15.3382C66.8483 15.3382 67.2752 15.5557 67.5469 15.8371V13.381H68.129C68.4524 13.381 68.7112 13.6368 68.7112 13.9566V20.2506H68.129L67.5469 19.7517C67.3529 19.9436 66.8613 20.2506 66.2662 20.2506C64.882 20.2506 64.1706 19.24 64.0929 18.1142C64.0024 16.771 64.7915 15.351 66.3438 15.351M66.4732 15.6964C65.6453 15.6964 65.2572 16.6431 65.2443 17.6281C65.2443 18.6643 65.697 19.7773 66.5896 19.79H66.6155C66.9777 19.79 67.3141 19.6237 67.534 19.3039V16.6559C67.3787 16.029 66.913 15.6964 66.4603 15.6836" fill="#843E1E"/>
<path d="M70.1742 13.5601C70.5364 13.5601 70.8339 13.8288 70.8339 14.1997C70.8339 14.5707 70.5493 14.8394 70.1742 14.8394C69.799 14.8394 69.5273 14.5707 69.5273 14.1997C69.5273 13.8288 69.8119 13.5601 70.1742 13.5601ZM69.605 15.3383H70.1742C70.5105 15.3383 70.7563 15.5813 70.7563 15.9139V20.2506H69.6179V15.3511L69.605 15.3383Z" fill="#843E1E"/>
<path d="M73.5242 13.9567V15.3511H74.8695V15.6581H73.5242V19.0097C73.5242 19.4703 73.7053 19.8284 74.1969 19.8284C74.6884 19.8284 74.6496 19.7645 74.8954 19.6494L74.9989 19.982C74.6496 20.1355 74.2357 20.2378 73.8476 20.2506C73.0714 20.2506 72.3729 19.8412 72.3729 18.8178V15.6581H71.6484V15.3511C72.6057 15.3511 72.955 14.9161 72.955 13.9567H73.5371H73.5242Z" fill="#843E1E"/>
<path d="M28.2994 11.7947H29.6447L26.7858 5.25775C26.7341 5.12982 26.553 5.12982 26.5012 5.25775L23.707 11.7947H24.0692L24.9618 9.65839H27.3809L28.2994 11.7947ZM25.1041 9.33857L26.152 6.85682L27.2257 9.35137H25.1041V9.33857Z" fill="#843E1E"/>
<path d="M28.2994 20.2379H29.6447L26.7858 13.7009C26.7341 13.5729 26.553 13.5729 26.5012 13.7009L23.707 20.2379H24.0692L24.9618 18.1015H27.3809L28.2994 20.2379ZM25.1041 17.7817L26.152 15.2999L27.2257 17.7945H25.1041V17.7817Z" fill="#843E1E"/>
<path d="M15.015 6.79285C14.9632 6.71609 14.7951 6.49862 14.7433 6.42186C13.9283 5.29612 12.1561 5.34729 11.3929 6.48582C11.2506 6.67771 11.16 6.94636 11.0565 7.13824C10.8754 7.5604 9.33601 11.8459 7.14979 14.1102C6.83933 13.8927 6.38656 13.6113 6.03729 13.4706C7.4732 12.4855 8.17175 10.8481 7.91303 9.87585C7.73192 9.19784 7.08511 8.66056 6.38656 8.5838C5.05413 8.40471 3.65702 8.85245 2.69975 9.7863C1.75541 10.669 1.2509 11.9994 1.3932 13.2659C1.3932 10.733 3.76052 8.68614 6.28307 9.19785C6.77464 9.28739 7.16273 9.67117 7.20154 10.1573C7.20154 10.4003 7.1498 10.669 7.04631 10.8865C6.5806 12.0122 5.54571 12.8821 4.35558 13.1507C3.91575 13.2915 3.88988 13.9439 4.32971 14.1102C4.42026 14.1358 5.40341 14.1997 6.37362 14.9673C5.44222 16.1826 3.69584 17.1292 0.811071 18.6387C0.591156 18.7539 0.410049 18.9074 0.280687 19.1121C-0.120334 19.6622 -0.0815266 20.4425 0.332431 20.967C2.06588 23.1673 5.42928 23.4871 7.55081 21.6322C9.54298 19.982 9.85345 16.9757 8.37873 14.9417C10.4615 12.7286 12.6218 7.44527 12.6865 7.34293C12.8546 7.07428 13.2815 7.02311 13.5144 7.26617C15.9335 10.1317 17.0072 13.8671 17.1753 17.5514C17.3694 21.709 15.9723 26.9539 14.8856 28.4634C13.0487 30.9964 10.6167 28.7705 12.6218 26.4294C10.138 28.7705 13.0875 31.6616 15.3643 28.8216C17.0718 26.6853 21.4701 15.479 15.0279 6.78005M4.65311 14.123H4.67899C4.65312 14.123 4.64017 14.123 4.64017 14.123M7.66724 18.0503C7.48613 21.1973 3.51473 22.5021 1.44495 20.0843C1.44495 20.0587 1.41907 20.0459 1.41907 20.0203V19.982C1.41907 19.9564 1.44494 19.918 1.47081 19.8924C1.98826 19.6366 2.58332 19.3807 3.15251 19.0737C4.31677 18.4341 5.32579 17.7944 6.30894 16.9245C6.56767 16.6943 6.91694 16.3745 7.17567 16.1186C7.57669 16.7327 7.70605 17.3083 7.66724 18.0375" fill="#843E1E"/>
<path d="M9.35063 5.27054C9.40238 6.12764 8.7297 6.86961 7.86297 6.92078C6.99625 6.97195 6.24595 6.30674 6.1942 5.44964C6.14246 4.59254 6.81514 3.85057 7.68186 3.7994C8.54859 3.74823 9.29889 4.41344 9.35063 5.27054Z" fill="#843E1E"/>
<path d="M5.67598 1.86775C5.65011 1.82938 5.58543 1.81658 5.54662 1.84217C5.52075 1.84217 5.52075 1.86775 5.50781 1.89334C5.50781 1.91892 5.50781 1.93171 5.50781 1.9573L6.55565 3.45403C6.58152 3.47962 6.60739 3.49241 6.64619 3.47961H6.67207C6.69794 3.47961 6.69794 3.45403 6.71087 3.42844C6.71087 3.40286 6.71087 3.39007 6.71087 3.36448L5.66305 1.86775H5.67598Z" fill="#843E1E"/>
<path d="M3.7607 1.52236C3.73483 1.49678 3.67015 1.49678 3.63134 1.52236C3.60547 1.54795 3.60547 1.56074 3.60547 1.58633C3.60547 1.61191 3.60547 1.6247 3.63134 1.65029L6.08921 3.85061C6.11509 3.87619 6.14096 3.87619 6.16684 3.87619H6.1927C6.21857 3.85061 6.21858 3.82502 6.21858 3.79944C6.21858 3.77385 6.21857 3.76106 6.1927 3.73547L3.73483 1.53516H3.7607V1.52236Z" fill="#843E1E"/>
<path d="M11.9992 1.38155C11.9733 1.35597 11.9086 1.35597 11.8698 1.38155L9.32137 3.72259C9.2955 3.74818 9.28256 3.81214 9.32137 3.83773C9.34724 3.86331 9.37312 3.8761 9.39899 3.86331C9.42486 3.86331 9.42486 3.86331 9.4378 3.83773L11.9862 1.49669C12.0121 1.4711 12.0121 1.45831 12.0121 1.43272C12.0121 1.40714 12.0121 1.39435 11.9862 1.36876L11.9992 1.38155Z" fill="#843E1E"/>
<path d="M9.98339 1.79096C9.98339 1.76538 9.95751 1.75258 9.94457 1.73979C9.90577 1.71421 9.85403 1.73979 9.82815 1.77817L8.87087 3.40282C8.845 3.42841 8.87087 3.47958 8.87087 3.50516L8.89675 3.53075H8.9485C8.97437 3.53075 9.00024 3.50516 9.01318 3.49237L9.97045 1.86772C9.97045 1.84213 9.97045 1.82934 9.97045 1.80375L9.98339 1.79096Z" fill="#843E1E"/>
<path d="M5.59702 4.7077L2.22068 3.88898C2.18187 3.88898 2.13012 3.88898 2.11719 3.95294V4.0169C2.11719 4.04249 2.14306 4.04249 2.16894 4.05528L5.54527 4.87401H5.58409C5.60996 4.87401 5.64876 4.84842 5.6617 4.81004C5.6617 4.75887 5.63583 4.72049 5.59702 4.7077Z" fill="#843E1E"/>
<path d="M4.19945 3.23655C4.16065 3.21096 4.1089 3.23655 4.07009 3.26214C4.07009 3.28772 4.04422 3.30051 4.07009 3.3261C4.07009 3.35168 4.09596 3.36448 4.1089 3.37727L5.73885 4.3495C5.76473 4.3495 5.77766 4.3495 5.80353 4.3495C5.82941 4.3495 5.84235 4.32392 5.85528 4.32392V4.29833C5.85528 4.25996 5.85528 4.22158 5.81648 4.20878L4.18651 3.23655H4.19945Z" fill="#843E1E"/>
<path d="M9.46651 0.0383761C9.46651 0.012791 9.44064 0.0127926 9.41477 0C9.37596 0 9.32421 0.0255851 9.31128 0.0639628L8.32812 3.19814C8.32812 3.23652 8.32813 3.28768 8.37987 3.30048H8.43162C8.45749 3.30048 8.4963 3.27489 8.50923 3.23651L9.49238 0.102339V0.0383761H9.46651Z" fill="#843E1E"/>
<path d="M7.75852 1.24091C7.70678 1.24091 7.66797 1.27928 7.66797 1.33046L7.71972 3.13421C7.71972 3.17258 7.74559 3.21096 7.7844 3.22375H7.8232C7.86201 3.22375 7.90082 3.18538 7.90082 3.13421L7.84908 1.33046C7.84908 1.30487 7.84908 1.29208 7.8232 1.26649C7.79733 1.24091 7.7844 1.24091 7.75852 1.24091Z" fill="#843E1E"/>
<path d="M6.333 0.0383369C6.30713 0.0383369 6.29419 0.0639244 6.28125 0.0767169C6.28125 0.102302 6.28125 0.115095 6.28125 0.14068L7.13504 3.21089C7.13504 3.24927 7.18678 3.27486 7.22559 3.27486C7.25146 3.27486 7.2644 3.24927 7.27734 3.23648C7.27734 3.21089 7.27734 3.1981 7.27734 3.17251L6.42355 0.1023C6.42355 0.063922 6.35887 0.0255444 6.32006 0.0383369H6.333Z" fill="#843E1E"/>
</svg>
