<svg width="236" height="29" viewBox="0 0 236 29" fill="none" xmlns="http://www.w3.org/2000/svg">
<path d="M62.2589 27.0825C62.929 28.004 64.2161 28.5323 65.7917 28.5323C66.6711 28.5323 67.5665 28.3642 68.2507 28.0711C69.9374 27.3507 71.0552 25.6867 70.9691 24.0248C70.921 23.0823 70.4292 22.1448 69.651 21.5184C68.9338 20.9421 68.0834 20.7019 67.2611 20.838C67.0758 20.868 66.9135 20.9691 66.8043 21.1212C66.6951 21.2733 66.6521 21.4593 66.6811 21.6444C66.7122 21.8326 66.8153 21.9967 66.9696 22.1057C67.1218 22.2128 67.3061 22.2558 67.4884 22.2238C67.9231 22.1547 68.3729 22.2938 68.7685 22.613C69.2393 22.9912 69.5368 23.5465 69.5648 24.0968C69.6189 25.1654 68.8346 26.2941 67.6988 26.7804C66.4928 27.2946 64.155 27.3016 63.3958 26.2571C62.4222 24.9173 62.1507 22.669 62.3891 21.2332C62.6716 19.5293 63.6422 17.9764 65.0515 16.9728C65.9299 16.3485 67.0127 15.8922 68.459 15.537C72.6548 14.5105 77.2273 15.0097 81.0054 16.9028C82.7102 17.7573 84.3479 18.8299 85.9325 19.8665C86.0416 19.9375 86.1528 20.0085 86.262 20.0796C86.1819 20.0816 86.1007 20.0826 86.0216 20.0846C84.406 20.1376 82.7563 20.5738 81.1186 21.3813C80.8953 21.4914 80.746 21.7145 80.728 21.9646C80.7109 22.2138 80.8312 22.4549 81.0375 22.594C82.4358 23.5335 84.1405 24.0518 85.8373 24.0518C85.9024 24.0518 85.9655 24.0508 86.0276 24.0488C87.2987 24.0198 88.4115 23.6306 89.4933 23.2524C89.9129 23.1063 90.3456 22.9552 90.7804 22.8291C90.9817 22.9292 91.188 23.0132 91.3984 23.0843C91.811 23.2824 92.2207 23.4835 92.6474 23.6566C97.2579 25.5306 102.59 25.6357 107.268 23.9477C108.896 23.3614 110.438 22.545 111.866 21.5614C111.981 21.5244 112.088 21.4694 112.172 21.3793C112.182 21.3683 112.19 21.3543 112.2 21.3433C114.406 19.7614 116.287 17.7353 117.712 15.431C120.117 19.3201 123.854 22.3969 128.156 23.9468C132.836 25.6357 138.165 25.5296 142.777 23.6556C143.367 23.4155 143.942 23.1483 144.505 22.8631C144.906 22.9832 145.305 23.1183 145.69 23.2524C146.766 23.6286 147.88 24.0178 149.149 24.0468C149.213 24.0488 149.277 24.0498 149.342 24.0498C151.037 24.0498 152.743 23.5315 154.14 22.592C154.347 22.4529 154.466 22.2118 154.45 21.9616C154.432 21.7125 154.283 21.4894 154.059 21.3793C152.421 20.5719 150.772 20.1356 149.155 20.0826H149.153C149.266 20.0096 149.381 19.9365 149.492 19.8625C151.077 18.8259 152.716 17.7543 154.418 16.8998C158.197 15.0057 162.771 14.5084 166.963 15.534C168.41 15.8882 169.493 16.3445 170.372 16.9698C171.781 17.9734 172.752 19.5263 173.034 21.2302C173.274 22.665 173.003 24.9133 172.029 26.2541C171.267 27.2986 168.934 27.2936 167.726 26.7783C166.589 26.2921 165.805 25.1635 165.859 24.0939C165.887 23.5425 166.184 22.9882 166.655 22.61C167.05 22.2918 167.499 22.1547 167.933 22.2198C168.114 22.2498 168.302 22.2078 168.454 22.1017C168.608 21.9916 168.711 21.8286 168.742 21.6415C168.771 21.4563 168.728 21.2712 168.619 21.1181C168.51 20.9661 168.348 20.865 168.162 20.835C167.338 20.7009 166.489 20.9401 165.772 21.5154C164.995 22.1417 164.502 23.0793 164.455 24.0218C164.371 25.6847 165.49 27.3487 167.175 28.0691C167.859 28.3612 168.754 28.5293 169.633 28.5293C171.208 28.5293 172.495 28.001 173.165 27.0795C174.377 25.4116 174.715 22.7591 174.423 20.9991C174.077 18.9289 172.897 17.0429 171.188 15.8262C170.176 15.1038 168.904 14.5625 167.298 14.1702C162.782 13.0666 157.857 13.6039 153.788 15.6461C152.01 16.5386 150.338 17.6312 148.722 18.6888C148.268 18.986 147.809 19.2841 147.347 19.5793C147.986 18.4997 148.465 17.271 148.769 15.9102C148.823 15.6661 148.742 15.4099 148.557 15.2409C148.374 15.0728 148.114 15.0157 147.873 15.0878C146.199 15.6091 144.685 16.6647 143.612 18.0645C142.84 19.072 142.445 20.1826 142.064 21.2572C141.924 21.6545 141.764 22.1037 141.584 22.535C141.576 22.553 141.576 22.573 141.57 22.592C137.438 24.0848 132.769 24.1159 128.633 22.626C127.216 22.1147 125.871 21.4113 124.614 20.5748C124.587 20.5238 124.564 20.4698 124.523 20.4258C124.054 19.9175 123.753 19.1751 123.628 18.2205C123.39 16.4095 123.854 14.5114 124.899 13.0106C125.626 11.968 126.587 11.1996 127.604 10.8454C128.705 10.4612 129.931 10.5742 130.805 11.1366C131.708 11.7189 132.229 12.8435 132.041 13.8091C131.849 14.7906 130.862 15.5701 129.956 15.481C129.507 15.44 129.065 15.1638 128.772 14.7406C128.511 14.3614 128.421 13.9311 128.525 13.5589C128.629 13.1867 128.411 12.7985 128.037 12.6944C127.66 12.5894 127.275 12.8105 127.172 13.1817C126.955 13.9551 127.116 14.8136 127.615 15.537C128.14 16.2995 128.967 16.8017 129.828 16.8808C131.467 17.0279 133.091 15.7652 133.421 14.0772C133.718 12.5473 132.955 10.8514 131.566 9.95688C130.322 9.15443 128.666 8.99036 127.141 9.52066C125.845 9.97091 124.64 10.9254 123.745 12.2081C122.502 13.9911 121.951 16.2494 122.233 18.4036C122.25 18.5347 122.282 18.6518 122.305 18.7778C121.637 18.1705 121.008 17.5211 120.431 16.8277C121.533 15.8302 122.148 14.2973 121.989 12.8215C121.968 12.6234 121.93 12.4293 121.882 12.2372C123.377 11.3817 127.853 8.47906 128.256 6.00367C128.375 5.27926 128.162 4.6259 127.643 4.11162C127.205 3.67637 126.626 3.47226 125.971 3.52529C124.034 3.67937 121.549 6.16277 120.086 7.82971C120.26 5.78656 120.332 2.17651 118.881 0.689679C118.362 0.161382 117.699 -0.0677434 116.948 0.0173044C116.076 0.118361 115.38 0.556624 114.879 1.32205C113.825 2.92996 113.918 5.68951 114.205 7.73065C113.729 7.23738 113.234 6.76411 112.739 6.29885C111.685 5.31029 110.492 4.18966 108.921 3.7274C108.013 3.45925 107.218 3.61134 106.74 4.14264C106.386 4.54086 106.251 5.10816 106.349 5.78254C106.553 7.17232 107.498 8.28597 108.191 9.00337C108.428 9.24851 108.68 9.47663 108.931 9.70576C108.793 9.64573 108.659 9.56868 108.519 9.51965C106.995 8.98936 105.343 9.15145 104.095 9.9559C102.704 10.8524 101.943 12.5463 102.239 14.0762C102.567 15.7631 104.166 17.0118 105.833 16.8798C106.692 16.8007 107.52 16.2985 108.043 15.536C108.543 14.8126 108.705 13.9551 108.488 13.1807C108.384 12.8095 108 12.5874 107.623 12.6934C107.249 12.7975 107.031 13.1857 107.135 13.5579C107.238 13.9301 107.149 14.3604 106.888 14.7396C106.595 15.1628 106.153 15.439 105.703 15.48C104.774 15.5731 103.81 14.7876 103.619 13.808C103.431 12.8425 103.952 11.7189 104.855 11.1356C105.728 10.5722 106.954 10.4602 108.055 10.8444C109.072 11.1986 110.033 11.967 110.76 13.0096C111.806 14.5085 112.269 16.4085 112.033 18.2195C111.918 19.101 111.645 19.7914 111.236 20.2937C109.861 21.2613 108.366 22.0557 106.788 22.625C102.561 24.1489 97.7707 24.0868 93.5739 22.4939C93.4016 22.0757 93.2464 21.6415 93.1092 21.2512C92.7285 20.1786 92.3349 19.069 91.5626 18.0635C90.4899 16.6647 88.9764 15.6081 87.3017 15.0868C87.0643 15.0167 86.8029 15.0708 86.6166 15.2398C86.4323 15.4089 86.3511 15.6651 86.4052 15.9092C86.6857 17.1689 87.1214 18.3106 87.6913 19.3302C87.3588 19.115 87.0242 18.8999 86.6947 18.6838C85.0791 17.6262 83.4074 16.5336 81.6335 15.6441C77.5628 13.6019 72.6388 13.0646 68.1225 14.1683C66.5199 14.5615 65.2478 15.1028 64.2331 15.8242C62.5234 17.0399 61.3434 18.9259 60.9979 20.9971C60.7104 22.7631 61.0489 25.4166 62.2589 27.0825ZM89.0385 21.9246L89.0205 21.9316C88.0028 22.2868 87.0423 22.622 85.9956 22.645C85.0079 22.689 83.9963 22.4849 83.0468 22.0867C84.0664 21.7225 85.0821 21.5214 86.0697 21.4894C86.7999 21.4633 87.5691 21.4524 88.2793 21.5914C88.5367 21.6415 88.8031 21.7785 89.0385 21.9246ZM91.0217 21.3233C90.4879 20.862 90.0211 20.2717 89.5934 19.7014C88.9985 18.9109 88.5207 17.9944 88.1661 16.9728C89.0555 17.4551 89.8398 18.1235 90.4498 18.9199C91.0849 19.7474 91.4244 20.7029 91.784 21.7155C91.5276 21.5904 91.2742 21.4584 91.0217 21.3233ZM126.657 5.11016C126.852 5.30427 126.917 5.50538 126.872 5.77854C126.612 7.37343 123.063 9.94989 121.34 10.9384C121.065 10.4862 120.712 10.084 120.306 9.74576C121.529 8.2059 124.434 5.05814 126.084 4.92607C126.333 4.91106 126.51 4.96508 126.657 5.11016ZM118.332 13.735C118.322 13.716 118.304 13.705 118.292 13.687C118.265 13.646 118.235 13.6109 118.2 13.5759C118.168 13.5439 118.136 13.5159 118.099 13.4919C118.079 13.4789 118.066 13.4589 118.045 13.4468C118.022 13.4348 117.997 13.4348 117.974 13.4258C117.933 13.4088 117.892 13.3978 117.849 13.3888C117.803 13.3798 117.758 13.3748 117.712 13.3748C117.668 13.3748 117.625 13.3798 117.581 13.3888C117.536 13.3978 117.493 13.4098 117.451 13.4279C117.428 13.4369 117.404 13.4369 117.382 13.4489C117.361 13.4599 117.349 13.4799 117.33 13.4919C117.293 13.5169 117.259 13.5449 117.227 13.5769C117.192 13.6119 117.161 13.647 117.135 13.688C117.123 13.706 117.106 13.717 117.096 13.736C116.612 14.6385 116.04 15.491 115.413 16.3025C114.659 15.5841 114.192 14.5805 114.18 13.5349C114.168 12.5774 114.541 11.6308 115.176 11.0025C115.232 10.9464 115.297 10.8994 115.358 10.8484C115.463 10.8374 115.566 10.8094 115.66 10.7493C115.764 10.6823 115.835 10.5872 115.89 10.4852C116.682 10.07 117.66 9.98092 118.498 10.2841C119.624 10.6953 120.468 11.7769 120.597 12.9756C120.705 13.9722 120.303 15.0037 119.579 15.7041C119.125 15.0698 118.7 14.4194 118.332 13.735ZM118.566 8.84829C117.667 8.61816 116.712 8.66418 115.845 8.97235C115.392 6.99724 115.074 3.59433 116.057 2.09348C116.323 1.68826 116.668 1.46612 117.113 1.41509C117.43 1.37707 117.666 1.45711 117.877 1.67223C118.949 2.76984 118.87 6.62003 118.566 8.84829ZM114.184 10.0039C113.861 10.3241 113.609 10.7043 113.391 11.1065C111.834 10.3181 110.423 9.28652 109.205 8.02782C108.307 7.0993 107.856 6.34386 107.744 5.58144C107.703 5.29928 107.745 5.13418 107.793 5.08015C107.871 4.9931 108.147 4.96608 108.527 5.07615C109.782 5.44635 110.846 6.44792 111.787 7.33141C112.655 8.14787 113.538 8.99436 114.258 9.94189C114.234 9.9639 114.206 9.98092 114.184 10.0039ZM114.498 17.3891C114.15 17.7753 113.789 18.1465 113.411 18.5037C113.416 18.4697 113.425 18.4396 113.43 18.4056C113.536 17.5982 113.525 16.7767 113.404 15.9703C113.686 16.5006 114.054 16.9818 114.498 17.3891ZM146.901 21.5914C147.61 21.4524 148.382 21.4643 149.111 21.4894C150.099 21.5204 151.115 21.7215 152.133 22.0867C151.192 22.4809 150.167 22.674 149.184 22.645C148.153 22.622 147.202 22.2948 146.195 21.9436C146.339 21.8596 146.479 21.7705 146.622 21.6845C146.714 21.6475 146.808 21.6094 146.901 21.5914ZM143.387 21.7415L143.392 21.7275C143.751 20.7109 144.091 19.7514 144.73 18.9199C145.34 18.1235 146.125 17.4551 147.013 16.9728C146.658 17.9944 146.181 18.9109 145.587 19.7014C145.148 20.2847 144.673 20.893 144.123 21.3583C143.922 21.5274 143.654 21.6475 143.387 21.7415ZM112.891 12.4343C112.814 12.7985 112.767 13.1707 112.771 13.5509C112.772 13.637 112.783 13.722 112.789 13.808C112.553 13.2477 112.265 12.7094 111.918 12.2112C111.77 11.999 111.601 11.8109 111.438 11.6178C111.909 11.909 112.391 12.1861 112.891 12.4343Z" fill="#9E551F"/>
<path d="M191.32 20.609C189.92 20.8012 188.482 21.0523 187.208 21.2754C183.604 21.9028 179.879 22.5471 176.206 22.2069C176.018 22.1779 175.844 22.237 175.697 22.354C175.549 22.4731 175.454 22.6502 175.436 22.8373C175.419 23.0234 175.474 23.2065 175.593 23.3516C175.713 23.4967 175.882 23.5847 176.069 23.6027C179.938 23.9689 183.757 23.3016 187.455 22.6572C188.786 22.4261 190.162 22.1849 191.522 21.9988C194.571 21.5796 201.712 20.599 204.675 23.6287C204.809 23.7648 204.988 23.8398 205.177 23.8398C205.362 23.8398 205.536 23.7688 205.668 23.6397C205.803 23.5077 205.878 23.3316 205.88 23.1445C205.883 22.9574 205.811 22.7803 205.68 22.6472C202.629 19.5264 196.707 19.8646 191.32 20.609Z" fill="#9E551F"/>
<path d="M218.895 26.9796C220.306 26.9066 221.76 26.778 223.048 26.6634C226.692 26.3432 230.459 26.0163 234.09 26.666C234.275 26.7108 234.453 26.6668 234.609 26.5625C234.767 26.4564 234.877 26.288 234.911 26.1031C234.943 25.9191 234.904 25.7319 234.797 25.5773C234.69 25.4226 234.53 25.3206 234.345 25.2868C230.52 24.5946 226.658 24.9365 222.919 25.2657C221.574 25.3835 220.182 25.5073 218.811 25.5777C215.738 25.7375 208.539 26.1105 205.844 22.841C205.722 22.6941 205.55 22.6041 205.361 22.5881C205.177 22.5725 204.998 22.6285 204.855 22.746C204.709 22.8661 204.619 23.0352 204.601 23.2215C204.584 23.4078 204.639 23.5902 204.759 23.7339C207.534 27.1016 213.464 27.2656 218.895 26.9796Z" fill="#9E551F"/>
<path d="M175.554 19.0411C179.931 19.7945 184.366 19.0191 188.654 18.2686C189.15 18.1816 189.646 18.0955 190.141 18.0105C194.515 17.2671 199.558 16.6137 204.057 18.3167C204.614 18.5268 205.241 18.804 205.666 19.2592C205.8 19.3993 205.986 19.4803 206.179 19.4803C206.359 19.4803 206.53 19.4133 206.659 19.2912C206.941 19.0261 206.957 18.5808 206.692 18.2986C206.071 17.6353 205.263 17.2721 204.554 17.0029C199.723 15.1759 194.459 15.8513 189.904 16.6287C189.407 16.7127 188.909 16.7998 188.405 16.8879C184.237 17.6173 179.925 18.3707 175.79 17.6593C175.406 17.6013 175.044 17.8534 174.98 18.2326C174.948 18.4177 174.99 18.6038 175.099 18.7559C175.207 18.908 175.369 19.0101 175.554 19.0411Z" fill="#9E551F"/>
<path d="M192.322 20.6092C190.921 20.8013 189.484 21.0524 188.21 21.2755C184.606 21.9029 180.881 22.5472 177.208 22.2071C177.02 22.178 176.845 22.2371 176.699 22.3541C176.551 22.4732 176.456 22.6503 176.438 22.8374C176.421 23.0235 176.476 23.2066 176.595 23.3517C176.715 23.4968 176.883 23.5848 177.071 23.6028C180.94 23.969 184.759 23.3017 188.457 22.6573C189.787 22.4262 191.164 22.185 192.524 21.9989C195.573 21.5797 202.714 20.5991 205.676 23.6288C205.811 23.7649 205.99 23.84 206.179 23.84C206.364 23.84 206.538 23.7689 206.67 23.6399C206.805 23.5078 206.88 23.3317 206.882 23.1446C206.884 22.9575 206.813 22.7804 206.682 22.6473C203.631 19.5265 197.708 19.8648 192.322 20.6092Z" fill="#9E551F"/>
<path d="M219.897 26.9796C221.308 26.9066 222.762 26.778 224.05 26.6634C227.694 26.3432 231.461 26.0163 235.092 26.666C235.277 26.7108 235.455 26.6668 235.611 26.5625C235.769 26.4564 235.879 26.288 235.913 26.1031C235.945 25.9191 235.906 25.7319 235.799 25.5773C235.692 25.4226 235.532 25.3206 235.347 25.2868C231.522 24.5946 227.66 24.9365 223.921 25.2657C222.576 25.3835 221.184 25.5073 219.813 25.5777C216.74 25.7375 209.541 26.1105 206.846 22.841C206.724 22.6941 206.552 22.6041 206.363 22.5881C206.179 22.5725 206 22.6285 205.857 22.746C205.711 22.8661 205.621 23.0352 205.603 23.2215C205.586 23.4078 205.641 23.5902 205.761 23.7339C208.536 27.1016 214.466 27.2656 219.897 26.9796Z" fill="#9E551F"/>
<path d="M60.4461 19.2142C56.07 19.9676 51.6348 19.1921 47.3468 18.4417C46.851 18.3547 46.3542 18.2686 45.8594 18.1836C41.4853 17.4402 36.4421 16.7868 31.9437 18.4898C31.3868 18.6999 30.7598 18.977 30.3341 19.4323C30.2009 19.5724 30.0146 19.6534 29.8213 19.6534C29.642 19.6534 29.4708 19.5864 29.3415 19.4643C29.0591 19.1992 29.044 18.7539 29.3085 18.4717C29.9295 17.8084 30.7378 17.4452 31.447 17.176C36.2778 15.349 41.5414 16.0244 46.0968 16.8018C46.5936 16.8858 47.0914 16.9729 47.5953 17.0609C51.764 17.7904 56.076 18.5438 60.2108 17.8324C60.5944 17.7744 60.957 18.0265 61.0201 18.4057C61.0521 18.5908 61.0101 18.7769 60.9019 18.929C60.7937 19.0811 60.6314 19.1831 60.4461 19.2142Z" fill="#9E551F"/>
<path d="M43.6788 20.7823C45.0791 20.9744 46.5164 21.2255 47.7905 21.4486C51.3944 22.076 55.1194 22.7203 58.7924 22.3801C58.9807 22.3511 59.155 22.4102 59.3013 22.5272C59.4495 22.6463 59.5447 22.8234 59.5627 23.0105C59.5798 23.1966 59.5246 23.3797 59.4054 23.5248C59.2852 23.6699 59.117 23.7579 58.9297 23.7759C55.0604 24.1421 51.2412 23.4748 47.5432 22.8304C46.213 22.5993 44.8368 22.3581 43.4765 22.172C40.4276 21.7528 33.2869 20.7722 30.3241 23.8019C30.1899 23.938 30.0106 24.0131 29.8213 24.0131C29.637 24.0131 29.4627 23.942 29.3305 23.813C29.1952 23.6809 29.1201 23.5048 29.1181 23.3177C29.1161 23.1306 29.1873 22.9535 29.3185 22.8204C32.3694 19.6996 38.2921 20.0378 43.6788 20.7823Z" fill="#9E551F"/>
<path d="M16.1038 27.1527C14.6922 27.0797 13.2388 26.9511 11.9504 26.8365C8.30627 26.5163 4.53996 26.1894 0.909013 26.8391C0.723843 26.8839 0.545185 26.8398 0.389548 26.7356C0.231745 26.6295 0.12187 26.4611 0.0880435 26.2762C0.0552995 26.0922 0.0947112 25.905 0.201177 25.7504C0.308642 25.5957 0.468824 25.4937 0.653929 25.4599C4.47828 24.7677 8.34034 25.1096 12.0797 25.4388C13.4247 25.5566 14.8164 25.6804 16.1875 25.7508C19.2611 25.9106 26.4592 26.2836 29.1545 23.0141C29.2767 22.8672 29.449 22.7772 29.6377 22.7612C29.8213 22.7456 30.001 22.8016 30.1437 22.9191C30.2896 23.0392 30.3794 23.2083 30.3972 23.3946C30.4151 23.5808 30.3592 23.7633 30.2398 23.907C27.4643 27.2747 21.5343 27.4387 16.1038 27.1527Z" fill="#9E551F"/>
<path d="M145.552 25.2005C145.453 24.9904 145.199 24.8933 144.987 24.9934C139.972 27.3087 134.621 28.0241 129.92 27.0125C124.703 25.8879 120.173 22.4659 118.099 18.0835C118.09 18.0645 118.074 18.0515 118.063 18.0345C118.047 18.0105 118.033 17.9864 118.013 17.9664C117.993 17.9474 117.97 17.9334 117.947 17.9184C117.929 17.9064 117.915 17.8904 117.896 17.8804C117.889 17.8774 117.881 17.8774 117.874 17.8754C117.868 17.8734 117.863 17.8674 117.857 17.8654C117.837 17.8584 117.816 17.8604 117.795 17.8564C117.767 17.8514 117.74 17.8444 117.712 17.8444C117.683 17.8444 117.656 17.8514 117.628 17.8574C117.602 17.8624 117.578 17.8664 117.554 17.8764C117.547 17.8794 117.539 17.8784 117.532 17.8824C117.512 17.8914 117.497 17.9094 117.479 17.9214C117.458 17.9354 117.436 17.9484 117.418 17.9664C117.397 17.9874 117.382 18.0114 117.365 18.0365C117.353 18.0535 117.337 18.0665 117.328 18.0855C115.255 22.469 110.726 25.8909 105.508 27.0155C100.806 28.0291 95.4582 27.3117 90.44 24.9954C90.2277 24.9003 89.9743 24.9924 89.8751 25.2045C89.7769 25.4186 89.8711 25.6727 90.0844 25.7688C93.6933 27.4347 97.5316 28.3162 101.186 28.3162C102.731 28.3162 104.246 28.1581 105.687 27.847C110.859 26.7323 115.388 23.4535 117.713 19.1991C120.04 23.4535 124.57 26.7323 129.741 27.847C131.181 28.1571 132.697 28.3162 134.242 28.3162C137.896 28.3162 141.735 27.4347 145.343 25.7698C145.557 25.6697 145.65 25.4156 145.552 25.2005Z" fill="#9E551F"/>
</svg>
