<svg width="243" height="186" viewBox="0 0 243 186" fill="none" xmlns="http://www.w3.org/2000/svg">
<g style="mix-blend-mode:multiply">
<path d="M241.819 185.499H1.15735L121.488 93.0255L241.819 185.499Z" fill="#F3E2D4" fill-opacity="0.2" stroke="#A45F27" stroke-linecap="round" stroke-linejoin="round"/>
<path d="M183.504 140.786C183.504 164.868 121.483 167.938 121.483 185.5L183.504 140.786Z" fill="#F3E2D4" fill-opacity="0.2"/>
<path d="M183.504 140.786C183.504 164.868 121.483 167.938 121.483 185.5" stroke="#A45F27" stroke-linecap="round" stroke-linejoin="round"/>
<path d="M59.4678 140.786C59.4678 164.868 121.487 167.938 121.487 185.5L59.4678 140.786Z" fill="#F3E2D4" fill-opacity="0.2"/>
<path d="M59.4678 140.786C59.4678 164.868 121.487 167.938 121.487 185.5" stroke="#A45F27" stroke-linecap="round" stroke-linejoin="round"/>
<path d="M0.5 0.500031L120.831 92.9675L0.5 185.441L0.5 0.500031Z" fill="#F3E2D4" fill-opacity="0.2" stroke="#A45F27" stroke-linecap="round" stroke-linejoin="round"/>
<path d="M58.6869 140.637C27.3491 140.637 23.3545 92.9744 0.501953 92.9744L58.6869 140.637Z" fill="#F3E2D4" fill-opacity="0.2"/>
<path d="M58.6869 140.637C27.3491 140.637 23.3545 92.9744 0.501953 92.9744" stroke="#A45F27" stroke-linecap="round" stroke-linejoin="round"/>
<path d="M58.6869 45.3134C27.3491 45.3134 23.3545 92.9745 0.501953 92.9745L58.6869 45.3134Z" fill="#F3E2D4" fill-opacity="0.2"/>
<path d="M58.6869 45.3134C27.3491 45.3134 23.3545 92.9745 0.501953 92.9745" stroke="#A45F27" stroke-linecap="round" stroke-linejoin="round"/>
<path d="M241.832 0.550781L121.508 93.024L1.17679 0.550781H241.832Z" fill="#F3E2D4" fill-opacity="0.2" stroke="#A45F27" stroke-linecap="round" stroke-linejoin="round"/>
<path d="M59.4696 45.2636C59.4696 21.181 121.491 18.1111 121.491 0.549194L59.4696 45.2636Z" fill="#F3E2D4" fill-opacity="0.2"/>
<path d="M59.4696 45.2636C59.4696 21.181 121.491 18.1111 121.491 0.549194" stroke="#A45F27" stroke-linecap="round" stroke-linejoin="round"/>
<path d="M183.512 45.2636C183.512 21.181 121.493 18.1111 121.493 0.549194L183.512 45.2636Z" fill="#F3E2D4" fill-opacity="0.2"/>
<path d="M183.512 45.2636C183.512 21.181 121.493 18.1111 121.493 0.549194" stroke="#A45F27" stroke-linecap="round" stroke-linejoin="round"/>
<path d="M242.5 0.500031L122.169 92.9675L242.5 185.441L242.5 0.500031Z" fill="#F3E2D4" fill-opacity="0.2" stroke="#A45F27" stroke-linecap="round" stroke-linejoin="round"/>
<path d="M184.313 141.202C215.651 141.202 219.646 93.5394 242.498 93.5394L184.313 141.202Z" fill="#F3E2D4" fill-opacity="0.2"/>
<path d="M184.313 141.202C215.651 141.202 219.646 93.5394 242.498 93.5394" stroke="#A45F27" stroke-linecap="round" stroke-linejoin="round"/>
<path d="M184.313 45.8783C215.651 45.8783 219.646 93.5394 242.498 93.5394L184.313 45.8783Z" fill="#F3E2D4" fill-opacity="0.2"/>
<path d="M184.313 45.8783C215.651 45.8783 219.646 93.5394 242.498 93.5394" stroke="#A45F27" stroke-linecap="round" stroke-linejoin="round"/>
</g>
</svg>
