<svg width="17" height="17" viewBox="0 0 17 17" fill="none" xmlns="http://www.w3.org/2000/svg">
<g clip-path="url(#clip0_0_8982)">
<path d="M12.9836 7.5166H3.41691C2.66212 7.5166 2.05025 8.12848 2.05025 8.88327V13.6666C2.05025 14.4214 2.66212 15.0333 3.41691 15.0333H12.9836C13.7384 15.0333 14.3502 14.4214 14.3502 13.6666V8.88327C14.3502 8.12848 13.7384 7.5166 12.9836 7.5166Z" stroke="white" stroke-width="1.70833" stroke-linecap="round" stroke-linejoin="round"/>
<path d="M4.78394 7.51572V4.78239C4.78394 3.87623 5.14391 3.00719 5.78466 2.36644C6.42541 1.72569 7.29445 1.36572 8.20061 1.36572C9.10677 1.36572 9.97581 1.72569 10.6166 2.36644C11.2573 3.00719 11.6173 3.87623 11.6173 4.78239V7.51572" stroke="white" stroke-width="1.70833" stroke-linecap="round" stroke-linejoin="round"/>
</g>
<defs>
<clipPath id="clip0_0_8982">
<rect width="16.4" height="16.4" fill="white"/>
</clipPath>
</defs>
</svg>
