<svg width="10" height="10" viewBox="0 0 10 10" fill="none" xmlns="http://www.w3.org/2000/svg">
<path d="M3.3335 4.1667V2.9167C3.33309 2.51076 3.48086 2.11862 3.74907 1.8139C4.01727 1.50917 4.38747 1.31281 4.79018 1.26167C5.19289 1.21052 5.60042 1.30811 5.93628 1.53612C6.27215 1.76413 6.51324 2.10688 6.61433 2.50003M5.00016 6.25003C5.11067 6.25003 5.21665 6.20614 5.29479 6.12799C5.37293 6.04985 5.41683 5.94387 5.41683 5.83337C5.41683 5.72286 5.37293 5.61688 5.29479 5.53874C5.21665 5.4606 5.11067 5.4167 5.00016 5.4167C4.88966 5.4167 4.78368 5.4606 4.70554 5.53874C4.62739 5.61688 4.5835 5.72286 4.5835 5.83337C4.5835 5.94387 4.62739 6.04985 4.70554 6.12799C4.78368 6.20614 4.88966 6.25003 5.00016 6.25003ZM5.00016 6.25003V7.50003M2.75016 4.1667H7.25016C7.61683 4.1667 7.91683 4.4667 7.91683 4.83337V7.75003C7.91683 8.30003 7.46683 8.75003 6.91683 8.75003H3.0835C2.5335 8.75003 2.0835 8.30003 2.0835 7.75003V4.83337C2.0835 4.4667 2.3835 4.1667 2.75016 4.1667Z" stroke="#843E1E" stroke-width="0.8" stroke-miterlimit="10" stroke-linecap="round" stroke-linejoin="round"/>
</svg>
