<svg width="251" height="182" viewBox="0 0 251 182" fill="none" xmlns="http://www.w3.org/2000/svg">
<path d="M242.094 11.2703C242.094 13.2842 242.968 15.2259 244.54 16.6648C246.114 18.105 248.258 18.9207 250.501 18.9207H251.001V173.85H250.501C248.258 173.85 246.114 174.666 244.54 176.106C242.968 177.545 242.094 179.487 242.094 181.501V182.001H8.90625V181.501C8.90625 179.487 8.03225 177.544 6.45996 176.105C4.88616 174.665 2.74297 173.849 0.5 173.849H0V18.9207H0.5C2.74304 18.9207 4.88614 18.1049 6.45996 16.6648C8.03226 15.2259 8.90617 13.2843 8.90625 11.2703V10.7703H77.1719V11.7703H9.88867C9.75497 13.8958 8.77584 15.9022 7.13574 17.4031C5.488 18.9109 3.29993 19.7955 1 19.908V172.862C3.30004 172.975 5.48797 173.86 7.13574 175.368C8.77587 176.869 9.75513 178.875 9.88867 181.001H241.111C241.245 178.875 242.225 176.869 243.865 175.368C245.513 173.86 247.701 172.975 250.001 172.863V19.908C247.701 19.7956 245.513 18.9108 243.865 17.4031C242.225 15.9022 241.245 13.8958 241.111 11.7703H173.135V10.7703H242.094V11.2703Z" fill="#843E1E"/>
<path d="M87.5688 15.08L83.8728 7.48L83.4568 15.176C83.4248 15.912 83.4888 16.408 83.6968 17H82.6088C82.8648 16.424 82.9768 15.944 83.0088 15.192L83.4088 7.768C83.4568 7.016 83.3768 6.552 83.1688 6.104H85.3608L88.6888 12.776L91.9048 6.104H93.9368C93.7128 6.6 93.6488 7.08 93.6808 7.784L94.0648 15.192C94.1128 15.944 94.2088 16.408 94.4648 17H91.8408C92.0488 16.424 92.1288 15.912 92.0808 15.176L91.6808 7.448L88.0488 15.08H87.5688ZM101.106 17.256C97.8896 17.256 95.6656 14.808 95.6656 11.56C95.6656 8.312 97.8896 5.864 101.106 5.864C104.322 5.864 106.546 8.312 106.546 11.56C106.546 14.808 104.322 17.256 101.106 17.256ZM97.8256 11.56C97.8256 14.584 99.2016 16.84 101.106 16.84C103.01 16.84 104.386 14.584 104.386 11.56C104.386 8.536 103.01 6.28 101.106 6.28C99.2016 6.28 97.8256 8.536 97.8256 11.56ZM113.106 17.256C109.89 17.256 107.666 14.808 107.666 11.56C107.666 8.312 109.89 5.864 113.106 5.864C116.322 5.864 118.546 8.312 118.546 11.56C118.546 14.808 116.322 17.256 113.106 17.256ZM109.826 11.56C109.826 14.584 111.202 16.84 113.106 16.84C115.01 16.84 116.386 14.584 116.386 11.56C116.386 8.536 115.01 6.28 113.106 6.28C111.202 6.28 109.826 8.536 109.826 11.56ZM128.014 17L120.766 8.36V15.128C120.766 15.896 120.894 16.424 121.246 17H119.806C120.158 16.408 120.286 15.896 120.286 15.128V8.2C120.286 7.416 120.078 6.856 119.63 6.216L119.55 6.104H121.438L128.014 13.976V7.976C128.014 7.208 127.886 6.68 127.534 6.104H128.974C128.622 6.696 128.494 7.208 128.494 7.976V17H128.014ZM137.359 17.272C135.823 17.272 134.319 16.792 133.535 15.992V13.784C134.383 15.656 135.999 16.824 137.375 16.824C138.527 16.824 139.455 16.056 139.455 14.92C139.455 12.12 133.663 12.744 133.663 8.92C133.663 6.872 135.599 5.848 137.743 5.848C138.831 5.848 140.127 6.12 140.735 6.536V8.904C139.839 7.384 138.559 6.264 137.439 6.264C136.367 6.264 135.503 7 135.503 8.056C135.503 10.936 141.359 10.68 141.359 14.088C141.359 16.424 139.247 17.272 137.359 17.272ZM142.521 17C142.873 16.408 143.001 15.896 143.001 15.128V7.976C143.001 7.208 142.873 6.68 142.521 6.104H145.561C145.209 6.696 145.081 7.208 145.081 7.976V15.128C145.081 15.896 145.209 16.424 145.561 17H142.521ZM152.374 17.256C148.982 17.256 146.838 14.76 146.838 11.496C146.838 7.976 149.462 5.848 152.598 5.848C153.894 5.848 154.87 6.04 155.894 6.44V8.6C154.79 7.176 153.862 6.264 152.614 6.264C150.598 6.264 148.998 8.184 148.998 11.576C148.998 14.808 150.374 16.824 152.518 16.824C153.158 16.824 153.798 16.616 154.374 16.264V13.512C154.374 12.808 154.326 12.344 154.214 11.752H156.598C156.486 12.344 156.438 12.808 156.438 13.512V16.152C155.782 16.664 154.358 17.256 152.374 17.256ZM166.577 17L159.329 8.36V15.128C159.329 15.896 159.457 16.424 159.809 17H158.368C158.721 16.408 158.849 15.896 158.849 15.128V8.2C158.849 7.416 158.641 6.856 158.193 6.216L158.113 6.104H160.001L166.577 13.976V7.976C166.577 7.208 166.449 6.68 166.097 6.104H167.537C167.185 6.696 167.057 7.208 167.057 7.976V17H166.577Z" fill="#843E1E"/>
</svg>
