<svg width="11" height="9" viewBox="0 0 11 9" fill="none" xmlns="http://www.w3.org/2000/svg">
<path d="M10.9537 5.18022C10.8099 3.41323 9.95481 2.33867 8.8954 2.42569C7.83595 2.51271 7.43866 3.54187 7.79054 4.19645C8.14242 4.85104 7.83218 5.40342 7.43866 4.9759C7.07166 4.5748 6.45494 4.51049 6.38302 4.5067C7.43489 3.89375 7.47653 1.63491 5.70578 1.13168C4.442 0.77223 3.28043 1.74085 3.28043 1.74085L3.75341 2.80784C4.27174 1.67653 5.98955 1.65761 6.19764 2.69433C6.48518 4.10942 4.16581 4.12834 4.16581 4.12834L4.3739 4.97967C6.33762 4.32509 7.30627 7.26122 5.22145 7.53741C3.1291 7.80983 2.69776 5.3656 1.62696 3.76889C0.556197 2.17218 0 2.13813 0 2.13813C1.24103 3.29593 1.89938 5.86128 2.92478 7.5904C3.95014 9.31951 7.06789 8.70656 7.2911 6.81095C7.38949 5.95962 7.17759 5.39207 6.93168 5.02884C7.00356 5.12346 7.06789 5.21804 7.13219 5.2975C7.65433 5.92938 7.96839 5.82722 7.96839 5.82722C8.75538 5.69478 8.77054 4.91156 8.71379 4.42725C8.65703 3.94294 8.22569 3.31485 8.98621 3.17864C9.74291 3.04243 9.92834 4.61644 9.92834 4.61644C10.2802 6.17152 9.88294 7.23093 8.8727 7.41255C7.86246 7.59416 7.49542 6.27745 7.49542 6.27745C7.40842 7.35579 8.46783 8.13901 9.4516 7.9574C10.4391 7.77959 11.0975 6.94716 10.9537 5.18022Z" fill="url(#paint0_linear_181_16005)"/>
<path d="M8.23292 2.32621C9.49669 2.31107 9.69719 1.93271 9.69719 1.93271L9.3529 1.16084C9.3529 1.16084 8.32372 2.3035 6.48486 0.80896C6.48486 0.80896 6.96919 2.34134 8.23292 2.32621Z" fill="url(#paint1_linear_181_16005)"/>
<path d="M8.70053 0.457944L8.09512 0.00012207L7.61084 0.57524L8.19728 1.05955L8.70053 0.457944Z" fill="url(#paint2_linear_181_16005)"/>
<defs>
<linearGradient id="paint0_linear_181_16005" x1="5.4867" y1="1.0517" x2="5.4867" y2="8.60922" gradientUnits="userSpaceOnUse">
<stop stop-color="#4E2F25"/>
<stop offset="1" stop-color="#A7563B"/>
</linearGradient>
<linearGradient id="paint1_linear_181_16005" x1="8.09103" y1="0.80896" x2="8.09103" y2="2.32632" gradientUnits="userSpaceOnUse">
<stop stop-color="#4E2F25"/>
<stop offset="1" stop-color="#A7563B"/>
</linearGradient>
<linearGradient id="paint2_linear_181_16005" x1="8.15569" y1="0.00012207" x2="8.15569" y2="1.05955" gradientUnits="userSpaceOnUse">
<stop stop-color="#4E2F25"/>
<stop offset="1" stop-color="#A7563B"/>
</linearGradient>
</defs>
</svg>
