<svg width="251" height="182" viewBox="0 0 251 182" fill="none" xmlns="http://www.w3.org/2000/svg">
<path d="M242.094 11.2703C242.094 13.2842 242.968 15.2259 244.54 16.6648C246.114 18.105 248.258 18.9207 250.501 18.9207H251.001V173.85H250.501C248.258 173.85 246.114 174.666 244.54 176.106C242.968 177.545 242.094 179.487 242.094 181.501V182.001H8.90625V181.501C8.90625 179.487 8.03225 177.544 6.45996 176.105C4.88616 174.665 2.74297 173.849 0.5 173.849H0V18.9207H0.5C2.74304 18.9207 4.88614 18.1049 6.45996 16.6648C8.03226 15.2259 8.90617 13.2843 8.90625 11.2703V10.7703H77.1719V11.7703H9.88867C9.75497 13.8958 8.77584 15.9022 7.13574 17.4031C5.488 18.9109 3.29993 19.7955 1 19.908V172.862C3.30004 172.975 5.48797 173.86 7.13574 175.368C8.77587 176.869 9.75513 178.875 9.88867 181.001H241.111C241.245 178.875 242.225 176.869 243.865 175.368C245.513 173.86 247.701 172.975 250.001 172.863V19.908C247.701 19.7956 245.513 18.9108 243.865 17.4031C242.225 15.9022 241.245 13.8958 241.111 11.7703H173.135V10.7703H242.094V11.2703Z" fill="#843E1E"/>
<path d="M94.9528 17.272C93.4168 17.272 91.9128 16.792 91.1288 15.992V13.784C91.9768 15.656 93.5928 16.824 94.9688 16.824C96.1208 16.824 97.0488 16.056 97.0488 14.92C97.0488 12.12 91.2568 12.744 91.2568 8.92C91.2568 6.872 93.1928 5.848 95.3368 5.848C96.4248 5.848 97.7208 6.12 98.3288 6.536V8.904C97.4328 7.384 96.1528 6.264 95.0328 6.264C93.9608 6.264 93.0968 7 93.0968 8.056C93.0968 10.936 98.9528 10.68 98.9528 14.088C98.9528 16.424 96.8408 17.272 94.9528 17.272ZM100.516 7.976C100.516 7.208 100.388 6.68 100.036 6.104H103.076C102.724 6.696 102.596 7.208 102.596 7.976V12.984C102.596 15.288 103.988 16.36 105.54 16.36C107.092 16.36 108.436 15.288 108.436 12.984V7.976C108.436 7.208 108.308 6.68 107.956 6.104H109.396C109.044 6.696 108.916 7.208 108.916 7.976V13C108.916 15.88 106.98 17.272 104.82 17.272C102.58 17.272 100.516 15.88 100.516 13V7.976ZM119.139 17L111.891 8.36V15.128C111.891 15.896 112.019 16.424 112.371 17H110.931C111.283 16.408 111.411 15.896 111.411 15.128V8.2C111.411 7.416 111.203 6.856 110.755 6.216L110.675 6.104H112.563L119.139 13.976V7.976C119.139 7.208 119.011 6.68 118.659 6.104H120.099C119.747 6.696 119.619 7.208 119.619 7.976V17H119.139ZM128.484 17.272C126.948 17.272 125.444 16.792 124.66 15.992V13.784C125.508 15.656 127.124 16.824 128.5 16.824C129.652 16.824 130.58 16.056 130.58 14.92C130.58 12.12 124.788 12.744 124.788 8.92C124.788 6.872 126.724 5.848 128.868 5.848C129.956 5.848 131.252 6.12 131.86 6.536V8.904C130.964 7.384 129.684 6.264 128.564 6.264C127.492 6.264 126.628 7 126.628 8.056C126.628 10.936 132.484 10.68 132.484 14.088C132.484 16.424 130.372 17.272 128.484 17.272ZM133.646 17C133.998 16.408 134.126 15.896 134.126 15.128V7.976C134.126 7.208 133.998 6.68 133.646 6.104H136.686C136.334 6.696 136.206 7.208 136.206 7.976V15.128C136.206 15.896 136.334 16.424 136.686 17H133.646ZM143.499 17.256C140.107 17.256 137.963 14.76 137.963 11.496C137.963 7.976 140.587 5.848 143.723 5.848C145.019 5.848 145.995 6.04 147.019 6.44V8.6C145.915 7.176 144.987 6.264 143.739 6.264C141.723 6.264 140.123 8.184 140.123 11.576C140.123 14.808 141.499 16.824 143.643 16.824C144.283 16.824 144.923 16.616 145.499 16.264V13.512C145.499 12.808 145.451 12.344 145.339 11.752H147.723C147.611 12.344 147.562 12.808 147.562 13.512V16.152C146.907 16.664 145.483 17.256 143.499 17.256ZM157.702 17L150.454 8.36V15.128C150.454 15.896 150.582 16.424 150.934 17H149.493C149.846 16.408 149.974 15.896 149.974 15.128V8.2C149.974 7.416 149.766 6.856 149.318 6.216L149.238 6.104H151.126L157.702 13.976V7.976C157.702 7.208 157.574 6.68 157.222 6.104H158.662C158.31 6.696 158.182 7.208 158.182 7.976V17H157.702Z" fill="#843E1E"/>
</svg>
