<svg width="397" height="118" viewBox="0 0 397 118" fill="none" xmlns="http://www.w3.org/2000/svg">
<path d="M66.3516 21.7153H186.967" stroke="url(#paint0_linear_0_1824)" stroke-miterlimit="10" stroke-linecap="round" stroke-linejoin="round"/>
<path d="M331.887 21.7153H211.272" stroke="url(#paint1_linear_0_1824)" stroke-miterlimit="10" stroke-linecap="round" stroke-linejoin="round"/>
<path d="M252.278 14.326C252.758 15.4777 254.083 16.0237 255.24 15.5461C256.802 14.8988 257.544 13.1103 256.893 11.5524C256.014 9.44545 254.141 8.57797 251.476 9.32195L214.958 21.1706C209.423 22.7166 205.533 20.9162 203.709 16.5401C202.361 13.3037 203.899 9.59127 207.143 8.24615C209.542 7.25219 212.296 8.38602 213.294 10.7787C214.031 12.5479 213.191 14.5789 211.417 15.314C210.105 15.8571 208.599 15.2381 208.053 13.9287" stroke="url(#paint2_linear_0_1824)" stroke-miterlimit="10" stroke-linecap="round" stroke-linejoin="round"/>
<path d="M145.962 14.326C145.481 15.4777 144.156 16.0237 143 15.5461C141.438 14.8988 140.697 13.1103 141.346 11.5524C142.225 9.44545 144.098 8.57797 146.763 9.32195L183.282 21.1706C188.816 22.7166 192.706 20.9162 194.53 16.5401C195.879 13.3037 194.34 9.59127 191.096 8.24615C188.697 7.25219 185.944 8.38602 184.946 10.7787C184.208 12.5479 185.049 14.5789 186.823 15.314C188.134 15.8571 189.64 15.2381 190.186 13.9287" stroke="url(#paint3_linear_0_1824)" stroke-miterlimit="10" stroke-linecap="round" stroke-linejoin="round"/>
<path d="M177.261 18.79L174.774 10.886C173.839 8.18828 171.997 7.10951 169.682 7.60649C167.971 7.97402 166.883 9.65393 167.25 11.3606C167.522 12.6224 168.769 13.4244 170.034 13.1536C170.97 12.9527 171.565 12.0347 171.364 11.1017" stroke="url(#paint4_linear_0_1824)" stroke-miterlimit="10" stroke-linecap="round" stroke-linejoin="round"/>
<path d="M220.979 18.79L223.467 10.886C224.401 8.18828 226.244 7.10951 228.558 7.60649C230.27 7.97402 231.358 9.65393 230.991 11.3606C230.719 12.6224 229.472 13.4244 228.208 13.1536C227.272 12.9527 226.677 12.0347 226.878 11.1017" stroke="url(#paint5_linear_0_1824)" stroke-miterlimit="10" stroke-linecap="round" stroke-linejoin="round"/>
<path d="M199.117 16.1472L200.231 15.037L199.117 13.9268L198.004 15.037L199.117 16.1472Z" fill="url(#paint6_linear_0_1824)" stroke="url(#paint7_linear_0_1824)"/>
<path d="M201.774 7.68774L199.119 1.302L196.464 7.68774L199.119 10.3372L201.774 7.68774Z" fill="url(#paint8_linear_0_1824)" stroke="url(#paint9_linear_0_1824)"/>
<path d="M325.965 105.394H205.351" stroke="url(#paint10_linear_0_1824)" stroke-miterlimit="10" stroke-linecap="round" stroke-linejoin="round"/>
<path d="M205.43 105.699L207.917 113.603C208.851 116.301 210.694 117.38 213.009 116.883C214.72 116.515 215.808 114.835 215.441 113.129C215.169 111.867 213.922 111.065 212.658 111.336C211.722 111.536 211.127 112.454 211.328 113.387" stroke="url(#paint11_linear_0_1824)" stroke-miterlimit="10" stroke-linecap="round" stroke-linejoin="round"/>
<path d="M73.3516 105.394H193.966" stroke="url(#paint12_linear_0_1824)" stroke-miterlimit="10" stroke-linecap="round" stroke-linejoin="round"/>
<path d="M193.887 105.699L191.399 113.603C190.465 116.301 188.622 117.38 186.308 116.883C184.596 116.515 183.509 114.835 183.876 113.129C184.147 111.867 185.395 111.065 186.659 111.336C187.594 111.536 188.19 112.454 187.988 113.387" stroke="url(#paint13_linear_0_1824)" stroke-miterlimit="10" stroke-linecap="round" stroke-linejoin="round"/>
<path d="M199.53 110.963L200.644 112.073L199.53 113.183L198.417 112.073L199.53 110.963Z" fill="url(#paint14_linear_0_1824)" stroke="url(#paint15_linear_0_1824)"/>
<path d="M0 38.489C2.16146 36.7182 3.42448 35.8328 3.78906 35.8328H25.8203C25.651 35.8588 25.2539 36.1453 24.6289 36.6921C24.0039 37.239 23.5677 37.6101 23.3203 37.8054C22.7214 38.2611 22.2917 38.489 22.0312 38.489H14.0234V56.3601C14.0234 57.9356 13.7565 59.2377 13.2227 60.2664C12.9883 60.7091 12.7279 61.0476 12.4414 61.282H18.8867C18.7044 61.308 18.3008 61.5945 17.6758 62.1414C17.0508 62.6882 16.6146 63.0593 16.3672 63.2546C15.7682 63.7104 15.3385 63.9382 15.0781 63.9382H8.28125C9.0625 63.2351 9.55078 62.6427 9.74609 62.1609C10.0586 61.3927 10.2148 60.4291 10.2148 59.2703V38.489H0ZM25.8594 61.3015C25.9505 61.2885 26.4714 61.282 27.4219 61.282C29.0495 61.282 30.2474 61.1583 31.0156 60.9109C31.7969 60.6635 32.3568 60.4356 32.6953 60.2273C32.2135 60.5919 31.7708 60.9304 31.3672 61.2429C30.4948 61.92 29.7917 62.4083 29.2578 62.7078C28.737 63.0072 28.2161 63.2416 27.6953 63.4109C27.1745 63.5671 26.6406 63.6843 26.0938 63.7625C25.2865 63.8796 24.1862 63.9382 22.793 63.9382H22.0312C22.0443 63.9252 22.0573 63.9122 22.0703 63.8992C22.0703 63.8861 22.1615 63.782 22.3438 63.5867C22.513 63.3914 22.7669 63.1114 23.1055 62.7468C23.444 62.3692 23.8932 61.8093 24.4531 61.0671C25.013 60.325 25.6185 59.3679 26.2695 58.196C26.9336 57.0242 27.5456 55.8328 28.1055 54.6218C28.6784 53.3979 29.2253 52.1609 29.7461 50.9109C30.2669 49.6609 30.8008 48.4109 31.3477 47.1609C31.9076 45.8979 32.474 44.6283 33.0469 43.3523C33.6198 42.0632 34.0495 41.0541 34.3359 40.325C34.6354 39.5958 34.8047 39.1401 34.8438 38.9578C34.8958 38.7755 34.974 38.6192 35.0781 38.489H33.5938C31.1719 38.489 29.2904 38.7625 27.9492 39.3093C29.7461 37.7468 31.25 36.7638 32.4609 36.3601C33.5677 36.0085 35.3646 35.8328 37.8516 35.8328H38.8867C39.4466 37.6947 40.0065 39.5828 40.5664 41.4968C41.1393 43.4109 41.7122 45.325 42.2852 47.239C43.5352 51.4057 44.4727 54.4265 45.0977 56.3015C45.7357 58.1765 46.1068 59.2963 46.2109 59.6609C46.3281 60.0125 46.4714 60.3315 46.6406 60.6179C47.0182 61.2429 47.6237 61.5554 48.457 61.5554C48.9128 61.5554 49.388 61.4513 49.8828 61.2429C50.3906 61.0346 50.7812 60.8458 51.0547 60.6765C50.5859 61.0281 50.1693 61.3471 49.8047 61.6335C48.8672 62.3497 48.2682 62.7924 48.0078 62.9617C47.7474 63.1179 47.487 63.2742 47.2266 63.4304C46.9661 63.5867 46.6927 63.7299 46.4062 63.8601C44.5833 64.6674 43.3529 64.3614 42.7148 62.9421C42.2591 61.9395 41.7122 60.338 41.0742 58.1375C40.4362 55.9239 39.8698 54.0424 39.375 52.4929C38.2812 53.2742 35.8984 53.6388 32.2266 53.5867C31.7578 53.5867 31.3542 53.5867 31.0156 53.5867C29.5443 56.5294 28.112 58.7755 26.7188 60.325C26.6016 60.4552 26.4844 60.5919 26.3672 60.7351C26.0286 61.1257 25.8594 61.3145 25.8594 61.3015ZM32.5391 50.8718L36.4062 50.95C37.2135 50.95 38.0339 50.9239 38.8672 50.8718C38.2682 48.9708 37.3763 46.0606 36.1914 42.1414C34.9023 45.0971 33.5938 48.0268 32.2656 50.9304C32.4219 50.8914 32.513 50.8718 32.5391 50.8718ZM59.8633 35.8328L63.7305 35.8132C65.918 35.8132 67.5391 36.1322 68.5938 36.7703C69.974 37.5906 70.6641 39.0033 70.6641 41.0085C70.6641 42.8835 69.5833 44.6088 67.4219 46.1843C66.8229 46.614 66.2435 47.0242 65.6836 47.4148C68.8216 47.7664 70.8984 49.0554 71.9141 51.282C72.2786 52.0632 72.4609 52.9031 72.4609 53.8015C72.4609 54.6869 72.2917 55.4877 71.9531 56.2039C71.6276 56.92 71.1849 57.6101 70.625 58.2742C70.0781 58.9252 69.4466 59.5437 68.7305 60.1296C68.0273 60.7156 67.2982 61.2429 66.543 61.7117C64.4596 62.9747 62.6302 63.6713 61.0547 63.8015C59.9349 63.8927 58.9453 63.9382 58.0859 63.9382H53.6914C54.2643 63.1309 54.6094 62.545 54.7266 62.1804C54.9089 61.6335 55 60.8783 55 59.9148V38.489H50.7031C52.7734 36.7182 54.0365 35.8328 54.4922 35.8328C56.2891 35.8328 58.0794 35.8328 59.8633 35.8328ZM58.7891 47.4343C59.6094 47.4083 60.6315 47.3953 61.8555 47.3953C63.0794 47.3822 63.9648 47.3953 64.5117 47.4343C65.8138 47.0307 66.5755 46.2559 66.7969 45.1101C66.862 44.7065 66.8945 44.2507 66.8945 43.7429C66.8945 40.1492 64.6484 38.3523 60.1562 38.3523C59.6875 38.3523 59.2318 38.3653 58.7891 38.3914V47.4343ZM58.7891 57.1609C58.7891 58.6583 58.3724 60.032 57.5391 61.282H62.9883C64.5117 61.282 65.638 61.0736 66.3672 60.657C67.0964 60.2273 67.6497 59.713 68.0273 59.114C68.4049 58.502 68.5938 57.6947 68.5938 56.6921C68.5938 55.6895 68.457 54.8302 68.1836 54.114C67.9102 53.3979 67.5391 52.7924 67.0703 52.2976C66.6016 51.8028 66.0482 51.4057 65.4102 51.1062C64.7721 50.8067 64.0885 50.5789 63.3594 50.4226C62.1745 50.1492 60.651 50.0125 58.7891 50.0125V57.1609ZM82.9297 57.9421C82.9297 59.3875 82.4154 60.5007 81.3867 61.282H92.4023C93.457 61.282 94.2513 61.1583 94.7852 60.9109C95.332 60.6635 95.7357 60.4356 95.9961 60.2273C94.4466 62.1414 92.7865 63.3263 91.0156 63.782C90.625 63.8861 90.2279 63.9382 89.8242 63.9382H77.168C77.8971 63.2351 78.3659 62.6492 78.5742 62.1804C78.9388 61.3471 79.1211 60.377 79.1211 59.2703V38.489H75.4688L76.2109 37.8835C77.8776 36.5164 78.8932 35.8328 79.2578 35.8328H88.1641C88.0208 35.8328 87.6302 36.1127 86.9922 36.6726C86.3542 37.2325 85.9115 37.6101 85.6641 37.8054C85.0651 38.2611 84.6354 38.489 84.375 38.489H82.9297V57.9421ZM96.9531 38.489C99.1146 36.7182 100.378 35.8328 100.742 35.8328H116.875C116.732 35.8458 116.309 36.1583 115.605 36.7703C114.902 37.3692 114.362 37.8054 113.984 38.0789C113.62 38.3523 113.32 38.489 113.086 38.489H104.414V47.9617H113.887C113.743 47.9747 113.509 48.1244 113.184 48.4109C112.858 48.6843 112.5 48.9838 112.109 49.3093C111.081 50.1817 110.404 50.6179 110.078 50.6179H104.414V56.9851C104.414 58.4304 104.193 59.6153 103.75 60.5398C103.581 60.9044 103.359 61.1518 103.086 61.282H113.945C114.688 61.282 115.456 61.1127 116.25 60.7742L117.461 60.2664C116.797 61.0606 115.378 62.0372 113.203 63.196C112.266 63.6908 111.634 63.9382 111.309 63.9382H98.8477C100.02 62.3497 100.605 60.7937 100.605 59.2703V50.6179H97.8711C99.0039 49.7065 99.9154 48.9968 100.605 48.489V38.489H96.9531ZM160.41 47.6492C160.41 48.9903 160.182 50.3966 159.727 51.8679C159.271 53.3263 158.639 54.726 157.832 56.0671C157.038 57.3953 156.087 58.6388 154.98 59.7976C153.874 60.9565 152.669 61.9591 151.367 62.8054C148.581 64.6153 145.736 65.5203 142.832 65.5203C138.73 65.5203 135.482 64.3289 133.086 61.946C130.677 59.5632 129.473 56.3276 129.473 52.239C129.473 49.1531 130.326 46.2559 132.031 43.5476C133.646 40.9565 135.807 38.8861 138.516 37.3367C141.263 35.7611 144.186 34.9734 147.285 34.9734C150.853 34.9734 153.919 36.1518 156.484 38.5085C159.102 40.9174 160.41 43.9643 160.41 47.6492ZM156.602 50.7742C156.602 48.9643 156.283 47.239 155.645 45.5984C155.02 43.9447 154.128 42.532 152.969 41.3601C150.547 38.9252 147.324 37.7078 143.301 37.7078C138.053 37.7078 134.883 39.9148 133.789 44.3289C133.451 45.7221 133.281 47.3757 133.281 49.2898C133.281 51.2039 133.574 53.0203 134.16 54.739C134.759 56.4447 135.632 57.9096 136.777 59.1335C139.173 61.6726 142.48 62.9421 146.699 62.9421C150.072 62.9421 152.617 61.7703 154.336 59.4265C155.846 57.3692 156.602 54.4851 156.602 50.7742ZM163.164 38.489C165.286 36.7182 166.549 35.8328 166.953 35.8328H184.004C183.822 35.8588 183.542 36.0346 183.164 36.3601C182.799 36.6856 182.487 36.9656 182.227 37.2C181.966 37.4213 181.712 37.6231 181.465 37.8054C180.879 38.2611 180.456 38.489 180.195 38.489H170.625V49.114H180.098C179.928 49.1401 179.655 49.3223 179.277 49.6609C178.9 49.9864 178.581 50.2598 178.32 50.4812C178.06 50.7026 177.806 50.9109 177.559 51.1062C176.986 51.5619 176.562 51.7898 176.289 51.7898H170.625V56.3601C170.625 58.7039 170.156 60.3445 169.219 61.282H175.488C175.306 61.308 175.026 61.4838 174.648 61.8093C174.284 62.1348 173.971 62.4148 173.711 62.6492C173.451 62.8705 173.197 63.0789 172.949 63.2742C172.363 63.7169 171.94 63.9382 171.68 63.9382H165.059C166.23 62.1153 166.816 60.5593 166.816 59.2703V51.7898H164.082C164.993 51.0606 165.905 50.3445 166.816 49.6414V38.489H163.164ZM217.344 35.4421C218.294 35.6765 218.893 35.8523 219.141 35.9695C219.401 36.0867 219.531 36.2039 219.531 36.321C219.531 36.4252 219.427 36.575 219.219 36.7703C219.01 36.9656 218.75 37.1869 218.438 37.4343C218.125 37.6687 217.78 37.9226 217.402 38.196C217.025 38.4695 216.667 38.7169 216.328 38.9382C215.521 39.4721 215.039 39.7651 214.883 39.8171C214.896 39.7651 214.993 39.6674 215.176 39.5242C215.514 39.2507 215.684 39.0815 215.684 39.0164C215.684 38.9382 215.651 38.8796 215.586 38.8406C215.534 38.7885 215.469 38.7494 215.391 38.7234C215.326 38.6843 215.26 38.6518 215.195 38.6257C215.13 38.5997 214.883 38.5085 214.453 38.3523C213.424 37.9486 211.947 37.7468 210.02 37.7468C208.092 37.7468 206.426 37.9747 205.02 38.4304C203.626 38.8731 202.441 39.5502 201.465 40.4617C199.447 42.3497 198.438 45.0971 198.438 48.7039C198.438 52.3627 199.44 55.4552 201.445 57.9812C203.607 60.6895 206.445 62.0437 209.961 62.0437C212.292 62.0437 215.15 61.3015 218.535 59.8171C218.431 59.9083 218.333 59.9929 218.242 60.071C218.112 60.2143 217.949 60.364 217.754 60.5203C213.965 63.3588 210.039 64.7781 205.977 64.7781C202.474 64.7781 199.674 63.4565 197.578 60.8132C195.638 58.3523 194.668 55.2989 194.668 51.6531C194.668 49.7781 194.941 48.196 195.488 46.907C196.048 45.6049 196.699 44.446 197.441 43.4304C198.184 42.4148 199.023 41.4773 199.961 40.6179C200.911 39.7585 201.934 38.9903 203.027 38.3132C204.134 37.6231 205.28 37.0372 206.465 36.5554C208.9 35.5658 211.354 35.071 213.828 35.071C215.221 35.071 216.393 35.1947 217.344 35.4421ZM252.246 47.6492C252.246 48.9903 252.018 50.3966 251.562 51.8679C251.107 53.3263 250.475 54.726 249.668 56.0671C248.874 57.3953 247.923 58.6388 246.816 59.7976C245.71 60.9565 244.505 61.9591 243.203 62.8054C240.417 64.6153 237.572 65.5203 234.668 65.5203C230.566 65.5203 227.318 64.3289 224.922 61.946C222.513 59.5632 221.309 56.3276 221.309 52.239C221.309 49.1531 222.161 46.2559 223.867 43.5476C225.482 40.9565 227.643 38.8861 230.352 37.3367C233.099 35.7611 236.022 34.9734 239.121 34.9734C242.689 34.9734 245.755 36.1518 248.32 38.5085C250.938 40.9174 252.246 43.9643 252.246 47.6492ZM248.438 50.7742C248.438 48.9643 248.118 47.239 247.48 45.5984C246.855 43.9447 245.964 42.532 244.805 41.3601C242.383 38.9252 239.16 37.7078 235.137 37.7078C229.889 37.7078 226.719 39.9148 225.625 44.3289C225.286 45.7221 225.117 47.3757 225.117 49.2898C225.117 51.2039 225.41 53.0203 225.996 54.739C226.595 56.4447 227.467 57.9096 228.613 59.1335C231.009 61.6726 234.316 62.9421 238.535 62.9421C241.908 62.9421 244.453 61.7703 246.172 59.4265C247.682 57.3692 248.438 54.4851 248.438 50.7742ZM280.996 57.239C281.296 53.7755 281.445 50.4942 281.445 47.3953C281.445 44.2833 281.322 41.3145 281.074 38.489H277.598C277.754 38.3718 278.008 38.17 278.359 37.8835C278.724 37.5841 279.102 37.2846 279.492 36.9851C280.482 36.2169 281.113 35.8328 281.387 35.8328H288.75C288.464 35.9239 288.021 36.2364 287.422 36.7703C286.836 37.3041 286.374 37.7013 286.035 37.9617C285.71 38.2221 285.384 38.3914 285.059 38.4695C285.085 38.782 285.098 39.0945 285.098 39.407C285.098 39.7195 285.098 40.032 285.098 40.3445L285.039 44.7C285.039 49.4916 284.525 54.5567 283.496 59.8953C283.47 60.0255 283.444 60.1817 283.418 60.364C283.392 60.5463 283.359 60.7351 283.32 60.9304C283.255 61.3861 283.177 61.7182 283.086 61.9265C282.995 62.1218 282.819 62.3497 282.559 62.6101C282.298 62.8575 282.012 63.1049 281.699 63.3523C281.335 63.6648 280.781 64.0815 280.039 64.6023C279.883 63.6257 279.323 62.5385 278.359 61.3406C273.711 55.5333 268.47 49.3875 262.637 42.9031V52.532C262.637 56.3471 262.344 58.8145 261.758 59.9343C261.432 60.5203 261.133 60.9695 260.859 61.282H267.168C267.012 61.3992 266.751 61.6075 266.387 61.907C266.035 62.1934 265.664 62.4929 265.273 62.8054C264.284 63.5606 263.652 63.9382 263.379 63.9382H256.953C258.073 62.3236 258.711 60.2013 258.867 57.571C258.919 56.8158 258.945 54.7455 258.945 51.3601C258.945 47.9617 258.802 43.6713 258.516 38.489H254.082C254.238 38.3718 254.492 38.17 254.844 37.8835C255.208 37.5841 255.586 37.2846 255.977 36.9851C256.966 36.2169 257.598 35.8328 257.871 35.8328H265.234C264.896 35.95 264.557 36.1713 264.219 36.4968C263.88 36.8223 263.652 37.0372 263.535 37.1414C267.025 40.8393 269.993 44.1466 272.441 47.0632C274.902 49.9669 276.68 52.0567 277.773 53.3328C278.867 54.5958 279.941 55.8979 280.996 57.239ZM288.906 38.489C291.068 36.7182 292.331 35.8328 292.695 35.8328H314.727C314.557 35.8588 314.16 36.1453 313.535 36.6921C312.91 37.239 312.474 37.6101 312.227 37.8054C311.628 38.2611 311.198 38.489 310.938 38.489H302.93V56.3601C302.93 57.9356 302.663 59.2377 302.129 60.2664C301.895 60.7091 301.634 61.0476 301.348 61.282H307.793C307.611 61.308 307.207 61.5945 306.582 62.1414C305.957 62.6882 305.521 63.0593 305.273 63.2546C304.674 63.7104 304.245 63.9382 303.984 63.9382H297.188C297.969 63.2351 298.457 62.6427 298.652 62.1609C298.965 61.3927 299.121 60.4291 299.121 59.2703V38.489H288.906ZM314.531 38.489C316.693 36.7182 317.956 35.8328 318.32 35.8328H334.453C334.31 35.8458 333.887 36.1583 333.184 36.7703C332.48 37.3692 331.94 37.8054 331.562 38.0789C331.198 38.3523 330.898 38.489 330.664 38.489H321.992V47.9617H331.465C331.322 47.9747 331.087 48.1244 330.762 48.4109C330.436 48.6843 330.078 48.9838 329.688 49.3093C328.659 50.1817 327.982 50.6179 327.656 50.6179H321.992V56.9851C321.992 58.4304 321.771 59.6153 321.328 60.5398C321.159 60.9044 320.938 61.1518 320.664 61.282H331.523C332.266 61.282 333.034 61.1127 333.828 60.7742L335.039 60.2664C334.375 61.0606 332.956 62.0372 330.781 63.196C329.844 63.6908 329.212 63.9382 328.887 63.9382H316.426C317.598 62.3497 318.184 60.7937 318.184 59.2703V50.6179H315.449C316.582 49.7065 317.493 48.9968 318.184 48.489V38.489H314.531ZM362.91 57.239C363.21 53.7755 363.359 50.4942 363.359 47.3953C363.359 44.2833 363.236 41.3145 362.988 38.489H359.512C359.668 38.3718 359.922 38.17 360.273 37.8835C360.638 37.5841 361.016 37.2846 361.406 36.9851C362.396 36.2169 363.027 35.8328 363.301 35.8328H370.664C370.378 35.9239 369.935 36.2364 369.336 36.7703C368.75 37.3041 368.288 37.7013 367.949 37.9617C367.624 38.2221 367.298 38.3914 366.973 38.4695C366.999 38.782 367.012 39.0945 367.012 39.407C367.012 39.7195 367.012 40.032 367.012 40.3445L366.953 44.7C366.953 49.4916 366.439 54.5567 365.41 59.8953C365.384 60.0255 365.358 60.1817 365.332 60.364C365.306 60.5463 365.273 60.7351 365.234 60.9304C365.169 61.3861 365.091 61.7182 365 61.9265C364.909 62.1218 364.733 62.3497 364.473 62.6101C364.212 62.8575 363.926 63.1049 363.613 63.3523C363.249 63.6648 362.695 64.0815 361.953 64.6023C361.797 63.6257 361.237 62.5385 360.273 61.3406C355.625 55.5333 350.384 49.3875 344.551 42.9031V52.532C344.551 56.3471 344.258 58.8145 343.672 59.9343C343.346 60.5203 343.047 60.9695 342.773 61.282H349.082C348.926 61.3992 348.665 61.6075 348.301 61.907C347.949 62.1934 347.578 62.4929 347.188 62.8054C346.198 63.5606 345.566 63.9382 345.293 63.9382H338.867C339.987 62.3236 340.625 60.2013 340.781 57.571C340.833 56.8158 340.859 54.7455 340.859 51.3601C340.859 47.9617 340.716 43.6713 340.43 38.489H335.996C336.152 38.3718 336.406 38.17 336.758 37.8835C337.122 37.5841 337.5 37.2846 337.891 36.9851C338.88 36.2169 339.512 35.8328 339.785 35.8328H347.148C346.81 35.95 346.471 36.1713 346.133 36.4968C345.794 36.8223 345.566 37.0372 345.449 37.1414C348.939 40.8393 351.908 44.1466 354.355 47.0632C356.816 49.9669 358.594 52.0567 359.688 53.3328C360.781 54.5958 361.855 55.8979 362.91 57.239ZM370.82 38.489C372.982 36.7182 374.245 35.8328 374.609 35.8328H396.641C396.471 35.8588 396.074 36.1453 395.449 36.6921C394.824 37.239 394.388 37.6101 394.141 37.8054C393.542 38.2611 393.112 38.489 392.852 38.489H384.844V56.3601C384.844 57.9356 384.577 59.2377 384.043 60.2664C383.809 60.7091 383.548 61.0476 383.262 61.282H389.707C389.525 61.308 389.121 61.5945 388.496 62.1414C387.871 62.6882 387.435 63.0593 387.188 63.2546C386.589 63.7104 386.159 63.9382 385.898 63.9382H379.102C379.883 63.2351 380.371 62.6427 380.566 62.1609C380.879 61.3927 381.035 60.4291 381.035 59.2703V38.489H370.82Z" fill="url(#paint16_linear_0_1824)"/>
<path d="M48.3516 85.2462H103.86" stroke="url(#paint17_linear_0_1824)" stroke-miterlimit="10" stroke-linecap="round" stroke-linejoin="round"/>
<path d="M105.305 82.8192C106.321 81.8061 107.928 81.7672 107.928 81.7672C107.928 81.7672 107.889 83.3697 106.873 84.3828C105.857 85.3949 104.25 85.4348 104.25 85.4348C104.25 85.4348 104.289 83.8313 105.305 82.8192Z" fill="url(#paint18_linear_0_1824)"/>
<path d="M106.873 86.1099C105.857 85.0968 104.25 85.0579 104.25 85.0579C104.25 85.0579 104.289 86.6603 105.305 87.6734C106.321 88.6865 107.928 88.7254 107.928 88.7254C107.928 88.7254 107.889 87.122 106.873 86.1099Z" fill="url(#paint19_linear_0_1824)"/>
<path d="M109.822 84.1404C111.258 84.1404 112.422 85.2462 112.422 85.2462C112.422 85.2462 111.258 86.3521 109.822 86.3521C108.386 86.3521 107.222 85.2462 107.222 85.2462C107.222 85.2462 108.386 84.1404 109.822 84.1404Z" fill="url(#paint20_linear_0_1824)"/>
<path d="M349.422 85.2462H293.914" stroke="url(#paint21_linear_0_1824)" stroke-miterlimit="10" stroke-linecap="round" stroke-linejoin="round"/>
<path d="M292.468 82.8192C291.452 81.8061 289.845 81.7672 289.845 81.7672C289.845 81.7672 289.884 83.3697 290.9 84.3828C291.916 85.3949 293.523 85.4348 293.523 85.4348C293.523 85.4348 293.484 83.8313 292.468 82.8192Z" fill="url(#paint22_linear_0_1824)"/>
<path d="M290.9 86.1099C291.916 85.0968 293.523 85.0579 293.523 85.0579C293.523 85.0579 293.484 86.6603 292.468 87.6734C291.452 88.6865 289.845 88.7254 289.845 88.7254C289.845 88.7254 289.884 87.122 290.9 86.1099Z" fill="url(#paint23_linear_0_1824)"/>
<path d="M287.952 84.1404C286.516 84.1404 285.352 85.2462 285.352 85.2462C285.352 85.2462 286.516 86.3521 287.952 86.3521C289.388 86.3521 290.552 85.2462 290.552 85.2462C290.552 85.2462 289.388 84.1404 287.952 84.1404Z" fill="url(#paint24_linear_0_1824)"/>
<path d="M115.831 79.1478H117.445L120.672 84.5796H120.808L124.036 79.1478H125.649L121.445 85.9887V90.7842H120.036V85.9887L115.831 79.1478ZM129.601 90.966C128.813 90.966 128.122 90.7785 127.527 90.4035C126.936 90.0285 126.474 89.5039 126.141 88.8296C125.811 88.1554 125.646 87.3675 125.646 86.466C125.646 85.5569 125.811 84.7633 126.141 84.0853C126.474 83.4073 126.936 82.8808 127.527 82.5058C128.122 82.1308 128.813 81.9433 129.601 81.9433C130.389 81.9433 131.078 82.1308 131.669 82.5058C132.264 82.8808 132.726 83.4073 133.055 84.0853C133.389 84.7633 133.555 85.5569 133.555 86.466C133.555 87.3675 133.389 88.1554 133.055 88.8296C132.726 89.5039 132.264 90.0285 131.669 90.4035C131.078 90.7785 130.389 90.966 129.601 90.966ZM129.601 89.7615C130.199 89.7615 130.692 89.608 131.078 89.3012C131.464 88.9944 131.75 88.591 131.936 88.091C132.122 87.591 132.214 87.0493 132.214 86.466C132.214 85.8827 132.122 85.3391 131.936 84.8353C131.75 84.3315 131.464 83.9243 131.078 83.6137C130.692 83.3031 130.199 83.1478 129.601 83.1478C129.002 83.1478 128.51 83.3031 128.124 83.6137C127.737 83.9243 127.451 84.3315 127.266 84.8353C127.08 85.3391 126.987 85.8827 126.987 86.466C126.987 87.0493 127.08 87.591 127.266 88.091C127.451 88.591 127.737 88.9944 128.124 89.3012C128.51 89.608 129.002 89.7615 129.601 89.7615ZM141.102 87.216V82.0569H142.443V90.7842H141.102V89.3069H141.011C140.807 89.7501 140.489 90.127 140.057 90.4376C139.625 90.7444 139.08 90.8978 138.42 90.8978C137.875 90.8978 137.39 90.7785 136.966 90.5399C136.542 90.2974 136.208 89.9338 135.966 89.449C135.723 88.9603 135.602 88.3448 135.602 87.6024V82.0569H136.943V87.5115C136.943 88.1478 137.121 88.6554 137.477 89.0342C137.837 89.413 138.295 89.6024 138.852 89.6024C139.186 89.6024 139.525 89.5171 139.869 89.3467C140.218 89.1762 140.509 88.9149 140.744 88.5626C140.983 88.2103 141.102 87.7615 141.102 87.216ZM144.899 90.7842V82.0569H146.195V83.3751H146.286C146.445 82.9433 146.732 82.5929 147.149 82.324C147.566 82.055 148.036 81.9205 148.558 81.9205C148.657 81.9205 148.78 81.9224 148.928 81.9262C149.075 81.93 149.187 81.9357 149.263 81.9433V83.3069C149.217 83.2955 149.113 83.2785 148.95 83.2558C148.791 83.2293 148.623 83.216 148.445 83.216C148.02 83.216 147.642 83.305 147.308 83.483C146.979 83.6573 146.717 83.8997 146.524 84.2103C146.335 84.5171 146.24 84.8675 146.24 85.2615V90.7842H144.899ZM164.898 82.7842H163.489C163.405 82.3789 163.259 82.0228 163.051 81.716C162.847 81.4092 162.597 81.1516 162.301 80.9433C162.009 80.7311 161.686 80.5721 161.33 80.466C160.973 80.3599 160.602 80.3069 160.216 80.3069C159.511 80.3069 158.873 80.4849 158.301 80.841C157.733 81.1971 157.28 81.7217 156.943 82.4149C156.61 83.108 156.443 83.9584 156.443 84.966C156.443 85.9736 156.61 86.824 156.943 87.5171C157.28 88.2103 157.733 88.7349 158.301 89.091C158.873 89.4471 159.511 89.6251 160.216 89.6251C160.602 89.6251 160.973 89.5721 161.33 89.466C161.686 89.3599 162.009 89.2027 162.301 88.9944C162.597 88.7823 162.847 88.5228 163.051 88.216C163.259 87.9054 163.405 87.5493 163.489 87.1478H164.898C164.792 87.7425 164.598 88.2747 164.318 88.7444C164.038 89.2141 163.689 89.6137 163.273 89.9433C162.856 90.269 162.388 90.5171 161.869 90.6876C161.354 90.858 160.803 90.9433 160.216 90.9433C159.223 90.9433 158.341 90.7008 157.568 90.216C156.795 89.7311 156.188 89.0418 155.744 88.1478C155.301 87.2539 155.08 86.1933 155.08 84.966C155.08 83.7387 155.301 82.6781 155.744 81.7842C156.188 80.8902 156.795 80.2008 157.568 79.716C158.341 79.2311 159.223 78.9887 160.216 78.9887C160.803 78.9887 161.354 79.074 161.869 79.2444C162.388 79.4149 162.856 79.6649 163.273 79.9944C163.689 80.3202 164.038 80.7179 164.318 81.1876C164.598 81.6535 164.792 82.1857 164.898 82.7842ZM170.538 90.966C169.75 90.966 169.059 90.7785 168.464 90.4035C167.874 90.0285 167.411 89.5039 167.078 88.8296C166.749 88.1554 166.584 87.3675 166.584 86.466C166.584 85.5569 166.749 84.7633 167.078 84.0853C167.411 83.4073 167.874 82.8808 168.464 82.5058C169.059 82.1308 169.75 81.9433 170.538 81.9433C171.326 81.9433 172.016 82.1308 172.607 82.5058C173.201 82.8808 173.663 83.4073 173.993 84.0853C174.326 84.7633 174.493 85.5569 174.493 86.466C174.493 87.3675 174.326 88.1554 173.993 88.8296C173.663 89.5039 173.201 90.0285 172.607 90.4035C172.016 90.7785 171.326 90.966 170.538 90.966ZM170.538 89.7615C171.137 89.7615 171.629 89.608 172.016 89.3012C172.402 88.9944 172.688 88.591 172.874 88.091C173.059 87.591 173.152 87.0493 173.152 86.466C173.152 85.8827 173.059 85.3391 172.874 84.8353C172.688 84.3315 172.402 83.9243 172.016 83.6137C171.629 83.3031 171.137 83.1478 170.538 83.1478C169.94 83.1478 169.447 83.3031 169.061 83.6137C168.675 83.9243 168.389 84.3315 168.203 84.8353C168.018 85.3391 167.925 85.8827 167.925 86.466C167.925 87.0493 168.018 87.591 168.203 88.091C168.389 88.591 168.675 88.9944 169.061 89.3012C169.447 89.608 169.94 89.7615 170.538 89.7615ZM182.722 84.0115L181.517 84.3524C181.441 84.1516 181.33 83.9565 181.182 83.7671C181.038 83.574 180.841 83.4149 180.591 83.2899C180.341 83.1649 180.021 83.1024 179.631 83.1024C179.097 83.1024 178.652 83.2255 178.295 83.4717C177.943 83.7141 177.767 84.0228 177.767 84.3978C177.767 84.7311 177.888 84.9944 178.131 85.1876C178.373 85.3808 178.752 85.5418 179.267 85.6705L180.562 85.9887C181.343 86.1781 181.924 86.4679 182.307 86.858C182.689 87.2444 182.881 87.7425 182.881 88.3524C182.881 88.8524 182.737 89.2993 182.449 89.6933C182.165 90.0872 181.767 90.3978 181.256 90.6251C180.744 90.8524 180.15 90.966 179.472 90.966C178.581 90.966 177.845 90.7728 177.261 90.3865C176.678 90.0001 176.309 89.4357 176.153 88.6933L177.426 88.3751C177.547 88.8448 177.777 89.1971 178.114 89.4319C178.455 89.6668 178.9 89.7842 179.449 89.7842C180.074 89.7842 180.57 89.6516 180.938 89.3865C181.309 89.1175 181.494 88.7955 181.494 88.4205C181.494 88.1175 181.388 87.8637 181.176 87.6592C180.964 87.4508 180.638 87.2955 180.199 87.1933L178.744 86.8524C177.945 86.663 177.358 86.3694 176.983 85.9717C176.612 85.5702 176.426 85.0683 176.426 84.466C176.426 83.9736 176.564 83.538 176.841 83.1592C177.121 82.7804 177.502 82.483 177.983 82.2671C178.468 82.0512 179.017 81.9433 179.631 81.9433C180.494 81.9433 181.172 82.1327 181.665 82.5115C182.161 82.8902 182.513 83.3902 182.722 84.0115ZM184.899 90.7842V82.0569H186.195V83.4205H186.308C186.49 82.9546 186.784 82.5929 187.189 82.3353C187.594 82.074 188.081 81.9433 188.649 81.9433C189.225 81.9433 189.704 82.074 190.087 82.3353C190.473 82.5929 190.774 82.9546 190.99 83.4205H191.081C191.304 82.9698 191.64 82.6118 192.087 82.3467C192.534 82.0777 193.07 81.9433 193.695 81.9433C194.475 81.9433 195.113 82.1876 195.609 82.6762C196.106 83.1611 196.354 83.9168 196.354 84.9433V90.7842H195.013V84.9433C195.013 84.2993 194.837 83.8391 194.484 83.5626C194.132 83.2861 193.717 83.1478 193.24 83.1478C192.626 83.1478 192.151 83.3334 191.814 83.7046C191.477 84.0721 191.308 84.538 191.308 85.1024V90.7842H189.945V84.8069C189.945 84.3107 189.784 83.9111 189.462 83.608C189.14 83.3012 188.725 83.1478 188.217 83.1478C187.869 83.1478 187.543 83.2406 187.24 83.4262C186.941 83.6118 186.698 83.8694 186.513 84.199C186.331 84.5247 186.24 84.9016 186.24 85.3296V90.7842H184.899ZM198.805 90.7842V82.0569H200.146V90.7842H198.805ZM199.487 80.6024C199.226 80.6024 199 80.5133 198.811 80.3353C198.625 80.1573 198.533 79.9433 198.533 79.6933C198.533 79.4433 198.625 79.2293 198.811 79.0512C199 78.8732 199.226 78.7842 199.487 78.7842C199.749 78.7842 199.972 78.8732 200.158 79.0512C200.347 79.2293 200.442 79.4433 200.442 79.6933C200.442 79.9433 200.347 80.1573 200.158 80.3353C199.972 80.5133 199.749 80.6024 199.487 80.6024ZM206.148 90.966C205.33 90.966 204.625 90.7728 204.034 90.3865C203.443 90.0001 202.989 89.4679 202.67 88.7899C202.352 88.1118 202.193 87.3372 202.193 86.466C202.193 85.5796 202.356 84.7974 202.682 84.1194C203.011 83.4376 203.47 82.9054 204.057 82.5228C204.648 82.1365 205.337 81.9433 206.125 81.9433C206.739 81.9433 207.292 82.0569 207.784 82.2842C208.277 82.5115 208.68 82.8296 208.994 83.2387C209.309 83.6478 209.504 84.1251 209.58 84.6705H208.239C208.136 84.2728 207.909 83.9205 207.557 83.6137C207.208 83.3031 206.739 83.1478 206.148 83.1478C205.625 83.1478 205.167 83.2842 204.773 83.5569C204.383 83.8258 204.078 84.2065 203.858 84.699C203.642 85.1876 203.534 85.7615 203.534 86.4205C203.534 87.0948 203.64 87.6819 203.852 88.1819C204.068 88.6819 204.371 89.0702 204.761 89.3467C205.155 89.6232 205.617 89.7615 206.148 89.7615C206.496 89.7615 206.812 89.7008 207.097 89.5796C207.381 89.4584 207.621 89.2842 207.818 89.0569C208.015 88.8296 208.155 88.5569 208.239 88.2387H209.58C209.504 88.7539 209.316 89.2179 209.017 89.6308C208.722 90.0399 208.33 90.3656 207.841 90.608C207.356 90.8467 206.792 90.966 206.148 90.966ZM216.222 90.7842V79.1478H220.29C221.1 79.1478 221.769 79.288 222.295 79.5683C222.822 79.8448 223.214 80.2179 223.472 80.6876C223.729 81.1535 223.858 81.6705 223.858 82.2387C223.858 82.7387 223.769 83.1516 223.591 83.4774C223.417 83.8031 223.186 84.0607 222.898 84.2501C222.614 84.4395 222.305 84.5796 221.972 84.6705V84.7842C222.328 84.8069 222.686 84.9319 223.045 85.1592C223.405 85.3865 223.706 85.7122 223.949 86.1365C224.191 86.5607 224.312 87.0796 224.312 87.6933C224.312 88.2766 224.18 88.8012 223.915 89.2671C223.65 89.733 223.231 90.1024 222.659 90.3751C222.087 90.6478 221.343 90.7842 220.426 90.7842H216.222ZM217.631 89.5342H220.426C221.347 89.5342 222 89.3561 222.386 89.0001C222.777 88.6402 222.972 88.2046 222.972 87.6933C222.972 87.2993 222.871 86.9357 222.67 86.6024C222.47 86.2652 222.184 85.9963 221.812 85.7955C221.441 85.591 221.002 85.4887 220.494 85.4887H217.631V89.5342ZM217.631 84.2615H220.244C220.669 84.2615 221.051 84.1781 221.392 84.0115C221.737 83.8448 222.009 83.6099 222.21 83.3069C222.415 83.0039 222.517 82.6478 222.517 82.2387C222.517 81.7274 222.339 81.2936 221.983 80.9376C221.627 80.5777 221.063 80.3978 220.29 80.3978H217.631V84.2615ZM227.787 79.1478V90.7842H226.446V79.1478H227.787ZM235.743 87.216V82.0569H237.084V90.7842H235.743V89.3069H235.652C235.447 89.7501 235.129 90.127 234.697 90.4376C234.266 90.7444 233.72 90.8978 233.061 90.8978C232.516 90.8978 232.031 90.7785 231.607 90.5399C231.182 90.2974 230.849 89.9338 230.607 89.449C230.364 88.9603 230.243 88.3448 230.243 87.6024V82.0569H231.584V87.5115C231.584 88.1478 231.762 88.6554 232.118 89.0342C232.478 89.413 232.936 89.6024 233.493 89.6024C233.826 89.6024 234.165 89.5171 234.51 89.3467C234.858 89.1762 235.15 88.9149 235.385 88.5626C235.624 88.2103 235.743 87.7615 235.743 87.216ZM243.199 90.966C242.358 90.966 241.633 90.7804 241.023 90.4092C240.417 90.0342 239.949 89.5115 239.619 88.841C239.294 88.1668 239.131 87.3827 239.131 86.4887C239.131 85.5948 239.294 84.8069 239.619 84.1251C239.949 83.4395 240.407 82.9054 240.994 82.5228C241.585 82.1365 242.275 81.9433 243.062 81.9433C243.517 81.9433 243.966 82.019 244.409 82.1705C244.852 82.3221 245.256 82.5683 245.619 82.9092C245.983 83.2463 246.273 83.6933 246.489 84.2501C246.705 84.8069 246.812 85.4925 246.812 86.3069V86.8751H240.085V85.716H245.449C245.449 85.2236 245.35 84.7842 245.153 84.3978C244.96 84.0115 244.684 83.7065 244.324 83.483C243.968 83.2596 243.547 83.1478 243.062 83.1478C242.528 83.1478 242.066 83.2804 241.676 83.5455C241.29 83.8069 240.992 84.1478 240.784 84.5683C240.576 84.9887 240.472 85.4395 240.472 85.9205V86.6933C240.472 87.3524 240.585 87.9111 240.812 88.3694C241.044 88.824 241.364 89.1705 241.773 89.4092C242.182 89.644 242.657 89.7615 243.199 89.7615C243.551 89.7615 243.869 89.7122 244.153 89.6137C244.441 89.5115 244.689 89.3599 244.898 89.1592C245.106 88.9546 245.267 88.7008 245.381 88.3978L246.676 88.7615C246.54 89.2008 246.311 89.5872 245.989 89.9205C245.667 90.2501 245.269 90.5077 244.795 90.6933C244.322 90.8751 243.79 90.966 243.199 90.966ZM248.852 94.0569V82.0569H250.148V83.4433H250.307C250.405 83.2918 250.542 83.0986 250.716 82.8637C250.894 82.6251 251.148 82.413 251.477 82.2274C251.811 82.038 252.261 81.9433 252.83 81.9433C253.564 81.9433 254.212 82.127 254.773 82.4944C255.333 82.8618 255.771 83.3827 256.085 84.0569C256.4 84.7311 256.557 85.5266 256.557 86.4433C256.557 87.3675 256.4 88.1686 256.085 88.8467C255.771 89.5209 255.335 90.0436 254.778 90.4149C254.222 90.7823 253.58 90.966 252.852 90.966C252.292 90.966 251.843 90.8732 251.506 90.6876C251.169 90.4982 250.909 90.2842 250.727 90.0455C250.545 89.8031 250.405 89.6024 250.307 89.4433H250.193V94.0569H248.852ZM250.17 86.4205C250.17 87.0796 250.267 87.6611 250.46 88.1649C250.653 88.6649 250.936 89.0569 251.307 89.341C251.678 89.6213 252.133 89.7615 252.67 89.7615C253.231 89.7615 253.699 89.6137 254.074 89.3183C254.453 89.019 254.737 88.6175 254.926 88.1137C255.119 87.6061 255.216 87.0418 255.216 86.4205C255.216 85.8069 255.121 85.2539 254.932 84.7615C254.746 84.2652 254.464 83.8732 254.085 83.5853C253.71 83.2936 253.239 83.1478 252.67 83.1478C252.125 83.1478 251.667 83.2861 251.295 83.5626C250.924 83.8353 250.644 84.2179 250.455 84.7103C250.265 85.199 250.17 85.769 250.17 86.4205ZM258.602 90.7842V82.0569H259.898V83.3751H259.989C260.148 82.9433 260.436 82.5929 260.852 82.324C261.269 82.055 261.739 81.9205 262.261 81.9205C262.36 81.9205 262.483 81.9224 262.631 81.9262C262.778 81.93 262.89 81.9357 262.966 81.9433V83.3069C262.92 83.2955 262.816 83.2785 262.653 83.2558C262.494 83.2293 262.326 83.216 262.148 83.216C261.723 83.216 261.345 83.305 261.011 83.483C260.682 83.6573 260.42 83.8997 260.227 84.2103C260.038 84.5171 259.943 84.8675 259.943 85.2615V90.7842H258.602ZM264.555 90.7842V82.0569H265.896V90.7842H264.555ZM265.237 80.6024C264.976 80.6024 264.75 80.5133 264.561 80.3353C264.375 80.1573 264.283 79.9433 264.283 79.6933C264.283 79.4433 264.375 79.2293 264.561 79.0512C264.75 78.8732 264.976 78.7842 265.237 78.7842C265.499 78.7842 265.722 78.8732 265.908 79.0512C266.097 79.2293 266.192 79.4433 266.192 79.6933C266.192 79.9433 266.097 80.1573 265.908 80.3353C265.722 80.5133 265.499 80.6024 265.237 80.6024ZM269.693 85.5342V90.7842H268.352V82.0569H269.648V83.4205H269.761C269.966 82.9774 270.277 82.6213 270.693 82.3524C271.11 82.0796 271.648 81.9433 272.307 81.9433C272.898 81.9433 273.415 82.0645 273.858 82.3069C274.301 82.5455 274.646 82.9092 274.892 83.3978C275.138 83.8827 275.261 84.4963 275.261 85.2387V90.7842H273.92V85.3296C273.92 84.644 273.742 84.1099 273.386 83.7274C273.03 83.341 272.542 83.1478 271.92 83.1478C271.492 83.1478 271.11 83.2406 270.773 83.4262C270.439 83.6118 270.176 83.8827 269.983 84.2387C269.79 84.5948 269.693 85.0266 269.693 85.5342ZM281.507 82.0569V83.1933H276.984V82.0569H281.507ZM278.303 79.966H279.643V88.2842C279.643 88.663 279.698 88.9471 279.808 89.1365C279.922 89.3221 280.066 89.4471 280.24 89.5115C280.418 89.5721 280.606 89.6024 280.803 89.6024C280.95 89.6024 281.071 89.5948 281.166 89.5796C281.261 89.5607 281.337 89.5455 281.393 89.5342L281.666 90.7387C281.575 90.7728 281.448 90.8069 281.286 90.841C281.123 90.8789 280.916 90.8978 280.666 90.8978C280.287 90.8978 279.916 90.8164 279.553 90.6535C279.193 90.4906 278.893 90.2425 278.655 89.9092C278.42 89.5758 278.303 89.1554 278.303 88.6478V79.966Z" fill="#A45F27"/>
<defs>
<linearGradient id="paint0_linear_0_1824" x1="126.66" y1="21.7153" x2="126.66" y2="20.7153" gradientUnits="userSpaceOnUse">
<stop stop-color="#A45F27"/>
<stop offset="1" stop-color="#3E240F"/>
</linearGradient>
<linearGradient id="paint1_linear_0_1824" x1="271.58" y1="21.7153" x2="271.58" y2="20.7153" gradientUnits="userSpaceOnUse">
<stop stop-color="#A45F27"/>
<stop offset="1" stop-color="#3E240F"/>
</linearGradient>
<linearGradient id="paint2_linear_0_1824" x1="230.175" y1="21.7162" x2="230.175" y2="7.88597" gradientUnits="userSpaceOnUse">
<stop stop-color="#A45F27"/>
<stop offset="1" stop-color="#3E240F"/>
</linearGradient>
<linearGradient id="paint3_linear_0_1824" x1="168.065" y1="21.7162" x2="168.065" y2="7.88597" gradientUnits="userSpaceOnUse">
<stop stop-color="#A45F27"/>
<stop offset="1" stop-color="#3E240F"/>
</linearGradient>
<linearGradient id="paint4_linear_0_1824" x1="172.22" y1="18.79" x2="172.22" y2="7.4891" gradientUnits="userSpaceOnUse">
<stop stop-color="#A45F27"/>
<stop offset="1" stop-color="#3E240F"/>
</linearGradient>
<linearGradient id="paint5_linear_0_1824" x1="226.021" y1="18.79" x2="226.021" y2="7.4891" gradientUnits="userSpaceOnUse">
<stop stop-color="#A45F27"/>
<stop offset="1" stop-color="#3E240F"/>
</linearGradient>
<linearGradient id="paint6_linear_0_1824" x1="198.207" y1="15.945" x2="200.023" y2="14.1238" gradientUnits="userSpaceOnUse">
<stop stop-color="#A45F27"/>
<stop offset="1" stop-color="#3E240F"/>
</linearGradient>
<linearGradient id="paint7_linear_0_1824" x1="198.207" y1="15.945" x2="200.023" y2="14.1238" gradientUnits="userSpaceOnUse">
<stop stop-color="#A45F27"/>
<stop offset="1" stop-color="#3E240F"/>
</linearGradient>
<linearGradient id="paint8_linear_0_1824" x1="199.12" y1="11.0422" x2="199.12" y2="4.76837e-05" gradientUnits="userSpaceOnUse">
<stop stop-color="#A45F27"/>
<stop offset="1" stop-color="#3E240F"/>
</linearGradient>
<linearGradient id="paint9_linear_0_1824" x1="199.12" y1="11.0422" x2="199.12" y2="4.76837e-05" gradientUnits="userSpaceOnUse">
<stop stop-color="#A45F27"/>
<stop offset="1" stop-color="#3E240F"/>
</linearGradient>
<linearGradient id="paint10_linear_0_1824" x1="326.299" y1="105.7" x2="205.299" y2="105.7" gradientUnits="userSpaceOnUse">
<stop stop-color="#A45F27" stop-opacity="0"/>
<stop offset="1" stop-color="#A45F27"/>
</linearGradient>
<linearGradient id="paint11_linear_0_1824" x1="210.471" y1="105.699" x2="210.471" y2="117" gradientUnits="userSpaceOnUse">
<stop stop-color="#A45F27"/>
<stop offset="1" stop-color="#3E240F"/>
</linearGradient>
<linearGradient id="paint12_linear_0_1824" x1="73.0175" y1="105.7" x2="194.017" y2="105.7" gradientUnits="userSpaceOnUse">
<stop stop-color="#A45F27" stop-opacity="0"/>
<stop offset="1" stop-color="#A45F27"/>
</linearGradient>
<linearGradient id="paint13_linear_0_1824" x1="188.846" y1="105.699" x2="188.846" y2="117" gradientUnits="userSpaceOnUse">
<stop stop-color="#A45F27"/>
<stop offset="1" stop-color="#3E240F"/>
</linearGradient>
<linearGradient id="paint14_linear_0_1824" x1="198.62" y1="111.165" x2="200.436" y2="112.986" gradientUnits="userSpaceOnUse">
<stop stop-color="#A45F27"/>
<stop offset="1" stop-color="#3E240F"/>
</linearGradient>
<linearGradient id="paint15_linear_0_1824" x1="198.62" y1="111.165" x2="200.436" y2="112.986" gradientUnits="userSpaceOnUse">
<stop stop-color="#A45F27"/>
<stop offset="1" stop-color="#3E240F"/>
</linearGradient>
<linearGradient id="paint16_linear_0_1824" x1="198.352" y1="23.9382" x2="198.352" y2="78.9382" gradientUnits="userSpaceOnUse">
<stop stop-color="#A45F27"/>
<stop offset="1" stop-color="#3E240F"/>
</linearGradient>
<linearGradient id="paint17_linear_0_1824" x1="48.3516" y1="85.7462" x2="103.86" y2="85.7462" gradientUnits="userSpaceOnUse">
<stop stop-color="#A45F27" stop-opacity="0"/>
<stop offset="1" stop-color="#A45F27"/>
</linearGradient>
<linearGradient id="paint18_linear_0_1824" x1="104.25" y1="83.601" x2="107.928" y2="83.601" gradientUnits="userSpaceOnUse">
<stop stop-color="#A45F27"/>
<stop offset="1" stop-color="#A45F27"/>
</linearGradient>
<linearGradient id="paint19_linear_0_1824" x1="104.25" y1="86.8916" x2="107.928" y2="86.8916" gradientUnits="userSpaceOnUse">
<stop stop-color="#A45F27"/>
<stop offset="1" stop-color="#A45F27"/>
</linearGradient>
<linearGradient id="paint20_linear_0_1824" x1="107.222" y1="85.2462" x2="112.422" y2="85.2462" gradientUnits="userSpaceOnUse">
<stop stop-color="#A45F27"/>
<stop offset="1" stop-color="#A45F27"/>
</linearGradient>
<linearGradient id="paint21_linear_0_1824" x1="349.422" y1="85.7462" x2="293.914" y2="85.7462" gradientUnits="userSpaceOnUse">
<stop stop-color="#A45F27" stop-opacity="0"/>
<stop offset="1" stop-color="#A45F27"/>
</linearGradient>
<linearGradient id="paint22_linear_0_1824" x1="293.523" y1="83.601" x2="289.845" y2="83.601" gradientUnits="userSpaceOnUse">
<stop stop-color="#A45F27"/>
<stop offset="1" stop-color="#A45F27"/>
</linearGradient>
<linearGradient id="paint23_linear_0_1824" x1="293.523" y1="86.8916" x2="289.845" y2="86.8916" gradientUnits="userSpaceOnUse">
<stop stop-color="#A45F27"/>
<stop offset="1" stop-color="#A45F27"/>
</linearGradient>
<linearGradient id="paint24_linear_0_1824" x1="290.552" y1="85.2462" x2="285.352" y2="85.2462" gradientUnits="userSpaceOnUse">
<stop stop-color="#A45F27"/>
<stop offset="1" stop-color="#A45F27"/>
</linearGradient>
</defs>
</svg>
