<svg width="46" height="46" viewBox="0 0 46 46" fill="none" xmlns="http://www.w3.org/2000/svg">
<rect x="0.25" y="0.25" width="45.5" height="45.5" rx="22.75" fill="#FFF6EB"/>
<rect x="0.25" y="0.25" width="45.5" height="45.5" rx="22.75" stroke="#BAA498" stroke-width="0.5"/>
<g clip-path="url(#clip0_80_85)">
<path d="M32.75 15.2H28.2V13.25C28.2 12.7329 27.9946 12.2369 27.6289 11.8712C27.2632 11.5055 26.7672 11.3 26.25 11.3H19.75C19.2328 11.3 18.7368 11.5055 18.3711 11.8712C18.0054 12.2369 17.8 12.7329 17.8 13.25V15.2H13.25C12.388 15.2 11.5614 15.5425 10.9519 16.152C10.3424 16.7614 10 17.5881 10 18.45V31.45C10 32.312 10.3424 33.1387 10.9519 33.7481C11.5614 34.3576 12.388 34.7 13.25 34.7H32.75C33.612 34.7 34.4386 34.3576 35.0481 33.7481C35.6576 33.1387 36 32.312 36 31.45V18.45C36 17.5881 35.6576 16.7614 35.0481 16.152C34.4386 15.5425 33.612 15.2 32.75 15.2ZM19.1 13.25C19.1 13.0777 19.1685 12.9123 19.2904 12.7904C19.4123 12.6685 19.5776 12.6 19.75 12.6H26.25C26.4224 12.6 26.5877 12.6685 26.7096 12.7904C26.8315 12.9123 26.9 13.0777 26.9 13.25V15.2H19.1V13.25ZM34.7 31.45C34.7 31.9672 34.4946 32.4632 34.1289 32.8289C33.7632 33.1946 33.2672 33.4 32.75 33.4H13.25C12.7328 33.4 12.2368 33.1946 11.8711 32.8289C11.5054 32.4632 11.3 31.9672 11.3 31.45V23.65C11.8603 24.0763 12.546 24.3048 13.25 24.3H20.4V24.95C20.4 25.4672 20.6054 25.9632 20.9711 26.3289C21.3368 26.6946 21.8328 26.9 22.35 26.9H23.65C24.1672 26.9 24.6632 26.6946 25.0289 26.3289C25.3946 25.9632 25.6 25.4672 25.6 24.95V24.3H32.75C33.4555 24.3011 34.1414 24.0679 34.7 23.637V31.45ZM21.7 24.95V23.65C21.7 23.4777 21.7685 23.3123 21.8904 23.1904C22.0123 23.0685 22.1776 23 22.35 23H23.65C23.8224 23 23.9877 23.0685 24.1096 23.1904C24.2315 23.3123 24.3 23.4777 24.3 23.65V24.95C24.3 25.1224 24.2315 25.2878 24.1096 25.4097C23.9877 25.5316 23.8224 25.6 23.65 25.6H22.35C22.1776 25.6 22.0123 25.5316 21.8904 25.4097C21.7685 25.2878 21.7 25.1224 21.7 24.95ZM34.7 21.05C34.7 21.5672 34.4946 22.0632 34.1289 22.4289C33.7632 22.7946 33.2672 23 32.75 23H25.483C25.3489 22.6207 25.1008 22.2922 24.7726 22.0595C24.4444 21.8267 24.0523 21.7012 23.65 21.7H22.35C21.9477 21.7012 21.5556 21.8267 21.2274 22.0595C20.8992 22.2922 20.6511 22.6207 20.517 23H13.25C12.7328 23 12.2368 22.7946 11.8711 22.4289C11.5054 22.0632 11.3 21.5672 11.3 21.05V18.45C11.3 17.9329 11.5054 17.4369 11.8711 17.0712C12.2368 16.7055 12.7328 16.5 13.25 16.5H32.75C33.2672 16.5 33.7632 16.7055 34.1289 17.0712C34.4946 17.4369 34.7 17.9329 34.7 18.45V21.05ZM13.38 19.1C13.2076 19.1 13.0423 19.1685 12.9204 19.2904C12.7985 19.4123 12.73 19.5777 12.73 19.75C12.73 19.9224 12.7985 20.0878 12.9204 20.2097C13.0423 20.3316 13.2076 20.4 13.38 20.4C13.5524 20.4 13.7177 20.3316 13.8396 20.2097C13.9615 20.0878 14.03 19.9224 14.03 19.75C14.03 19.5777 13.9615 19.4123 13.8396 19.2904C13.7177 19.1685 13.5524 19.1 13.38 19.1ZM32.88 19.1C32.7076 19.1 32.5423 19.1685 32.4204 19.2904C32.2985 19.4123 32.23 19.5777 32.23 19.75C32.23 19.9224 32.2985 20.0878 32.4204 20.2097C32.5423 20.3316 32.7076 20.4 32.88 20.4C33.0524 20.4 33.2177 20.3316 33.3396 20.2097C33.4615 20.0878 33.53 19.9224 33.53 19.75C33.53 19.5777 33.4615 19.4123 33.3396 19.2904C33.2177 19.1685 33.0524 19.1 32.88 19.1Z" fill="#6B3A1E"/>
</g>
<defs>
<clipPath id="clip0_80_85">
<rect width="28" height="28" fill="white" transform="translate(9 9)"/>
</clipPath>
</defs>
</svg>
