<svg width="46" height="46" viewBox="0 0 46 46" fill="none" xmlns="http://www.w3.org/2000/svg">
<rect x="0.25" y="0.25" width="45.5" height="45.5" rx="22.75" fill="#FFF6EB"/>
<rect x="0.25" y="0.25" width="45.5" height="45.5" rx="22.75" stroke="#BAA498" stroke-width="0.5"/>
<path d="M35.6563 24.7822H29.3113C29.187 24.7822 29.0677 24.8316 28.9798 24.9195C28.8919 25.0074 28.8425 25.1266 28.8425 25.2509V26.6811H23.7566C23.6323 26.6811 23.513 26.7305 23.4251 26.8184C23.3372 26.9063 23.2878 27.0255 23.2878 27.1498V29.5625H22.7328L23.24 24.8126C23.2615 24.6035 23.2145 24.393 23.1061 24.2128C22.9978 24.0326 22.8339 23.8924 22.6391 23.8133L19.2435 22.4431V21.3608C19.5831 21.6993 20.0327 21.905 20.511 21.9406H23.6338C24.0231 21.9337 24.3942 21.7742 24.6671 21.4964C24.94 21.2186 25.0929 20.8448 25.0929 20.4554C25.0929 20.066 24.94 19.6921 24.6671 19.4144C24.3942 19.1366 24.0231 18.977 23.6338 18.9701H21.2C21.0595 18.9705 20.9243 18.9158 20.8236 18.8178C20.3877 18.3992 18.8877 16.9334 18.4742 16.5322C18.2122 16.2761 17.8601 16.133 17.4936 16.1337H14.6169C14.4231 16.1332 14.2312 16.1711 14.0521 16.2451C13.873 16.3191 13.7103 16.4278 13.5735 16.565L10.3213 19.8087C10.0456 20.0818 9.88955 20.453 9.88721 20.8409C9.88252 21.4301 9.87549 22.5284 9.87549 23.3262C9.87499 23.5162 9.91236 23.7044 9.98545 23.8798C10.0585 24.0552 10.1658 24.2142 10.3011 24.3476C10.5062 24.5456 10.7645 24.6795 11.0445 24.7329C11.3245 24.7862 11.614 24.7569 11.8775 24.6483C12.1411 24.5397 12.3672 24.3566 12.5283 24.1215C12.6894 23.8863 12.7785 23.6093 12.7846 23.3244L12.8 21.3828L13.4244 20.9473V24.4676C13.3602 24.9054 12.6978 29.434 12.4213 31.5158H11.331C11.2066 31.5158 11.0874 31.5651 10.9995 31.6531C10.9116 31.741 10.8622 31.8602 10.8622 31.9845V35.1204C10.8622 35.2448 10.9116 35.364 10.9995 35.4519C11.0874 35.5398 11.2066 35.5892 11.331 35.5892C11.4553 35.5892 11.5745 35.5398 11.6624 35.4519C11.7503 35.364 11.7997 35.2448 11.7997 35.1204V32.4533H15.0388C15.1261 32.4886 15.2238 32.4886 15.3111 32.4533H18.1499C18.2742 32.4533 18.3934 32.4039 18.4813 32.316C18.5692 32.2281 18.6186 32.1088 18.6186 31.9845V30.5H23.7571C23.8814 30.5 24.0006 30.4506 24.0885 30.3627C24.1764 30.2748 24.2258 30.1555 24.2258 30.0312V27.6186H29.3113C29.4356 27.6186 29.5548 27.5692 29.6427 27.4813C29.7306 27.3934 29.78 27.2741 29.78 27.1498V25.7197H35.1875V29.2915C35.1875 29.4159 35.2369 29.5351 35.3248 29.623C35.4127 29.7109 35.532 29.7603 35.6563 29.7603C35.7806 29.7603 35.8998 29.7109 35.9877 29.623C36.0756 29.5351 36.125 29.4159 36.125 29.2915V25.2509C36.125 25.1266 36.0756 25.0074 35.9877 24.9195C35.8998 24.8316 35.7806 24.7822 35.6563 24.7822ZM21.2 19.9076H23.6328C23.7753 19.9118 23.9106 19.9713 24.0099 20.0736C24.1092 20.1759 24.1648 20.3128 24.1648 20.4554C24.1648 20.5979 24.1092 20.7349 24.0099 20.8371C23.9106 20.9394 23.7753 20.9989 23.6328 21.0031H20.511C20.2546 21.0519 19.5003 20.3473 19.243 20.1912V18.5895C19.7553 19.0433 20.4238 19.9733 21.2 19.9076ZM14.3563 24.5698C14.3595 24.5473 14.3611 24.5246 14.361 24.5019V20.0487C14.3598 19.9636 14.3356 19.8804 14.2909 19.8079C14.2463 19.7354 14.1829 19.6763 14.1074 19.6369C14.0319 19.5975 13.9472 19.5793 13.8622 19.5841C13.7772 19.5889 13.6951 19.6167 13.6246 19.6644L12.2633 20.6136C12.1348 20.7032 12.0299 20.8226 11.9574 20.9615C11.885 21.1004 11.8471 21.2547 11.8471 21.4114V23.3244C11.8421 23.4248 11.8085 23.5218 11.7502 23.6037C11.6918 23.6857 11.6113 23.7492 11.5179 23.7868C11.4246 23.8244 11.3225 23.8344 11.2237 23.8158C11.1248 23.7971 11.0334 23.7505 10.9602 23.6815C10.9132 23.6351 10.8759 23.5798 10.8506 23.5188C10.8252 23.4577 10.8123 23.3923 10.8125 23.3262C10.8125 22.5303 10.8196 21.4358 10.8242 20.8484C10.8253 20.7071 10.8822 20.5719 10.9827 20.4725L14.2349 17.2287C14.2849 17.1786 14.3444 17.1389 14.4099 17.1118C14.4754 17.0848 14.5456 17.071 14.6164 17.0712H17.4931C17.7697 17.0351 18.1189 17.5306 18.3055 17.6764V22.7595C18.3054 22.853 18.3334 22.9444 18.3856 23.0219C18.4379 23.0994 18.5122 23.1595 18.5989 23.1945L22.3077 24.7133L21.7897 29.5625H20.5072C20.6131 28.625 20.8156 27.0059 20.9024 26.3445C20.9367 26.0925 20.8704 25.837 20.7177 25.6336C20.565 25.4301 20.3383 25.295 20.0867 25.2575L17.8367 24.9083C17.5639 24.8677 17.2857 24.8816 17.0182 24.9492C16.7508 25.0168 16.4994 25.1368 16.2786 25.3022C16.0578 25.4676 15.872 25.6751 15.7319 25.9127C15.5919 26.1504 15.5003 26.4134 15.4625 26.6867L14.8822 30.942C14.8644 31.0714 14.8133 31.3264 14.7772 31.5158H13.3663C13.6639 29.2939 14.3488 24.6209 14.3563 24.5698ZM18.1499 29.5625C18.0255 29.5625 17.9063 29.6119 17.8184 29.6998C17.7305 29.7877 17.6811 29.9069 17.6811 30.0312V31.5162H15.7321C15.7696 31.4848 16.3602 27.0022 16.3916 26.8095C16.4122 26.6597 16.4624 26.5155 16.5392 26.3852C16.616 26.2549 16.7179 26.1412 16.839 26.0506C16.9601 25.96 17.0979 25.8943 17.2446 25.8574C17.3912 25.8205 17.5438 25.813 17.6933 25.8354L19.9428 26.1847C19.9518 26.1857 19.9599 26.1903 19.9655 26.1973C19.9711 26.2043 19.9738 26.2132 19.9728 26.2222C19.8824 26.9112 19.6672 28.6325 19.5641 29.5629L18.1499 29.5625ZM15.9992 15.7133C18.8267 15.6167 18.8258 10.9803 15.9992 10.8851C13.1717 10.9808 13.1727 15.6176 15.9992 15.7133ZM15.9992 11.8226C17.5836 11.8672 17.5836 14.7308 15.9992 14.7758C14.4144 14.7308 14.4149 11.8672 15.9992 11.8226Z" fill="#6B3A1E"/>
<path d="M29.7449 16.5068H30.4377V23.6678C30.4377 23.7922 30.4871 23.9114 30.575 23.9993C30.6629 24.0872 30.7821 24.1366 30.9065 24.1366H33.7963C33.9206 24.1366 34.0398 24.0872 34.1278 23.9993C34.2157 23.9114 34.265 23.7922 34.265 23.6678V16.5068H34.9579C35.0959 16.5056 35.2313 16.4683 35.3505 16.3987C35.4697 16.329 35.5687 16.2295 35.6375 16.1098C35.7064 15.9901 35.7428 15.8546 35.7432 15.7165C35.7435 15.5784 35.7077 15.4427 35.6394 15.3227L33.0332 10.8086C32.9629 10.6899 32.8628 10.5916 32.7428 10.5234C32.6229 10.4553 32.4872 10.4196 32.3493 10.4199C32.2113 10.4203 32.0758 10.4566 31.9562 10.5253C31.8366 10.5941 31.737 10.6929 31.6672 10.8119L29.0633 15.3232C28.9957 15.4432 28.9605 15.5788 28.9612 15.7166C28.9619 15.8544 28.9984 15.9896 29.0671 16.109C29.1359 16.2284 29.2345 16.3279 29.3534 16.3976C29.4722 16.4673 29.6071 16.505 29.7449 16.5068ZM32.3511 11.5019L34.6991 15.5693H33.7963C33.672 15.5693 33.5527 15.6186 33.4648 15.7065C33.3769 15.7945 33.3275 15.9137 33.3275 16.038V23.1991H31.3752V16.038C31.3752 15.9137 31.3258 15.7945 31.2379 15.7065C31.15 15.6186 31.0308 15.5693 30.9065 15.5693H30.0032L32.3511 11.5019Z" fill="#6B3A1E"/>
</svg>
