<svg width="46" height="46" viewBox="0 0 46 46" fill="none" xmlns="http://www.w3.org/2000/svg">
<rect x="0.25" y="0.25" width="45.5" height="45.5" rx="22.75" fill="#FFF6EB"/>
<rect x="0.25" y="0.25" width="45.5" height="45.5" rx="22.75" stroke="#BAA498" stroke-width="0.5"/>
<g clip-path="url(#clip0_80_64)">
<path d="M27.2289 24.8061L30.4464 23.4456C30.6254 23.3699 30.7419 23.1943 30.7419 22.9999C30.7419 22.8055 30.6255 22.63 30.4464 22.5543L27.2289 21.1938L27.9146 18.6793C27.9603 18.5118 27.9128 18.3326 27.7899 18.2098C27.6671 18.0871 27.488 18.0397 27.3204 18.0852L24.806 18.771L23.4455 15.5535C23.3699 15.3743 23.1943 15.2579 22.9999 15.2579C22.8054 15.2579 22.6299 15.3743 22.5542 15.5534L21.1937 18.7709L18.6792 18.0851C18.5117 18.0394 18.3325 18.0871 18.2098 18.2098C18.087 18.3325 18.0394 18.5117 18.085 18.6792L18.7708 21.1937L15.5532 22.5542C15.3742 22.6299 15.2578 22.8055 15.2578 22.9999C15.2578 23.1943 15.3742 23.3698 15.5532 23.4455L18.7708 24.806L18.085 27.3205C18.0394 27.488 18.0869 27.6672 18.2098 27.79C18.3018 27.882 18.4253 27.9317 18.5519 27.9317C18.5944 27.9317 18.6371 27.9261 18.6792 27.9147L21.1937 27.2289L22.5541 30.4464C22.6298 30.6255 22.8054 30.7419 22.9998 30.7419C23.1942 30.7419 23.3698 30.6255 23.4455 30.4464L24.806 27.2289L27.3204 27.9147C27.3625 27.9261 27.4053 27.9317 27.4477 27.9317C27.5744 27.9317 27.6979 27.8819 27.7898 27.79C27.9126 27.6672 27.9602 27.488 27.9146 27.3205L27.2289 24.8061ZM22.9999 26.387C21.1323 26.387 19.6129 24.8676 19.6129 22.9999C19.6129 21.1323 21.1323 19.6129 22.9999 19.6129C24.8675 19.6129 26.387 21.1323 26.387 22.9999C26.387 24.8676 24.8675 26.387 22.9999 26.387ZM27.2926 23.7285C27.3327 23.4914 27.3547 23.2483 27.3547 22.9999C27.3547 22.7516 27.3327 22.5085 27.2926 22.2714L29.0155 22.9999L27.2926 23.7285ZM26.455 20.3534C26.222 20.0498 25.95 19.7779 25.6464 19.5448L26.7582 19.2416L26.455 20.3534ZM22.9999 16.9843L23.7285 18.7072C23.4914 18.6672 23.2482 18.6451 22.9999 18.6451C22.7517 18.6451 22.5085 18.6672 22.2714 18.7072L22.9999 16.9843ZM20.3535 19.5448C20.0499 19.7779 19.7779 20.0498 19.5449 20.3534L19.2417 19.2415L20.3535 19.5448ZM18.7072 22.2714C18.6671 22.5084 18.6451 22.7516 18.6451 22.9999C18.6451 23.2482 18.6671 23.4914 18.7072 23.7285L16.9843 22.9999L18.7072 22.2714ZM19.5448 25.6464C19.7779 25.95 20.0498 26.2219 20.3534 26.455L19.2416 26.7582L19.5448 25.6464ZM22.9999 29.0155L22.2714 27.2926C22.5084 27.3327 22.7516 27.3547 22.9999 27.3547C23.2482 27.3547 23.4913 27.3327 23.7285 27.2926L22.9999 29.0155ZM25.6464 26.4551C25.9499 26.222 26.2219 25.9501 26.455 25.6465L26.7582 26.7583L25.6464 26.4551Z" fill="#6B3A1E"/>
<path d="M34.7997 28.6087C35.6278 26.8664 36.0645 24.9401 36.0645 23C36.0645 21.0596 35.6277 19.1332 34.7994 17.3906C35.4507 17.1573 36.0619 16.781 36.5827 16.2603C38.4693 14.3737 38.4693 11.3039 36.5827 9.41715C34.6962 7.53061 31.6264 7.53061 29.7397 9.41715C29.2189 9.93799 28.8427 10.5492 28.6094 11.2006C26.8669 10.3723 24.9404 9.93547 23 9.93547C21.0598 9.93547 19.1336 10.3722 17.3913 11.2003C16.7184 9.33623 14.9319 8 12.8387 8C10.1707 8 8 10.1707 8 12.8387C8 14.9319 9.33623 16.7184 11.2003 17.3913C10.3722 19.1336 9.93547 21.0598 9.93547 23C9.93547 24.9402 10.3722 26.8664 11.2003 28.6087C9.33623 29.2816 8 31.0681 8 33.1613C8 35.8293 10.1707 38 12.8387 38C14.9319 38 16.7184 36.6638 17.3913 34.7997C19.1336 35.6278 21.0598 36.0645 23 36.0645C24.9402 36.0645 26.8664 35.6278 28.6087 34.7997C29.2816 36.6638 31.0681 38 33.1613 38C35.8293 38 38 35.8293 38 33.1613C38 31.0681 36.6638 29.2816 34.7997 28.6087ZM34.2142 16.5621C34.4145 15.9887 34.282 15.328 33.8353 14.8813C33.7128 14.7587 33.6452 14.5957 33.6452 14.4223V14.3394C33.6452 13.6425 33.201 13.0262 32.5397 12.8057L32.2101 12.6959C31.9002 12.5926 31.7149 12.2733 31.779 11.953L31.833 11.683C31.9177 11.2595 31.8324 10.8284 31.5929 10.4692L31.0218 9.61256C31.6048 9.22566 32.2702 9.01391 32.9438 8.97635L32.8473 9.36248C32.7105 9.90992 32.8735 10.498 33.2727 10.8973L33.856 11.4807C33.9785 11.6032 34.046 11.7662 34.046 11.9395V12.1976C34.046 12.7622 34.3468 13.2934 34.8309 13.5838L35.8721 14.2085C35.9176 14.2358 35.9597 14.2687 35.9971 14.3061L36.4962 14.8051C36.3339 15.0805 36.1347 15.3399 35.8985 15.5761C35.4138 16.0606 34.8314 16.3888 34.2142 16.5621ZM36.8988 13.839L36.6814 13.6216C36.5881 13.5283 36.4834 13.4465 36.37 13.3784L35.3287 12.7537C35.1344 12.6372 35.0137 12.424 35.0137 12.1974V11.9393C35.0137 11.5074 34.8455 11.1014 34.5402 10.7962L33.9569 10.2129C33.7967 10.0526 33.7312 9.81658 33.7861 9.59703L33.924 9.04531C34.6479 9.18975 35.3384 9.54154 35.8984 10.1015C36.9093 11.1124 37.2421 12.5476 36.8988 13.839ZM30.2836 10.2498L30.7878 11.0059C30.8838 11.1502 30.9181 11.3231 30.8841 11.4932L30.8301 11.7632C30.6705 12.561 31.1322 13.3567 31.9041 13.614L32.2338 13.7238C32.4992 13.8124 32.6775 14.0598 32.6775 14.3395V14.4224C32.6775 14.8542 32.8457 15.2602 33.1511 15.5656C33.3779 15.7924 33.4038 16.157 33.2114 16.4136L32.9936 16.7039C32.0591 16.6637 31.1363 16.2879 30.4243 15.5758C28.9633 14.1151 28.9165 11.7675 30.2836 10.2498ZM16.1889 10.9032H15.8814C15.7491 10.9032 15.6172 10.9195 15.4893 10.9515L14.3114 11.246C14.0916 11.3009 13.8553 11.2355 13.6951 11.0753L13.5127 10.8929C13.2073 10.5875 12.8014 10.4193 12.3695 10.4193H11.5445C11.3179 10.4193 11.1048 10.2987 10.9883 10.1046L10.6957 9.61701C11.3098 9.20715 12.0467 8.96773 12.8387 8.96773C14.2684 8.96773 15.5185 9.74738 16.1889 10.9032ZM9.95375 10.2613L10.1585 10.6026C10.4489 11.0865 10.98 11.3871 11.5445 11.3871H12.3695C12.5428 11.3871 12.7058 11.4546 12.8284 11.5771L13.0108 11.7596C13.3166 12.0654 13.7332 12.2325 14.1577 12.2325C14.2873 12.2325 14.4179 12.2169 14.546 12.1848L15.7242 11.8903C15.7754 11.8774 15.8284 11.871 15.8814 11.871H16.5871C16.6671 12.1804 16.7096 12.5046 16.7096 12.8387C16.7096 13.5236 16.53 14.1671 16.2167 14.7258C15.9528 14.1791 15.391 13.8064 14.7594 13.8064C14.5861 13.8064 14.4232 13.7389 14.3006 13.6163L14.2419 13.5577C13.7491 13.0649 12.9992 12.9431 12.3759 13.2549L12.065 13.4103C11.7729 13.5563 11.4161 13.4615 11.235 13.1899L11.0821 12.9606C10.8426 12.6014 10.4776 12.357 10.0541 12.2722L9.04455 12.0703C9.18324 11.3845 9.50404 10.7642 9.95375 10.2613ZM8.97318 13.043L9.86428 13.2212C10.0343 13.2552 10.1809 13.3533 10.277 13.4974L10.4298 13.7267C10.8811 14.4036 11.7703 14.6399 12.4978 14.2759L12.8088 14.1205C13.0589 13.9954 13.3599 14.0442 13.5577 14.2421L13.6163 14.3006C13.9217 14.606 14.3276 14.7742 14.7595 14.7742C15.0803 14.7742 15.3564 15.0137 15.4019 15.3313L15.4531 15.6904C14.7638 16.3229 13.8457 16.7097 12.8387 16.7097C10.7728 16.7097 9.07977 15.0829 8.97318 13.043ZM12.8387 29.2903C13.8457 29.2903 14.7639 29.6771 15.4532 30.3096L15.4019 30.6688C15.3566 30.9863 15.0804 31.2259 14.7596 31.2259C14.3277 31.2259 13.9217 31.394 13.6164 31.6994L13.5578 31.758C13.3599 31.9558 13.0589 32.0045 12.8088 31.8796L12.4979 31.7242C11.7703 31.3603 10.8812 31.5965 10.4298 32.2735L10.2771 32.5026C10.181 32.6468 10.0344 32.7449 9.86445 32.7789L8.9733 32.9571C9.07977 30.9171 10.7728 29.2903 12.8387 29.2903ZM9.04461 33.9297L10.0542 33.7278C10.4776 33.643 10.8427 33.3985 11.0823 33.0392L11.235 32.8101C11.4162 32.5384 11.773 32.4438 12.0651 32.5896L12.376 32.745C12.9993 33.0567 13.7493 32.935 14.2421 32.4422L14.3007 32.3835C14.4232 32.261 14.5862 32.1935 14.7595 32.1935C15.3911 32.1935 15.9529 31.8208 16.2167 31.2741C16.5301 31.8328 16.7097 32.4763 16.7097 33.1612C16.7097 33.4953 16.6671 33.8195 16.5872 34.1289H15.8814C15.8284 34.1289 15.7756 34.1225 15.7241 34.1096L14.546 33.8151C13.9984 33.6783 13.4101 33.8412 13.0109 34.2403L12.8284 34.4229C12.7059 34.5453 12.5429 34.6129 12.3696 34.6129H11.5446C10.9801 34.6129 10.449 34.9135 10.1586 35.3974L9.95387 35.7386C9.50404 35.2358 9.18324 34.6155 9.04461 33.9297ZM12.8387 37.0323C12.0468 37.0323 11.3098 36.7928 10.6958 36.383L10.9884 35.8954C11.1049 35.7013 11.318 35.5807 11.5446 35.5807H12.3696C12.8015 35.5807 13.2075 35.4125 13.5127 35.1072L13.6952 34.9247C13.8554 34.7645 14.0915 34.6992 14.3114 34.754L15.4892 35.0485C15.6173 35.0805 15.7493 35.0968 15.8815 35.0968H16.189C15.5185 36.2526 14.2684 37.0323 12.8387 37.0323ZM23 35.0968C21.137 35.0968 19.2877 34.6633 17.6288 33.8407C17.6601 33.6185 17.6774 33.392 17.6774 33.1613C17.6774 30.4933 15.5067 28.3226 12.8387 28.3226C12.608 28.3226 12.3814 28.3399 12.1593 28.3712C11.3368 26.7123 10.9032 24.863 10.9032 23C10.9032 21.137 11.3367 19.2877 12.1593 17.6288C12.3814 17.6601 12.608 17.6774 12.8387 17.6774C15.5067 17.6774 17.6774 15.5067 17.6774 12.8387C17.6774 12.608 17.6601 12.3814 17.6288 12.1593C19.2877 11.3368 21.137 10.9032 23 10.9032C24.8635 10.9032 26.7133 11.337 28.3726 12.16C28.1683 13.6142 28.6238 15.1442 29.7398 16.2603C30.6831 17.2036 31.9222 17.6752 33.1613 17.6752C33.3881 17.6752 33.615 17.6591 33.84 17.6275C34.663 19.2868 35.0967 21.1365 35.0967 23C35.0967 24.863 34.6632 26.7123 33.8407 28.3712C33.6185 28.3399 33.3919 28.3226 33.1613 28.3226C30.4932 28.3226 28.3225 30.4933 28.3225 33.1613C28.3225 33.392 28.3398 33.6186 28.3712 33.8407C26.7123 34.6632 24.863 35.0968 23 35.0968ZM29.2903 33.1613C29.2903 31.0953 30.9172 29.4023 32.9571 29.2957L32.7789 30.1869C32.7449 30.3569 32.6468 30.5033 32.5026 30.5995L32.2733 30.7523C31.5964 31.2037 31.3603 32.0927 31.7241 32.8204L31.8796 33.1313C32.0047 33.3814 31.9559 33.6824 31.758 33.8802L31.6994 33.9389C31.394 34.2443 31.2259 34.6503 31.2259 35.082C31.2259 35.4029 30.9864 35.679 30.6688 35.7243L30.3096 35.7756C29.6771 35.0864 29.2903 34.1683 29.2903 33.1613ZM31.2742 36.5393C31.8209 36.2755 32.1935 35.7137 32.1935 35.0821C32.1935 34.9089 32.261 34.7459 32.3836 34.6233L32.4422 34.5646C32.935 34.0718 33.0567 33.3219 32.7451 32.6985L32.5896 32.3876C32.4436 32.0956 32.5384 31.7387 32.8101 31.5575L33.0393 31.4047C33.3986 31.1653 33.6431 30.8002 33.7278 30.3768L33.9297 29.3672C34.6156 29.5059 35.2359 29.8266 35.7387 30.2763L35.3974 30.4811C34.9136 30.7715 34.6129 31.3026 34.6129 31.8671V32.6921C34.6129 32.8653 34.5454 33.0283 34.4229 33.1509L34.2404 33.3334C33.8412 33.7326 33.6782 34.3209 33.8152 34.8686L34.1097 36.0466C34.1225 36.098 34.129 36.1511 34.129 36.204V36.9098C33.8196 36.9898 33.4953 37.0323 33.1613 37.0323C32.4764 37.0323 31.833 36.8527 31.2742 36.5393ZM35.0968 36.5115V36.204C35.0968 36.072 35.0805 35.9401 35.0485 35.8119L34.754 34.6339C34.6991 34.4141 34.7645 34.178 34.9247 34.0177L35.1072 33.8352C35.4125 33.5298 35.5807 33.1238 35.5807 32.6921V31.8671C35.5807 31.6405 35.7013 31.4273 35.8954 31.3109L36.383 31.0183C36.7929 31.6323 37.0323 32.3693 37.0323 33.1613C37.0323 34.591 36.2526 35.8411 35.0968 36.5115Z" fill="#6B3A1E"/>
</g>
<defs>
<clipPath id="clip0_80_64">
<rect width="30" height="30" fill="white" transform="translate(8 8)"/>
</clipPath>
</defs>
</svg>
