<svg width="46" height="46" viewBox="0 0 46 46" fill="none" xmlns="http://www.w3.org/2000/svg">
<rect x="0.25" y="0.25" width="45.5" height="45.5" rx="22.75" fill="#FFF6EB"/>
<rect x="0.25" y="0.25" width="45.5" height="45.5" rx="22.75" stroke="#BAA498" stroke-width="0.5"/>
<g clip-path="url(#clip0_80_92)">
<path d="M35.1333 33.4H34.7V14.7667H35.1333C35.2708 14.7669 35.4063 14.7344 35.5287 14.6718C35.6511 14.6093 35.7569 14.5186 35.8374 14.4071C35.9178 14.2957 35.9706 14.1667 35.9913 14.0308C36.012 13.8949 36.0002 13.7561 35.9567 13.6257L34.9457 10.5924C34.8881 10.4196 34.7774 10.2694 34.6296 10.163C34.4817 10.0567 34.3041 9.99965 34.1219 10H21.4114C21.2293 9.99975 21.0518 10.0568 20.904 10.1632C20.7562 10.2695 20.6457 10.4197 20.5881 10.5924L19.5767 13.6257C19.5332 13.7561 19.5213 13.8949 19.542 14.0308C19.5628 14.1667 19.6156 14.2957 19.696 14.4071C19.7764 14.5186 19.8822 14.6093 20.0046 14.6718C20.127 14.7344 20.2626 14.7669 20.4 14.7667H20.8333V18.3733L10.5456 22.4887C10.3842 22.5523 10.2458 22.6632 10.1485 22.8068C10.0512 22.9503 9.99941 23.1199 10 23.2934V24.3C10 24.4416 10.0347 24.581 10.1011 24.7061C10.1675 24.8312 10.2635 24.9381 10.3807 25.0175C10.4979 25.0969 10.6328 25.1463 10.7736 25.1615C10.9144 25.1767 11.0567 25.1572 11.1882 25.1047L11.3 25.0614V33.4H10.8667C10.6368 33.4 10.4164 33.4913 10.2538 33.6538C10.0913 33.8164 10 34.0368 10 34.2667V35.1333C10 35.3632 10.0913 35.5836 10.2538 35.7462C10.4164 35.9087 10.6368 36 10.8667 36H35.1333C35.3632 36 35.5836 35.9087 35.7462 35.7462C35.9087 35.5836 36 35.3632 36 35.1333V34.2667C36 34.0368 35.9087 33.8164 35.7462 33.6538C35.5836 33.4913 35.3632 33.4 35.1333 33.4ZM20.4 13.9L21.4114 10.8667H34.1219L35.1333 13.9H20.4ZM33.8333 14.7667V33.4H30.3667V30.3667C30.3667 29.6771 30.0927 29.0158 29.6052 28.5282C29.1176 28.0406 28.4562 27.7667 27.7667 27.7667C27.0771 27.7667 26.4158 28.0406 25.9282 28.5282C25.4406 29.0158 25.1667 29.6771 25.1667 30.3667V33.4H21.7V14.7667H33.8333ZM29.5 33.4H26.0333V30.3667C26.0333 29.907 26.216 29.4661 26.541 29.141C26.8661 28.816 27.307 28.6333 27.7667 28.6333C28.2264 28.6333 28.6673 28.816 28.9923 29.141C29.3174 29.4661 29.5 29.907 29.5 30.3667V33.4ZM10.8667 24.3V23.2938L20.8333 19.3071V20.3133L10.8667 24.3ZM12.1667 24.7134L20.8333 21.2467V33.4H19.9667V26.9C19.9667 26.5552 19.8297 26.2246 19.5859 25.9808C19.3421 25.737 19.0115 25.6 18.6667 25.6H14.3333C13.9886 25.6 13.6579 25.737 13.4141 25.9808C13.1703 26.2246 13.0333 26.5552 13.0333 26.9V33.4H12.1667V24.7134ZM19.1 33.4H13.9V26.9C13.9 26.7851 13.9457 26.6749 14.0269 26.5936C14.1082 26.5123 14.2184 26.4667 14.3333 26.4667H18.6667C18.7816 26.4667 18.8918 26.5123 18.9731 26.5936C19.0544 26.6749 19.1 26.7851 19.1 26.9V33.4ZM10.8667 35.1333V34.2667H35.1333V35.1333H10.8667Z" fill="#6B3A1E"/>
<path d="M23.4336 26.4666H26.0336C26.2634 26.4666 26.4839 26.3753 26.6464 26.2128C26.8089 26.0503 26.9002 25.8298 26.9002 25.6V23C26.9002 22.7701 26.8089 22.5497 26.6464 22.3871C26.4839 22.2246 26.2634 22.1333 26.0336 22.1333H23.4336C23.2037 22.1333 22.9833 22.2246 22.8207 22.3871C22.6582 22.5497 22.5669 22.7701 22.5669 23V25.6C22.5669 25.8298 22.6582 26.0503 22.8207 26.2128C22.9833 26.3753 23.2037 26.4666 23.4336 26.4666ZM23.4336 23H26.0336V25.6H23.4336V23Z" fill="#6B3A1E"/>
<path d="M29.5 26.4666H32.1C32.3298 26.4666 32.5503 26.3753 32.7128 26.2128C32.8753 26.0503 32.9666 25.8298 32.9666 25.6V23C32.9666 22.7701 32.8753 22.5497 32.7128 22.3871C32.5503 22.2246 32.3298 22.1333 32.1 22.1333H29.5C29.2701 22.1333 29.0497 22.2246 28.8871 22.3871C28.7246 22.5497 28.6333 22.7701 28.6333 23V25.6C28.6333 25.8298 28.7246 26.0503 28.8871 26.2128C29.0497 26.3753 29.2701 26.4666 29.5 26.4666ZM29.5 23H32.1V25.6H29.5V23Z" fill="#6B3A1E"/>
<path d="M23.4336 20.8333H26.0336C26.2634 20.8333 26.4839 20.742 26.6464 20.5795C26.8089 20.417 26.9002 20.1965 26.9002 19.9667V17.3667C26.9002 17.1368 26.8089 16.9164 26.6464 16.7538C26.4839 16.5913 26.2634 16.5 26.0336 16.5H23.4336C23.2037 16.5 22.9833 16.5913 22.8207 16.7538C22.6582 16.9164 22.5669 17.1368 22.5669 17.3667V19.9667C22.5669 20.1965 22.6582 20.417 22.8207 20.5795C22.9833 20.742 23.2037 20.8333 23.4336 20.8333ZM23.4336 17.3667H26.0336V19.9667H23.4336V17.3667Z" fill="#6B3A1E"/>
<path d="M29.5 20.8333H32.1C32.3298 20.8333 32.5503 20.742 32.7128 20.5795C32.8753 20.417 32.9666 20.1965 32.9666 19.9667V17.3667C32.9666 17.1368 32.8753 16.9164 32.7128 16.7538C32.5503 16.5913 32.3298 16.5 32.1 16.5H29.5C29.2701 16.5 29.0497 16.5913 28.8871 16.7538C28.7246 16.9164 28.6333 17.1368 28.6333 17.3667V19.9667C28.6333 20.1965 28.7246 20.417 28.8871 20.5795C29.0497 20.742 29.2701 20.8333 29.5 20.8333ZM29.5 17.3667H32.1V19.9667H29.5V17.3667Z" fill="#6B3A1E"/>
<path d="M17.7999 27.3335H15.1999C15.085 27.3335 14.9748 27.3792 14.8935 27.4604C14.8123 27.5417 14.7666 27.6519 14.7666 27.7668C14.7666 27.8818 14.8123 27.992 14.8935 28.0732C14.9748 28.1545 15.085 28.2002 15.1999 28.2002H17.7999C17.9149 28.2002 18.0251 28.1545 18.1063 28.0732C18.1876 27.992 18.2333 27.8818 18.2333 27.7668C18.2333 27.6519 18.1876 27.5417 18.1063 27.4604C18.0251 27.3792 17.9149 27.3335 17.7999 27.3335Z" fill="#6B3A1E"/>
<path d="M17.7999 29.5H15.1999C15.085 29.5 14.9748 29.5457 14.8935 29.6269C14.8123 29.7082 14.7666 29.8184 14.7666 29.9333C14.7666 30.0483 14.8123 30.1585 14.8935 30.2397C14.9748 30.321 15.085 30.3667 15.1999 30.3667H17.7999C17.9149 30.3667 18.0251 30.321 18.1063 30.2397C18.1876 30.1585 18.2333 30.0483 18.2333 29.9333C18.2333 29.8184 18.1876 29.7082 18.1063 29.6269C18.0251 29.5457 17.9149 29.5 17.7999 29.5Z" fill="#6B3A1E"/>
<path d="M17.7999 31.6665H15.1999C15.085 31.6665 14.9748 31.7122 14.8935 31.7934C14.8123 31.8747 14.7666 31.9849 14.7666 32.0998C14.7666 32.2148 14.8123 32.325 14.8935 32.4063C14.9748 32.4875 15.085 32.5332 15.1999 32.5332H17.7999C17.9149 32.5332 18.0251 32.4875 18.1063 32.4063C18.1876 32.325 18.2333 32.2148 18.2333 32.0998C18.2333 31.9849 18.1876 31.8747 18.1063 31.7934C18.0251 31.7122 17.9149 31.6665 17.7999 31.6665Z" fill="#6B3A1E"/>
</g>
<defs>
<clipPath id="clip0_80_92">
<rect width="26" height="26" fill="white" transform="translate(10 10)"/>
</clipPath>
</defs>
</svg>
