<svg width="46" height="46" viewBox="0 0 46 46" fill="none" xmlns="http://www.w3.org/2000/svg">
<rect x="0.25" y="0.25" width="45.5" height="45.5" rx="22.75" fill="#FFF6EB"/>
<rect x="0.25" y="0.25" width="45.5" height="45.5" rx="22.75" stroke="#BAA498" stroke-width="0.5"/>
<g clip-path="url(#clip0_80_99)">
<path d="M31.3637 19.5047C31.6332 19.3787 32.7835 18.8385 32.7929 18.8385C33.949 18.2388 34.4344 16.8412 33.8965 15.6547C33.7262 15.3035 33.4567 15.0095 33.1207 14.8088C32.5245 14.4588 31.8012 14.4028 31.1584 14.656C30.8807 14.1753 30.4385 13.8125 29.9135 13.634C29.413 13.473 28.8682 13.515 28.398 13.7518C27.2407 14.3492 26.7589 15.7527 27.306 16.9473L28.195 18.695C27.9804 18.6798 27.7657 18.6623 27.5475 18.6623C26.2094 18.6623 24.8957 18.9645 23.7185 19.5187C22.5414 18.9645 21.1484 18.6658 19.8102 18.6658L20.7517 16.1482C20.8229 15.9475 20.7727 15.7235 20.6222 15.573L18.591 13.5173C18.4452 13.3762 18.234 13.3213 18.038 13.3762L13.5977 14.7038C13.4029 14.761 13.2559 14.9255 13.222 15.1262L12.6457 17.9693C12.6107 18.1782 12.6912 18.3905 12.8569 18.5212L15.0012 20.0868C12.4334 21.7132 10.7207 24.5727 10.7207 27.8312C10.7219 32.8875 14.8344 37 19.8895 37C21.2277 37 22.5425 36.6978 23.7197 36.1437C24.8969 36.6978 26.2117 37 27.5487 37C32.6039 37 36.7175 32.8875 36.7175 27.8312C36.7175 24.1387 34.5184 20.956 31.3637 19.5047ZM28.881 14.7505C29.3815 14.474 30.0629 14.8147 30.267 15.314C30.3604 15.5403 30.5365 15.7212 30.7605 15.8192C30.9997 15.8868 31.2564 15.8483 31.4885 15.7013C31.898 15.5077 32.3834 15.5765 32.7217 15.8775C33.3249 16.413 32.9644 17.5423 32.2982 17.8515L29.8797 18.9738C29.7619 18.9423 29.6452 18.9097 29.5262 18.8828L28.293 16.4655C28.02 15.8273 28.2732 15.0865 28.881 14.7505ZM14.2324 15.6663L18.038 14.5265L19.2012 15.7013L13.9034 17.288L14.2324 15.6663ZM14.4085 18.2867L19.3307 16.8062L18.6109 18.7627C17.7219 18.8875 16.8737 19.1372 16.085 19.5L14.4085 18.2867ZM19.8895 35.908C15.4364 35.908 11.8139 32.2855 11.8139 27.8323C11.8139 23.3792 15.4364 19.7555 19.8895 19.7555C21.1484 19.7555 22.3874 20.0483 23.4852 20.6083C24.3474 21.0178 25.1454 21.6117 25.8034 22.3373C27.2057 23.8073 27.978 25.7592 27.978 27.8335C27.978 29.769 27.2862 31.6065 26.0355 33.059C25.5164 32.9108 25.045 32.6857 24.6122 32.4033C25.7952 31.1865 26.4625 29.5578 26.4625 27.8347C26.4625 25.8653 25.5899 24.0162 24.0674 22.762L24.065 22.7597C23.2635 22.104 22.3582 21.6548 21.384 21.4308C20.9255 21.3188 20.4227 21.2605 19.8907 21.2605C16.2729 21.2605 13.3294 24.2087 13.3294 27.8335C13.3294 31.4502 16.2729 34.3937 19.8907 34.3937C20.299 34.3937 20.6852 34.3493 21.0562 34.2817C21.4902 34.7262 21.9755 35.1263 22.497 35.4705C21.6699 35.7528 20.7867 35.908 19.8895 35.908ZM27.2535 22.3665C27.3527 22.3618 27.446 22.3502 27.5487 22.3502C30.5704 22.3502 33.0285 24.8083 33.0285 27.8312C33.0285 30.8458 30.5704 33.2982 27.5487 33.2982C27.4472 33.2982 27.355 33.2877 27.257 33.2818C28.4284 31.7162 29.07 29.8168 29.07 27.83C29.07 25.8233 28.426 23.917 27.2535 22.3665ZM23.7139 31.7138C22.6662 30.6825 22.0689 29.2953 22.0689 27.8312C22.0689 26.3483 22.686 24.9658 23.736 23.9368C24.7767 24.9635 25.3694 26.3553 25.3694 27.8312C25.3705 29.3128 24.7569 30.6907 23.7139 31.7138ZM20.1975 22.3677C19.0227 23.924 18.381 25.8268 18.381 27.8323C18.381 29.8203 19.0227 31.722 20.1917 33.283C20.0914 33.2877 19.9945 33.2993 19.8907 33.2993C16.8749 33.2993 14.4225 30.847 14.4225 27.8323C14.4225 24.8095 16.876 22.3513 19.8907 22.3513C19.9957 22.3502 20.0949 22.3618 20.1975 22.3677ZM27.5487 35.908C26.2724 35.908 25.0672 35.6233 23.9589 35.0575C23.0897 34.634 22.2894 34.0355 21.6384 33.318C20.2419 31.8317 19.473 29.8833 19.473 27.8312C19.473 25.8677 20.173 24.0185 21.4365 22.5788C21.9382 22.7258 22.4165 22.9393 22.861 23.2287C21.657 24.4525 20.9769 26.094 20.9769 27.8312C20.9769 29.7772 21.8647 31.6287 23.379 32.8875C24.142 33.5315 25.066 33.9912 26.081 34.2233C26.5407 34.3342 27.0342 34.3913 27.5499 34.3913C31.1735 34.3913 34.1217 31.449 34.1217 27.8312C34.1217 24.2063 31.1735 21.2582 27.5499 21.2582C27.1357 21.2582 26.7542 21.3025 26.3844 21.3713C25.9504 20.9268 25.4662 20.529 24.9494 20.1895C25.773 19.9048 26.6422 19.7532 27.5499 19.7532C32.003 19.7532 35.6255 23.3768 35.6255 27.83C35.6255 32.2832 32.003 35.908 27.5487 35.908Z" fill="#6B3A1E"/>
<path d="M18.9783 11.743C19.2501 11.862 19.5686 11.7488 19.7063 11.4851L20.5171 9.78179C20.6525 9.52162 20.5498 9.20196 20.2885 9.06779C20.0213 8.93129 19.69 9.00129 19.5453 9.28129C19.5395 9.29179 18.7193 11.0033 18.7193 11.0033C18.5898 11.2786 18.7041 11.6076 18.9783 11.743Z" fill="#6B3A1E"/>
<path d="M14.7143 12.2947C14.7971 12.5724 15.1284 12.7579 15.4073 12.6587C15.6954 12.5736 15.8599 12.2726 15.7713 11.9774L15.2544 10.2507C15.1681 9.96258 14.8659 9.79575 14.5754 9.87508C14.2826 9.96725 14.1169 10.2729 14.1998 10.5681L14.7143 12.2947Z" fill="#6B3A1E"/>
<path d="M11.436 14.1275C11.982 14.1275 12.2013 13.3902 11.73 13.1055L10.1118 12.1302C9.85162 11.9762 9.51562 12.0602 9.35929 12.318C9.20529 12.5817 9.28929 12.92 9.54712 13.0822L11.156 14.0458C11.24 14.0995 11.338 14.1275 11.436 14.1275Z" fill="#6B3A1E"/>
</g>
<defs>
<clipPath id="clip0_80_99">
<rect width="28" height="28" fill="white" transform="translate(9 9)"/>
</clipPath>
</defs>
</svg>
