<svg width="46" height="46" viewBox="0 0 46 46" fill="none" xmlns="http://www.w3.org/2000/svg">
<rect x="0.25" y="0.25" width="45.5" height="45.5" rx="22.75" fill="#FFF6EB"/>
<rect x="0.25" y="0.25" width="45.5" height="45.5" rx="22.75" stroke="#BAA498" stroke-width="0.5"/>
<g clip-path="url(#clip0_80_71)">
<path d="M36.7719 22.8732C36.7707 22.4895 36.6673 22.1131 36.4725 21.7826C36.2776 21.4521 35.9983 21.1794 35.6633 20.9925L33.9314 20.0147L34.9266 18.2906C35.1179 17.959 35.2185 17.5828 35.2184 17.2C35.2182 16.8171 35.1173 16.4411 34.9258 16.1095C34.7343 15.778 34.4589 15.5028 34.1273 15.3114C33.7957 15.12 33.4196 15.0193 33.0367 15.0193H30.9002L30.8819 12.8869C30.878 12.5038 30.7735 12.1285 30.5787 11.7986C30.384 11.4687 30.1059 11.1958 29.7724 11.0073C29.4389 10.8188 29.0616 10.7214 28.6786 10.7247C28.2955 10.7281 27.92 10.8321 27.5898 11.0264L25.8837 12.0322L24.8958 10.3137C24.7063 9.98044 24.4316 9.70369 24.0998 9.51183C23.768 9.31997 23.391 9.21992 23.0077 9.22198C22.6244 9.21932 22.2473 9.31879 21.9151 9.51017C21.583 9.70155 21.3078 9.97793 21.1179 10.3109L20.0468 12.1613L18.1882 11.1091C17.8547 10.9207 17.4776 10.8233 17.0946 10.8268C16.7116 10.8303 16.3362 10.9344 16.0062 11.1289C15.6763 11.3233 15.4032 11.6011 15.2146 11.9345C15.0259 12.2678 14.9283 12.6449 14.9315 13.0279L14.9467 15.0211H12.965C12.5821 15.0211 12.206 15.1219 11.8744 15.3132C11.5428 15.5046 11.2674 15.7799 11.0759 16.1114C10.8844 16.4429 10.7835 16.819 10.7833 17.2018C10.7832 17.5847 10.8838 17.9608 11.0751 18.2925L12.1429 20.1438L10.3031 21.2267C9.97315 21.4215 9.7003 21.6997 9.51192 22.0333C9.32353 22.3669 9.22625 22.7442 9.22983 23.1273C9.23342 23.5104 9.33774 23.8858 9.53233 24.2158C9.72692 24.5458 10.0049 24.8188 10.3384 25.0074L12.0703 25.9829L11.0751 27.7074C10.8838 28.0391 10.7832 28.4152 10.7833 28.7981C10.7835 29.181 10.8844 29.557 11.0759 29.8885C11.2674 30.2201 11.5428 30.4953 11.8744 30.6867C12.206 30.8781 12.5821 30.9788 12.965 30.9788H15.1015L15.1203 33.113C15.1273 33.6886 15.3605 34.2383 15.7694 34.6434C16.1784 35.0485 16.7303 35.2765 17.3059 35.278C17.6957 35.2771 18.0782 35.172 18.4137 34.9735L20.1226 33.9631L21.1179 35.689C21.3077 36.0218 21.5827 36.298 21.9145 36.4894C22.2464 36.6808 22.6233 36.7804 23.0064 36.7779C23.3897 36.78 23.7666 36.68 24.0984 36.4881C24.4302 36.2962 24.705 36.0195 24.8944 35.6863L25.9627 33.8386L27.8277 34.8881C28.1614 35.0756 28.5386 35.1721 28.9214 35.1678C29.3042 35.1635 29.6791 35.0587 30.0085 34.8637C30.338 34.6687 30.6103 34.3906 30.7983 34.0571C30.9862 33.7236 31.0832 33.3465 31.0793 32.9637L31.0605 30.9806H33.0354C33.4182 30.9806 33.7943 30.8799 34.1259 30.6885C34.4575 30.4972 34.7329 30.2219 34.9244 29.8904C35.1159 29.5589 35.2168 29.1828 35.217 28.7999C35.2171 28.4171 35.1165 28.0409 34.9252 27.7093L33.8574 25.858L35.6973 24.775C36.0292 24.5821 36.3037 24.3042 36.4926 23.9699C36.6815 23.6357 36.7779 23.2571 36.7719 22.8732ZM34.1302 16.5702C34.2424 16.7618 34.3015 16.9798 34.3015 17.2017C34.3015 17.4237 34.2424 17.6417 34.1302 17.8332L31.4169 22.5347C31.4011 22.1803 31.3614 21.8274 31.298 21.4784C30.992 19.8001 30.1822 18.2547 28.9764 17.0479C28.9722 17.0433 28.9713 17.0373 28.9667 17.0332C28.9621 17.029 28.9529 17.0254 28.9465 17.0194C28.8087 16.8816 28.6709 16.7503 28.5231 16.6231L28.1295 15.9387H30.441H30.4479H30.452H30.4584H33.039C33.2606 15.9379 33.4783 15.9959 33.6701 16.1069C33.8618 16.2178 34.0206 16.3777 34.1302 16.5702ZM25.4983 30.0874L25.4841 30.092C25.4745 30.0952 25.4639 30.0965 25.4547 30.1007C24.8113 30.3238 24.14 30.4569 23.4601 30.4961V28.8786C24.7044 28.7827 25.8857 28.293 26.833 27.4806L27.9765 28.6241C27.9393 28.6567 27.9054 28.6926 27.8677 28.7243C27.8576 28.733 27.8443 28.7367 27.8346 28.7463C27.825 28.7559 27.8241 28.7642 27.8172 28.7725C27.1291 29.3459 26.3437 29.7912 25.4983 30.0874ZM21.6993 30.3997C21.6694 30.3902 21.6386 30.3841 21.6074 30.3813C20.3133 30.137 19.1067 29.5553 18.1097 28.6949C18.1014 28.688 18.095 28.6802 18.0872 28.6733C18.0794 28.6664 18.0748 28.66 18.0674 28.6549C18.0601 28.6499 18.0426 28.6301 18.0298 28.6186L19.1687 27.4796C20.1158 28.2925 21.2972 28.7824 22.5416 28.8786V30.4933C22.2593 30.4779 21.9781 30.4466 21.6993 30.3997ZM15.9355 25.5411C15.9294 25.5217 15.9219 25.5028 15.913 25.4846C15.686 24.8313 15.5506 24.1497 15.5107 23.4592H17.1222C17.2181 24.7035 17.7078 25.8849 18.5202 26.8321L17.3817 27.9706C16.7494 27.2602 16.2585 26.4356 15.9355 25.5411ZM20.4891 15.9172C20.5207 15.911 20.5516 15.9013 20.581 15.8882C21.2135 15.6691 21.8733 15.5386 22.5416 15.5006V17.1214C21.2973 17.2172 20.116 17.7069 19.1687 18.5194L18.0233 17.374C18.7439 16.7343 19.5812 16.2397 20.4891 15.9172ZM24.2092 15.5819C24.2422 15.5936 24.2759 15.6031 24.3102 15.6104C24.3405 15.6163 24.3712 15.6194 24.4021 15.6196C24.4057 15.6196 24.409 15.6196 24.4126 15.6196C25.6664 15.8566 26.8389 16.4099 27.819 17.227L27.8236 17.2311C27.8311 17.2439 27.8392 17.2563 27.8479 17.2683L27.864 17.2844L27.8718 17.277C27.909 17.3092 27.943 17.3446 27.9798 17.3767L26.8343 18.5221C25.8871 17.7084 24.7052 17.2177 23.4601 17.1214V15.5011C23.7105 15.5155 23.9601 15.5425 24.2078 15.5819H24.2092ZM30.0497 20.3821C30.0567 20.4138 30.067 20.4445 30.0804 20.474C30.2172 20.8541 30.3223 21.2449 30.3946 21.6424V21.6483C30.4485 21.9432 30.4834 22.2413 30.4988 22.5407H28.8795C28.7836 21.2964 28.2939 20.1151 27.4815 19.1678L28.6264 18.0229C29.2423 18.7148 29.7249 19.5147 30.0497 20.3821ZM23.0008 27.9844C22.015 27.9844 21.0513 27.692 20.2317 27.1444C19.412 26.5967 18.7731 25.8182 18.3958 24.9074C18.0186 23.9966 17.9199 22.9944 18.1122 22.0275C18.3045 21.0607 18.7793 20.1725 19.4763 19.4754C20.1734 18.7784 21.0616 18.3036 22.0284 18.1113C22.9953 17.919 23.9975 18.0177 24.9083 18.395C25.8191 18.7722 26.5975 19.4111 27.1452 20.2308C27.6929 21.0505 27.9853 22.0141 27.9853 23C27.9837 24.3214 27.458 25.5883 26.5236 26.5227C25.5892 27.4571 24.3223 27.9828 23.0008 27.9844ZM17.266 18.1464C17.2815 18.1308 17.2956 18.1139 17.3082 18.0959C17.3298 18.0711 17.3542 18.0477 17.3748 18.0234L18.5193 19.1678C17.7072 20.1152 17.2178 21.2966 17.1222 22.5407H15.5075C15.5241 22.2363 15.5592 21.9333 15.6126 21.6332C15.6243 21.5997 15.6315 21.5648 15.6342 21.5294C15.8816 20.2813 16.4432 19.117 17.266 18.1464ZM28.7656 27.8223C28.7568 27.8319 28.7476 27.8411 28.7398 27.8512C28.7031 27.8944 28.6627 27.9343 28.6255 27.9766L27.4824 26.8335C28.2948 25.8857 28.7841 24.7039 28.8795 23.4592H30.4993C30.4839 23.7363 30.4532 24.0122 30.4074 24.2859C30.402 24.3037 30.3977 24.3218 30.3946 24.3401L30.3918 24.3511C30.3221 24.7301 30.2229 25.1031 30.0951 25.4667C30.0915 25.4763 30.0841 25.4841 30.0814 25.4942C30.0786 25.5043 30.0814 25.5062 30.0814 25.5117C29.784 26.3541 29.3384 27.1366 28.7656 27.8223ZM28.0555 11.8182C28.2469 11.7057 28.4644 11.6455 28.6863 11.6436C28.9083 11.6417 29.1268 11.6982 29.3201 11.8074C29.5133 11.9165 29.6744 12.0746 29.7873 12.2657C29.9002 12.4568 29.9609 12.6742 29.9633 12.8961L29.9822 15.0216H27.6018L26.3416 12.8286L28.0555 11.8182ZM21.9128 10.7711C22.0229 10.5785 22.1821 10.4186 22.3742 10.3078C22.5664 10.197 22.7846 10.1392 23.0064 10.1405C23.2282 10.1394 23.4464 10.1974 23.6385 10.3084C23.8306 10.4195 23.9897 10.5796 24.0994 10.7725L25.3229 12.8938V12.8961L26.8128 15.479C25.6329 14.8781 24.3281 14.5634 23.0041 14.5605H23.0008C22.0741 14.5595 21.1539 14.7148 20.2788 15.0198H19.4521L20.6127 13.0174L20.6173 13.0118V13.0059L21.9128 10.7711ZM15.8505 13.0215C15.8486 12.7997 15.9051 12.5812 16.0142 12.3881C16.1234 12.195 16.2815 12.034 16.4725 11.9213C16.6635 11.8085 16.8809 11.748 17.1027 11.7458C17.3245 11.7436 17.543 11.7998 17.7363 11.9087L19.5867 12.9563L18.3926 15.023H15.8666L15.8505 13.0215ZM11.8715 16.5702C11.9813 16.3775 12.1405 16.2174 12.3327 16.1065C12.5249 15.9956 12.7431 15.9379 12.965 15.9392H15.4028H15.4092H15.4129H15.4193H18.3958C17.918 16.251 17.473 16.6102 17.0676 17.0116C17.0575 17.0203 17.0446 17.024 17.035 17.0336C17.0283 17.0422 17.0223 17.0513 17.0171 17.0607C15.8457 18.2392 15.0497 19.7382 14.7295 21.3686L14.3207 22.0814L13.1661 20.079L11.871 17.8337C11.7589 17.642 11.6998 17.4239 11.6999 17.2019C11.6999 16.9798 11.7592 16.7618 11.8715 16.5702ZM10.7899 24.2078C10.5969 24.0985 10.436 23.9403 10.3234 23.7492C10.2108 23.5581 10.1505 23.3407 10.1484 23.1189C10.1463 22.8971 10.2025 22.6786 10.3115 22.4854C10.4205 22.2922 10.5783 22.131 10.7692 22.0181L12.6017 20.9397L13.7893 23L12.5296 25.187L10.7899 24.2078ZM11.8715 29.4297C11.7593 29.2381 11.7002 29.0202 11.7002 28.7982C11.7002 28.5762 11.7593 28.3583 11.8715 28.1667L13.0977 26.0394L13.1 26.0366L14.5917 23.45C14.6336 24.2759 14.7974 25.091 15.0776 25.869C15.0822 25.8828 15.0876 25.8963 15.0937 25.9094C15.5052 27.0286 16.1507 28.0471 16.9872 28.8969C17.0001 28.9223 17.0155 28.9463 17.0331 28.9686C17.061 28.9927 17.0919 29.0131 17.125 29.0292C17.2279 29.1289 17.328 29.2313 17.4364 29.3259L17.8626 30.0607H15.563H15.5561H15.552H15.5456H12.965C12.7431 30.062 12.5249 30.0043 12.3327 29.8934C12.1405 29.7825 11.9813 29.6224 11.8715 29.4297ZM17.9462 34.1817C17.7548 34.2942 17.5373 34.3544 17.3154 34.3563C17.0934 34.3582 16.8749 34.3017 16.6816 34.1926C16.4884 34.0834 16.3273 33.9253 16.2144 33.7342C16.1015 33.5432 16.0408 33.3258 16.0384 33.1038L16.02 30.9788H18.3944L19.6611 33.1695L17.9462 34.1817ZM24.1003 35.2275C23.9906 35.4203 23.8315 35.5805 23.6394 35.6915C23.4473 35.8026 23.2292 35.8605 23.0073 35.8594C22.7855 35.8607 22.5673 35.803 22.3752 35.6922C22.183 35.5814 22.0238 35.4215 21.9138 35.2288L20.6829 33.1001L19.1843 30.5099C19.9112 30.8826 20.6885 31.1474 21.4917 31.2961C21.9811 31.3861 22.4775 31.4322 22.9751 31.4339C22.9834 31.4339 22.9903 31.439 22.999 31.439C23.0077 31.439 23.0128 31.4353 23.0201 31.4348C23.9392 31.4337 24.8517 31.2802 25.7206 30.9806H26.5473L24.1003 35.2275ZM30.1626 32.9706C30.165 33.1924 30.1089 33.4108 30.0001 33.604C29.8913 33.7972 29.7336 33.9584 29.5428 34.0714C29.352 34.1844 29.1349 34.2452 28.9132 34.2477C28.6914 34.2502 28.473 34.1944 28.2797 34.0857L26.4228 33.0409L27.6119 30.9788H30.1434L30.1626 32.9706ZM34.1302 29.4297C34.0204 29.6224 33.8612 29.7825 33.669 29.8934C33.4768 30.0043 33.2586 30.062 33.0367 30.0607H30.6026H30.5957H30.5916H30.5852H27.5999C27.8954 29.8712 28.179 29.6639 28.4491 29.4398C28.4653 29.4266 28.4807 29.4123 28.4951 29.3971C28.6471 29.2666 28.7908 29.128 28.9327 28.9879C28.9428 28.9791 28.9552 28.9759 28.9649 28.9663C28.9745 28.9566 28.9741 28.9507 28.9805 28.9433C29.1371 28.7858 29.2859 28.6218 29.4292 28.4528C29.4352 28.4469 29.4434 28.4436 29.4489 28.4377C29.4545 28.4317 29.4577 28.4216 29.4636 28.4147C30.3817 27.3215 31.006 26.0122 31.2773 24.6106L31.6782 23.9167L32.8347 25.9227V25.925L34.1261 28.1649C34.2392 28.3563 34.2992 28.5744 34.2999 28.7967C34.3007 29.019 34.2421 29.2375 34.1302 29.4297ZM35.2325 23.9823L33.4 25.0607L32.2101 23L33.4721 20.812L35.2118 21.7921C35.4048 21.9014 35.5657 22.0596 35.6783 22.2507C35.7909 22.4418 35.8512 22.6592 35.8533 22.881C35.8554 23.1028 35.7992 23.3213 35.6902 23.5145C35.5812 23.7077 35.4234 23.8694 35.2325 23.9823Z" fill="#6B3A1E"/>
<path d="M25.9174 22.5408H23.458V20.5407H25.7337C25.8555 20.5407 25.9723 20.4923 26.0584 20.4062C26.1445 20.3201 26.1929 20.2033 26.1929 20.0815C26.1929 19.9597 26.1445 19.8428 26.0584 19.7567C25.9723 19.6706 25.8555 19.6222 25.7337 19.6222H22.9987C22.8769 19.6222 22.7601 19.6706 22.674 19.7567C22.5878 19.8428 22.5395 19.9597 22.5395 20.0815V22.5408H20.5389V20.2652C20.5389 20.1434 20.4905 20.0265 20.4044 19.9404C20.3182 19.8543 20.2014 19.8059 20.0796 19.8059C19.9578 19.8059 19.841 19.8543 19.7549 19.9404C19.6687 20.0265 19.6204 20.1434 19.6204 20.2652V23.0001C19.6204 23.1219 19.6687 23.2387 19.7549 23.3248C19.841 23.411 19.9578 23.4594 20.0796 23.4594H22.5395V25.4599H20.2633C20.1415 25.4599 20.0247 25.5083 19.9386 25.5944C19.8525 25.6806 19.8041 25.7974 19.8041 25.9192C19.8041 26.041 19.8525 26.1578 19.9386 26.2439C20.0247 26.3301 20.1415 26.3785 20.2633 26.3785H22.9987C23.1205 26.3785 23.2373 26.3301 23.3235 26.2439C23.4096 26.1578 23.458 26.041 23.458 25.9192V23.4594H25.4581V25.7355C25.4581 25.8573 25.5065 25.9741 25.5926 26.0602C25.6787 26.1464 25.7956 26.1948 25.9174 26.1948C26.0392 26.1948 26.156 26.1464 26.2421 26.0602C26.3282 25.9741 26.3766 25.8573 26.3766 25.7355V23.0001C26.3766 22.9398 26.3647 22.8801 26.3417 22.8243C26.3186 22.7686 26.2848 22.718 26.2421 22.6753C26.1995 22.6327 26.1488 22.5989 26.0931 22.5758C26.0374 22.5527 25.9777 22.5408 25.9174 22.5408Z" fill="#6B3A1E"/>
</g>
<defs>
<clipPath id="clip0_80_71">
<rect width="28" height="28" fill="white" transform="translate(9 9)"/>
</clipPath>
</defs>
</svg>
